<svg width="150" height="150" viewBox="0 0 198 224" fill="none" xmlns="http://www.w3.org/2000/svg">
<rect x="4.61133" y="21.5088" width="188.654" height="197.76" stroke="#16A5C5" stroke-width="8"/>
<rect x="0.611328" y="17.5088" width="196.654" height="34.5399" fill="#16A5C5"/>
<rect x="11.6963" y="0.990234" width="15.8932" height="34.7993" rx="7.9466" fill="#086478" stroke="#086478"/>
<rect x="172.366" y="0.990234" width="15.8932" height="34.7991" rx="7.9466" fill="#086478" stroke="#086478"/>
<path d="M40.328 113.567L31.752 91.1674H36.136L44.968 113.567H40.328ZM22.632 113.567L31.464 91.1674H35.848L27.272 113.567H22.632ZM26.792 108.639V104.767H40.84V108.639H26.792ZM56.4197 114.015C54.5637 114.015 52.9531 113.653 51.5877 112.927C50.2224 112.202 49.1664 111.189 48.4197 109.887C47.6944 108.565 47.3317 107.007 47.3317 105.215H51.7157C51.7157 106.175 51.9077 107.018 52.2917 107.743C52.6971 108.447 53.2517 108.991 53.9557 109.375C54.6811 109.759 55.5237 109.951 56.4837 109.951C57.4437 109.951 58.2757 109.759 58.9797 109.375C59.7051 108.991 60.2597 108.447 60.6437 107.743C61.0491 107.018 61.2517 106.175 61.2517 105.215H65.6357C65.6357 107.007 65.2517 108.565 64.4837 109.887C63.7371 111.189 62.6704 112.202 61.2837 112.927C59.9184 113.653 58.2971 114.015 56.4197 114.015ZM47.3317 105.215V91.1674H51.7157V105.215H47.3317ZM61.2517 105.215V91.1674H65.6357V105.215H61.2517ZM80.583 113.951C78.3003 113.951 76.2736 113.461 74.503 112.479C72.7536 111.477 71.3776 110.111 70.375 108.383C69.3723 106.634 68.871 104.629 68.871 102.367C68.871 100.106 69.3723 98.1114 70.375 96.3834C71.3776 94.634 72.7536 93.2687 74.503 92.2874C76.2736 91.2847 78.3003 90.7834 80.583 90.7834C81.9483 90.7834 83.207 90.986 84.359 91.3914C85.511 91.7967 86.5243 92.362 87.399 93.0874C88.295 93.7914 89.0416 94.602 89.639 95.5194L86.055 97.7594C85.6923 97.1834 85.2123 96.6714 84.615 96.2234C84.039 95.7754 83.399 95.4234 82.695 95.1674C81.991 94.9114 81.287 94.7834 80.583 94.7834C79.175 94.7834 77.927 95.114 76.839 95.7754C75.751 96.4154 74.8976 97.3007 74.279 98.4314C73.6603 99.562 73.351 100.874 73.351 102.367C73.351 103.839 73.6496 105.151 74.247 106.303C74.8656 107.455 75.7296 108.362 76.839 109.023C77.9483 109.663 79.2283 109.983 80.679 109.983C81.8096 109.983 82.8123 109.759 83.687 109.311C84.583 108.863 85.287 108.234 85.799 107.423C86.311 106.613 86.567 105.674 86.567 104.607L90.727 103.967C90.727 106.079 90.2896 107.882 89.415 109.375C88.5616 110.869 87.367 112.01 85.831 112.799C84.3163 113.567 82.567 113.951 80.583 113.951ZM81.319 104.991V101.567H90.727V104.287L88.359 104.991H81.319ZM105.077 112.639L100.789 110.335C100.789 109.717 100.981 109.034 101.365 108.287C101.749 107.541 102.283 106.794 102.965 106.047C103.648 105.301 104.448 104.607 105.365 103.967L108.757 101.535C109.227 101.215 109.664 100.853 110.069 100.447C110.496 100.042 110.837 99.6047 111.093 99.1354C111.371 98.6447 111.509 98.1754 111.509 97.7274C111.509 97.1727 111.371 96.6714 111.093 96.2234C110.837 95.7754 110.453 95.4234 109.941 95.1674C109.429 94.9114 108.8 94.7834 108.053 94.7834C107.413 94.7834 106.837 94.9114 106.325 95.1674C105.835 95.4234 105.429 95.7647 105.109 96.1914C104.789 96.618 104.565 97.0767 104.437 97.5674L99.9252 96.7994C100.139 95.7327 100.597 94.7407 101.301 93.8234C102.005 92.906 102.923 92.17 104.053 91.6154C105.205 91.0394 106.507 90.7514 107.957 90.7514C109.621 90.7514 111.051 91.05 112.245 91.6474C113.44 92.2447 114.357 93.066 114.997 94.1114C115.659 95.1354 115.989 96.33 115.989 97.6954C115.989 99.082 115.605 100.319 114.837 101.407C114.091 102.474 113.056 103.477 111.733 104.415L108.693 106.623C108.075 107.029 107.488 107.519 106.933 108.095C106.379 108.65 105.931 109.301 105.589 110.047C105.248 110.773 105.077 111.637 105.077 112.639ZM100.789 113.567V110.335L104.053 109.727H116.277V113.567H100.789ZM128.056 113.951C126.243 113.951 124.643 113.461 123.256 112.479C121.87 111.477 120.782 110.111 119.992 108.383C119.203 106.634 118.808 104.629 118.808 102.367C118.808 100.106 119.203 98.1114 119.992 96.3834C120.782 94.634 121.859 93.2687 123.224 92.2874C124.611 91.2847 126.211 90.7834 128.024 90.7834C129.838 90.7834 131.438 91.2847 132.824 92.2874C134.232 93.2687 135.331 94.634 136.12 96.3834C136.91 98.1114 137.304 100.106 137.304 102.367C137.304 104.629 136.91 106.634 136.12 108.383C135.331 110.111 134.243 111.477 132.856 112.479C131.47 113.461 129.87 113.951 128.056 113.951ZM128.056 109.983C129.016 109.983 129.87 109.663 130.616 109.023C131.384 108.362 131.982 107.466 132.408 106.335C132.835 105.183 133.048 103.861 133.048 102.367C133.048 100.874 132.835 99.5514 132.408 98.3994C131.982 97.2474 131.384 96.3514 130.616 95.7114C129.87 95.05 129.006 94.7194 128.024 94.7194C127.064 94.7194 126.211 95.05 125.464 95.7114C124.718 96.3514 124.131 97.2474 123.704 98.3994C123.299 99.5514 123.096 100.874 123.096 102.367C123.096 103.861 123.299 105.183 123.704 106.335C124.131 107.466 124.718 108.362 125.464 109.023C126.232 109.663 127.096 109.983 128.056 109.983ZM144.358 112.639L140.07 110.335C140.07 109.717 140.262 109.034 140.646 108.287C141.03 107.541 141.564 106.794 142.246 106.047C142.929 105.301 143.729 104.607 144.646 103.967L148.038 101.535C148.508 101.215 148.945 100.853 149.35 100.447C149.777 100.042 150.118 99.6047 150.374 99.1354C150.652 98.6447 150.79 98.1754 150.79 97.7274C150.79 97.1727 150.652 96.6714 150.374 96.2234C150.118 95.7754 149.734 95.4234 149.222 95.1674C148.71 94.9114 148.081 94.7834 147.334 94.7834C146.694 94.7834 146.118 94.9114 145.606 95.1674C145.116 95.4234 144.71 95.7647 144.39 96.1914C144.07 96.618 143.846 97.0767 143.718 97.5674L139.206 96.7994C139.42 95.7327 139.878 94.7407 140.582 93.8234C141.286 92.906 142.204 92.17 143.334 91.6154C144.486 91.0394 145.788 90.7514 147.238 90.7514C148.902 90.7514 150.332 91.05 151.526 91.6474C152.721 92.2447 153.638 93.066 154.278 94.1114C154.94 95.1354 155.27 96.33 155.27 97.6954C155.27 99.082 154.886 100.319 154.118 101.407C153.372 102.474 152.337 103.477 151.014 104.415L147.974 106.623C147.356 107.029 146.769 107.519 146.214 108.095C145.66 108.65 145.212 109.301 144.87 110.047C144.529 110.773 144.358 111.637 144.358 112.639ZM140.07 113.567V110.335L143.334 109.727H155.558V113.567H140.07ZM162.89 112.639L158.602 110.335C158.602 109.717 158.794 109.034 159.178 108.287C159.562 107.541 160.095 106.794 160.778 106.047C161.46 105.301 162.26 104.607 163.178 103.967L166.57 101.535C167.039 101.215 167.476 100.853 167.882 100.447C168.308 100.042 168.65 99.6047 168.906 99.1354C169.183 98.6447 169.322 98.1754 169.322 97.7274C169.322 97.1727 169.183 96.6714 168.906 96.2234C168.65 95.7754 168.266 95.4234 167.754 95.1674C167.242 94.9114 166.612 94.7834 165.866 94.7834C165.226 94.7834 164.65 94.9114 164.138 95.1674C163.647 95.4234 163.242 95.7647 162.922 96.1914C162.602 96.618 162.378 97.0767 162.25 97.5674L157.738 96.7994C157.951 95.7327 158.41 94.7407 159.114 93.8234C159.818 92.906 160.735 92.17 161.866 91.6154C163.018 91.0394 164.319 90.7514 165.77 90.7514C167.434 90.7514 168.863 91.05 170.058 91.6474C171.252 92.2447 172.17 93.066 172.81 94.1114C173.471 95.1354 173.802 96.33 173.802 97.6954C173.802 99.082 173.418 100.319 172.65 101.407C171.903 102.474 170.868 103.477 169.546 104.415L166.506 106.623C165.887 107.029 165.3 107.519 164.746 108.095C164.191 108.65 163.743 109.301 163.402 110.047C163.06 110.773 162.89 111.637 162.89 112.639ZM158.602 113.567V110.335L161.866 109.727H174.09V113.567H158.602Z" fill="#C8F7F3"/>
<path d="M58.7596 169.633C56.9463 169.633 55.3463 169.142 53.9596 168.161C52.5729 167.158 51.4849 165.793 50.6956 164.065C49.9063 162.316 49.5116 160.31 49.5116 158.049C49.5116 155.788 49.9063 153.793 50.6956 152.065C51.4849 150.316 52.5623 148.95 53.9276 147.969C55.3143 146.966 56.9143 146.465 58.7276 146.465C60.5409 146.465 62.1409 146.966 63.5276 147.969C64.9356 148.95 66.0343 150.316 66.8236 152.065C67.6129 153.793 68.0076 155.788 68.0076 158.049C68.0076 160.31 67.6129 162.316 66.8236 164.065C66.0343 165.793 64.9463 167.158 63.5596 168.161C62.1729 169.142 60.5729 169.633 58.7596 169.633ZM58.7596 165.665C59.7196 165.665 60.5729 165.345 61.3196 164.705C62.0876 164.044 62.6849 163.148 63.1116 162.017C63.5383 160.865 63.7516 159.542 63.7516 158.049C63.7516 156.556 63.5383 155.233 63.1116 154.081C62.6849 152.929 62.0876 152.033 61.3196 151.393C60.5729 150.732 59.7089 150.401 58.7276 150.401C57.7676 150.401 56.9143 150.732 56.1676 151.393C55.4209 152.033 54.8343 152.929 54.4076 154.081C54.0023 155.233 53.7996 156.556 53.7996 158.049C53.7996 159.542 54.0023 160.865 54.4076 162.017C54.8343 163.148 55.4209 164.044 56.1676 164.705C56.9356 165.345 57.7996 165.665 58.7596 165.665ZM75.3816 169.249V149.185L75.7976 146.849H79.5736L79.5416 169.249H75.3816ZM70.6456 153.921V149.953C71.1789 149.996 71.7549 149.868 72.3736 149.569C72.9923 149.249 73.6003 148.844 74.1976 148.353C74.8163 147.841 75.3496 147.329 75.7976 146.817L78.5816 149.537C77.8136 150.39 77.0029 151.169 76.1496 151.873C75.2963 152.556 74.4109 153.089 73.4936 153.473C72.5976 153.857 71.6483 154.006 70.6456 153.921ZM91.9946 161.537V157.921H101.595V161.537H91.9946ZM121.322 169.633C119.509 169.633 117.909 169.142 116.522 168.161C115.135 167.158 114.047 165.793 113.258 164.065C112.469 162.316 112.074 160.31 112.074 158.049C112.074 155.788 112.469 153.793 113.258 152.065C114.047 150.316 115.125 148.95 116.49 147.969C117.877 146.966 119.477 146.465 121.29 146.465C123.103 146.465 124.703 146.966 126.09 147.969C127.498 148.95 128.597 150.316 129.386 152.065C130.175 153.793 130.57 155.788 130.57 158.049C130.57 160.31 130.175 162.316 129.386 164.065C128.597 165.793 127.509 167.158 126.122 168.161C124.735 169.142 123.135 169.633 121.322 169.633ZM121.322 165.665C122.282 165.665 123.135 165.345 123.882 164.705C124.65 164.044 125.247 163.148 125.674 162.017C126.101 160.865 126.314 159.542 126.314 158.049C126.314 156.556 126.101 155.233 125.674 154.081C125.247 152.929 124.65 152.033 123.882 151.393C123.135 150.732 122.271 150.401 121.29 150.401C120.33 150.401 119.477 150.732 118.73 151.393C117.983 152.033 117.397 152.929 116.97 154.081C116.565 155.233 116.362 156.556 116.362 158.049C116.362 159.542 116.565 160.865 116.97 162.017C117.397 163.148 117.983 164.044 118.73 164.705C119.498 165.345 120.362 165.665 121.322 165.665ZM134.68 169.249L143.896 150.465L148.536 150.081L139.544 169.249H134.68ZM132.76 150.849V146.849H148.536V150.081L144.088 150.849H132.76Z" fill="#C8F7F3"/>
</svg>
