<svg width="150" height="150" viewBox="0 0 197 224" fill="none" xmlns="http://www.w3.org/2000/svg">
<rect x="4.09668" y="21.5088" width="188.654" height="197.76" stroke="#16A5C5" stroke-width="8"/>
<rect x="0.0966797" y="17.5088" width="196.654" height="34.5399" fill="#16A5C5"/>
<rect x="11.1816" y="0.990234" width="15.8932" height="34.7993" rx="7.9466" fill="#086478" stroke="#086478"/>
<rect x="171.852" y="0.990234" width="15.8932" height="34.7991" rx="7.9466" fill="#086478" stroke="#086478"/>
<path d="M39.8133 113.567L31.2373 91.1674H35.6213L44.4533 113.567H39.8133ZM22.1173 113.567L30.9493 91.1674H35.3333L26.7573 113.567H22.1173ZM26.2773 108.639V104.767H40.3253V108.639H26.2773ZM55.9051 114.015C54.0491 114.015 52.4384 113.653 51.0731 112.927C49.7077 112.202 48.6517 111.189 47.9051 109.887C47.1797 108.565 46.8171 107.007 46.8171 105.215H51.2011C51.2011 106.175 51.3931 107.018 51.7771 107.743C52.1824 108.447 52.7371 108.991 53.4411 109.375C54.1664 109.759 55.0091 109.951 55.9691 109.951C56.9291 109.951 57.7611 109.759 58.4651 109.375C59.1904 108.991 59.7451 108.447 60.1291 107.743C60.5344 107.018 60.7371 106.175 60.7371 105.215H65.1211C65.1211 107.007 64.7371 108.565 63.9691 109.887C63.2224 111.189 62.1557 112.202 60.7691 112.927C59.4037 113.653 57.7824 114.015 55.9051 114.015ZM46.8171 105.215V91.1674H51.2011V105.215H46.8171ZM60.7371 105.215V91.1674H65.1211V105.215H60.7371ZM80.0683 113.951C77.7857 113.951 75.759 113.461 73.9883 112.479C72.239 111.477 70.863 110.111 69.8603 108.383C68.8577 106.634 68.3563 104.629 68.3563 102.367C68.3563 100.106 68.8577 98.1114 69.8603 96.3834C70.863 94.634 72.239 93.2687 73.9883 92.2874C75.759 91.2847 77.7857 90.7834 80.0683 90.7834C81.4337 90.7834 82.6923 90.986 83.8443 91.3914C84.9963 91.7967 86.0097 92.362 86.8843 93.0874C87.7803 93.7914 88.527 94.602 89.1243 95.5194L85.5403 97.7594C85.1777 97.1834 84.6977 96.6714 84.1003 96.2234C83.5243 95.7754 82.8843 95.4234 82.1803 95.1674C81.4763 94.9114 80.7723 94.7834 80.0683 94.7834C78.6603 94.7834 77.4123 95.114 76.3243 95.7754C75.2363 96.4154 74.383 97.3007 73.7643 98.4314C73.1457 99.562 72.8363 100.874 72.8363 102.367C72.8363 103.839 73.135 105.151 73.7323 106.303C74.351 107.455 75.215 108.362 76.3243 109.023C77.4337 109.663 78.7137 109.983 80.1643 109.983C81.295 109.983 82.2977 109.759 83.1723 109.311C84.0683 108.863 84.7723 108.234 85.2843 107.423C85.7963 106.613 86.0523 105.674 86.0523 104.607L90.2123 103.967C90.2123 106.079 89.775 107.882 88.9003 109.375C88.047 110.869 86.8523 112.01 85.3163 112.799C83.8017 113.567 82.0523 113.951 80.0683 113.951ZM80.8043 104.991V101.567H90.2123V104.287L87.8443 104.991H80.8043ZM104.563 112.639L100.275 110.335C100.275 109.717 100.467 109.034 100.851 108.287C101.235 107.541 101.768 106.794 102.451 106.047C103.133 105.301 103.933 104.607 104.851 103.967L108.243 101.535C108.712 101.215 109.149 100.853 109.555 100.447C109.981 100.042 110.323 99.6047 110.579 99.1354C110.856 98.6447 110.995 98.1754 110.995 97.7274C110.995 97.1727 110.856 96.6714 110.579 96.2234C110.323 95.7754 109.939 95.4234 109.427 95.1674C108.915 94.9114 108.285 94.7834 107.539 94.7834C106.899 94.7834 106.323 94.9114 105.811 95.1674C105.32 95.4234 104.915 95.7647 104.595 96.1914C104.275 96.618 104.051 97.0767 103.923 97.5674L99.4106 96.7994C99.6239 95.7327 100.083 94.7407 100.787 93.8234C101.491 92.906 102.408 92.17 103.539 91.6154C104.691 91.0394 105.992 90.7514 107.443 90.7514C109.107 90.7514 110.536 91.05 111.731 91.6474C112.925 92.2447 113.843 93.066 114.483 94.1114C115.144 95.1354 115.475 96.33 115.475 97.6954C115.475 99.082 115.091 100.319 114.323 101.407C113.576 102.474 112.541 103.477 111.219 104.415L108.179 106.623C107.56 107.029 106.973 107.519 106.419 108.095C105.864 108.65 105.416 109.301 105.075 110.047C104.733 110.773 104.563 111.637 104.563 112.639ZM100.275 113.567V110.335L103.539 109.727H115.763V113.567H100.275ZM127.542 113.951C125.728 113.951 124.128 113.461 122.742 112.479C121.355 111.477 120.267 110.111 119.478 108.383C118.688 106.634 118.294 104.629 118.294 102.367C118.294 100.106 118.688 98.1114 119.478 96.3834C120.267 94.634 121.344 93.2687 122.71 92.2874C124.096 91.2847 125.696 90.7834 127.51 90.7834C129.323 90.7834 130.923 91.2847 132.31 92.2874C133.718 93.2687 134.816 94.634 135.606 96.3834C136.395 98.1114 136.79 100.106 136.79 102.367C136.79 104.629 136.395 106.634 135.606 108.383C134.816 110.111 133.728 111.477 132.342 112.479C130.955 113.461 129.355 113.951 127.542 113.951ZM127.542 109.983C128.502 109.983 129.355 109.663 130.102 109.023C130.87 108.362 131.467 107.466 131.894 106.335C132.32 105.183 132.534 103.861 132.534 102.367C132.534 100.874 132.32 99.5514 131.894 98.3994C131.467 97.2474 130.87 96.3514 130.102 95.7114C129.355 95.05 128.491 94.7194 127.51 94.7194C126.55 94.7194 125.696 95.05 124.95 95.7114C124.203 96.3514 123.616 97.2474 123.19 98.3994C122.784 99.5514 122.582 100.874 122.582 102.367C122.582 103.861 122.784 105.183 123.19 106.335C123.616 107.466 124.203 108.362 124.95 109.023C125.718 109.663 126.582 109.983 127.542 109.983ZM143.844 112.639L139.556 110.335C139.556 109.717 139.748 109.034 140.132 108.287C140.516 107.541 141.049 106.794 141.732 106.047C142.414 105.301 143.214 104.607 144.132 103.967L147.524 101.535C147.993 101.215 148.43 100.853 148.836 100.447C149.262 100.042 149.604 99.6047 149.86 99.1354C150.137 98.6447 150.276 98.1754 150.276 97.7274C150.276 97.1727 150.137 96.6714 149.86 96.2234C149.604 95.7754 149.22 95.4234 148.708 95.1674C148.196 94.9114 147.566 94.7834 146.82 94.7834C146.18 94.7834 145.604 94.9114 145.092 95.1674C144.601 95.4234 144.196 95.7647 143.876 96.1914C143.556 96.618 143.332 97.0767 143.204 97.5674L138.692 96.7994C138.905 95.7327 139.364 94.7407 140.068 93.8234C140.772 92.906 141.689 92.17 142.82 91.6154C143.972 91.0394 145.273 90.7514 146.724 90.7514C148.388 90.7514 149.817 91.05 151.012 91.6474C152.206 92.2447 153.124 93.066 153.764 94.1114C154.425 95.1354 154.756 96.33 154.756 97.6954C154.756 99.082 154.372 100.319 153.604 101.407C152.857 102.474 151.822 103.477 150.5 104.415L147.46 106.623C146.841 107.029 146.254 107.519 145.7 108.095C145.145 108.65 144.697 109.301 144.356 110.047C144.014 110.773 143.844 111.637 143.844 112.639ZM139.556 113.567V110.335L142.82 109.727H155.044V113.567H139.556ZM162.375 112.639L158.087 110.335C158.087 109.717 158.279 109.034 158.663 108.287C159.047 107.541 159.58 106.794 160.263 106.047C160.946 105.301 161.746 104.607 162.663 103.967L166.055 101.535C166.524 101.215 166.962 100.853 167.367 100.447C167.794 100.042 168.135 99.6047 168.391 99.1354C168.668 98.6447 168.807 98.1754 168.807 97.7274C168.807 97.1727 168.668 96.6714 168.391 96.2234C168.135 95.7754 167.751 95.4234 167.239 95.1674C166.727 94.9114 166.098 94.7834 165.351 94.7834C164.711 94.7834 164.135 94.9114 163.623 95.1674C163.132 95.4234 162.727 95.7647 162.407 96.1914C162.087 96.618 161.863 97.0767 161.735 97.5674L157.223 96.7994C157.436 95.7327 157.895 94.7407 158.599 93.8234C159.303 92.906 160.22 92.17 161.351 91.6154C162.503 91.0394 163.804 90.7514 165.255 90.7514C166.919 90.7514 168.348 91.05 169.543 91.6474C170.738 92.2447 171.655 93.066 172.295 94.1114C172.956 95.1354 173.287 96.33 173.287 97.6954C173.287 99.082 172.903 100.319 172.135 101.407C171.388 102.474 170.354 103.477 169.031 104.415L165.991 106.623C165.372 107.029 164.786 107.519 164.231 108.095C163.676 108.65 163.228 109.301 162.887 110.047C162.546 110.773 162.375 111.637 162.375 112.639ZM158.087 113.567V110.335L161.351 109.727H173.575V113.567H158.087Z" fill="#C8F7F3"/>
<path d="M57.5887 169.633C55.7754 169.633 54.1754 169.142 52.7887 168.161C51.402 167.158 50.314 165.793 49.5247 164.065C48.7354 162.316 48.3407 160.31 48.3407 158.049C48.3407 155.788 48.7354 153.793 49.5247 152.065C50.314 150.316 51.3914 148.95 52.7567 147.969C54.1434 146.966 55.7434 146.465 57.5567 146.465C59.37 146.465 60.97 146.966 62.3567 147.969C63.7647 148.95 64.8634 150.316 65.6527 152.065C66.442 153.793 66.8367 155.788 66.8367 158.049C66.8367 160.31 66.442 162.316 65.6527 164.065C64.8634 165.793 63.7754 167.158 62.3887 168.161C61.002 169.142 59.402 169.633 57.5887 169.633ZM57.5887 165.665C58.5487 165.665 59.402 165.345 60.1487 164.705C60.9167 164.044 61.514 163.148 61.9407 162.017C62.3674 160.865 62.5807 159.542 62.5807 158.049C62.5807 156.556 62.3674 155.233 61.9407 154.081C61.514 152.929 60.9167 152.033 60.1487 151.393C59.402 150.732 58.538 150.401 57.5567 150.401C56.5967 150.401 55.7434 150.732 54.9967 151.393C54.25 152.033 53.6634 152.929 53.2367 154.081C52.8314 155.233 52.6287 156.556 52.6287 158.049C52.6287 159.542 52.8314 160.865 53.2367 162.017C53.6634 163.148 54.25 164.044 54.9967 164.705C55.7647 165.345 56.6287 165.665 57.5887 165.665ZM77.7307 169.633C75.9387 169.633 74.4134 169.377 73.1547 168.865C71.896 168.332 70.936 167.606 70.2747 166.689C69.6347 165.75 69.3147 164.662 69.3147 163.425C69.3147 162.102 69.6347 160.94 70.2747 159.937C70.936 158.934 71.896 158.145 73.1547 157.569C74.4134 156.993 75.9387 156.716 77.7307 156.737C79.544 156.716 81.08 156.993 82.3387 157.569C83.5974 158.145 84.5574 158.934 85.2187 159.937C85.88 160.94 86.2107 162.102 86.2107 163.425C86.2107 164.662 85.88 165.75 85.2187 166.689C84.5574 167.606 83.5974 168.332 82.3387 168.865C81.08 169.377 79.544 169.633 77.7307 169.633ZM77.7307 165.985C78.904 165.985 79.864 165.697 80.6107 165.121C81.3574 164.524 81.7307 163.766 81.7307 162.849C81.7307 161.846 81.3574 161.036 80.6107 160.417C79.864 159.798 78.904 159.489 77.7307 159.489C76.9627 159.489 76.28 159.628 75.6827 159.905C75.1067 160.182 74.648 160.577 74.3067 161.089C73.9654 161.601 73.7947 162.188 73.7947 162.849C73.7947 163.468 73.9654 164.012 74.3067 164.481C74.648 164.95 75.1067 165.324 75.6827 165.601C76.28 165.857 76.9627 165.985 77.7307 165.985ZM77.7307 158.465C76.1307 158.465 74.7547 158.22 73.6027 157.729C72.4507 157.217 71.5654 156.524 70.9467 155.649C70.3494 154.753 70.0507 153.718 70.0507 152.545C70.0507 151.35 70.3494 150.294 70.9467 149.377C71.5654 148.46 72.4507 147.745 73.6027 147.233C74.7547 146.721 76.1307 146.465 77.7307 146.465C79.352 146.465 80.7387 146.721 81.8907 147.233C83.0427 147.745 83.928 148.46 84.5467 149.377C85.1654 150.294 85.4747 151.35 85.4747 152.545C85.4747 153.718 85.1654 154.753 84.5467 155.649C83.928 156.524 83.0427 157.217 81.8907 157.729C80.7387 158.22 79.352 158.465 77.7307 158.465ZM77.7307 156.001C78.7547 156.001 79.5867 155.724 80.2267 155.169C80.888 154.614 81.2187 153.91 81.2187 153.057C81.2187 152.14 80.888 151.404 80.2267 150.849C79.5867 150.273 78.7547 149.985 77.7307 149.985C76.728 149.985 75.9067 150.273 75.2667 150.849C74.6267 151.404 74.3067 152.14 74.3067 153.057C74.3067 153.91 74.6267 154.614 75.2667 155.169C75.9067 155.724 76.728 156.001 77.7307 156.001ZM96.9175 161.537V157.921H106.517V161.537H96.9175ZM122.117 169.249V149.185L122.533 146.849H126.309L126.277 169.249H122.117ZM117.381 153.921V149.953C117.914 149.996 118.49 149.868 119.109 149.569C119.728 149.249 120.336 148.844 120.933 148.353C121.552 147.841 122.085 147.329 122.533 146.817L125.317 149.537C124.549 150.39 123.738 151.169 122.885 151.873C122.032 152.556 121.146 153.089 120.229 153.473C119.333 153.857 118.384 154.006 117.381 153.921ZM133.377 163.073L130.209 161.345L140.129 146.849L142.753 149.313L133.377 163.073ZM130.209 164.833V161.345L132.673 161.089H148.673V164.833H130.209ZM140.641 169.249V149.249L140.161 146.849H144.769V169.249H140.641Z" fill="#C8F7F3"/>
</svg>
