<svg width="150" height="150" viewBox="0 0 198 223" fill="none" xmlns="http://www.w3.org/2000/svg">
<rect x="4.65039" y="21.1963" width="188.654" height="197.76" stroke="#16A5C5" stroke-width="8"/>
<rect x="0.650391" y="17.1963" width="196.654" height="34.5399" fill="#16A5C5"/>
<rect x="11.7354" y="0.677734" width="15.8932" height="34.7993" rx="7.9466" fill="#086478" stroke="#086478"/>
<rect x="172.405" y="0.677734" width="15.8932" height="34.7991" rx="7.9466" fill="#086478" stroke="#086478"/>
<path d="M40.367 113.255L31.791 90.8549H36.175L45.007 113.255H40.367ZM22.671 113.255L31.503 90.8549H35.887L27.311 113.255H22.671ZM26.831 108.327V104.455H40.879V108.327H26.831ZM56.4588 113.703C54.6028 113.703 52.9921 113.34 51.6268 112.615C50.2615 111.89 49.2055 110.876 48.4588 109.575C47.7335 108.252 47.3708 106.695 47.3708 104.903H51.7548C51.7548 105.863 51.9468 106.706 52.3308 107.431C52.7361 108.135 53.2908 108.679 53.9948 109.063C54.7201 109.447 55.5628 109.639 56.5228 109.639C57.4828 109.639 58.3148 109.447 59.0188 109.063C59.7441 108.679 60.2988 108.135 60.6828 107.431C61.0881 106.706 61.2908 105.863 61.2908 104.903H65.6748C65.6748 106.695 65.2908 108.252 64.5228 109.575C63.7761 110.876 62.7095 111.89 61.3228 112.615C59.9575 113.34 58.3361 113.703 56.4588 113.703ZM47.3708 104.903V90.8549H51.7548V104.903H47.3708ZM61.2908 104.903V90.8549H65.6748V104.903H61.2908ZM80.622 113.639C78.3394 113.639 76.3127 113.148 74.542 112.167C72.7927 111.164 71.4167 109.799 70.414 108.071C69.4114 106.322 68.91 104.316 68.91 102.055C68.91 99.7935 69.4114 97.7989 70.414 96.0709C71.4167 94.3215 72.7927 92.9562 74.542 91.9749C76.3127 90.9722 78.3394 90.4709 80.622 90.4709C81.9874 90.4709 83.246 90.6735 84.398 91.0789C85.55 91.4842 86.5634 92.0495 87.438 92.7749C88.334 93.4789 89.0807 94.2895 89.678 95.2069L86.094 97.4469C85.7314 96.8709 85.2514 96.3589 84.654 95.9109C84.078 95.4629 83.438 95.1109 82.734 94.8549C82.03 94.5989 81.326 94.4709 80.622 94.4709C79.214 94.4709 77.966 94.8015 76.878 95.4629C75.79 96.1029 74.9367 96.9882 74.318 98.1189C73.6994 99.2495 73.39 100.562 73.39 102.055C73.39 103.527 73.6887 104.839 74.286 105.991C74.9047 107.143 75.7687 108.05 76.878 108.711C77.9874 109.351 79.2674 109.671 80.718 109.671C81.8487 109.671 82.8514 109.447 83.726 108.999C84.622 108.551 85.326 107.922 85.838 107.111C86.35 106.3 86.606 105.362 86.606 104.295L90.766 103.655C90.766 105.767 90.3287 107.57 89.454 109.063C88.6007 110.556 87.406 111.698 85.87 112.487C84.3554 113.255 82.606 113.639 80.622 113.639ZM81.358 104.679V101.255H90.766V103.975L88.398 104.679H81.358ZM105.116 112.327L100.828 110.023C100.828 109.404 101.02 108.722 101.404 107.975C101.788 107.228 102.322 106.482 103.004 105.735C103.687 104.988 104.487 104.295 105.404 103.655L108.796 101.223C109.266 100.903 109.703 100.54 110.108 100.135C110.535 99.7295 110.876 99.2922 111.132 98.8229C111.41 98.3322 111.548 97.8629 111.548 97.4149C111.548 96.8602 111.41 96.3589 111.132 95.9109C110.876 95.4629 110.492 95.1109 109.98 94.8549C109.468 94.5989 108.839 94.4709 108.092 94.4709C107.452 94.4709 106.876 94.5989 106.364 94.8549C105.874 95.1109 105.468 95.4522 105.148 95.8789C104.828 96.3055 104.604 96.7642 104.476 97.2549L99.9643 96.4869C100.178 95.4202 100.636 94.4282 101.34 93.5109C102.044 92.5935 102.962 91.8575 104.092 91.3029C105.244 90.7269 106.546 90.4389 107.996 90.4389C109.66 90.4389 111.09 90.7375 112.284 91.3349C113.479 91.9322 114.396 92.7535 115.036 93.7989C115.698 94.8229 116.028 96.0175 116.028 97.3829C116.028 98.7695 115.644 100.007 114.876 101.095C114.13 102.162 113.095 103.164 111.772 104.103L108.732 106.311C108.114 106.716 107.527 107.207 106.972 107.783C106.418 108.338 105.97 108.988 105.628 109.735C105.287 110.46 105.116 111.324 105.116 112.327ZM100.828 113.255V110.023L104.092 109.415H116.316V113.255H100.828ZM128.096 113.639C126.282 113.639 124.682 113.148 123.296 112.167C121.909 111.164 120.821 109.799 120.032 108.071C119.242 106.322 118.848 104.316 118.848 102.055C118.848 99.7935 119.242 97.7989 120.032 96.0709C120.821 94.3215 121.898 92.9562 123.264 91.9749C124.65 90.9722 126.25 90.4709 128.064 90.4709C129.877 90.4709 131.477 90.9722 132.864 91.9749C134.272 92.9562 135.37 94.3215 136.16 96.0709C136.949 97.7989 137.344 99.7935 137.344 102.055C137.344 104.316 136.949 106.322 136.16 108.071C135.37 109.799 134.282 111.164 132.896 112.167C131.509 113.148 129.909 113.639 128.096 113.639ZM128.096 109.671C129.056 109.671 129.909 109.351 130.656 108.711C131.424 108.05 132.021 107.154 132.448 106.023C132.874 104.871 133.088 103.548 133.088 102.055C133.088 100.562 132.874 99.2389 132.448 98.0869C132.021 96.9349 131.424 96.0389 130.656 95.3989C129.909 94.7375 129.045 94.4069 128.064 94.4069C127.104 94.4069 126.25 94.7375 125.504 95.3989C124.757 96.0389 124.17 96.9349 123.744 98.0869C123.338 99.2389 123.136 100.562 123.136 102.055C123.136 103.548 123.338 104.871 123.744 106.023C124.17 107.154 124.757 108.05 125.504 108.711C126.272 109.351 127.136 109.671 128.096 109.671ZM144.398 112.327L140.11 110.023C140.11 109.404 140.302 108.722 140.686 107.975C141.07 107.228 141.603 106.482 142.286 105.735C142.968 104.988 143.768 104.295 144.686 103.655L148.078 101.223C148.547 100.903 148.984 100.54 149.39 100.135C149.816 99.7295 150.158 99.2922 150.414 98.8229C150.691 98.3322 150.83 97.8629 150.83 97.4149C150.83 96.8602 150.691 96.3589 150.414 95.9109C150.158 95.4629 149.774 95.1109 149.262 94.8549C148.75 94.5989 148.12 94.4709 147.374 94.4709C146.734 94.4709 146.158 94.5989 145.646 94.8549C145.155 95.1109 144.75 95.4522 144.43 95.8789C144.11 96.3055 143.886 96.7642 143.758 97.2549L139.246 96.4869C139.459 95.4202 139.918 94.4282 140.622 93.5109C141.326 92.5935 142.243 91.8575 143.374 91.3029C144.526 90.7269 145.827 90.4389 147.278 90.4389C148.942 90.4389 150.371 90.7375 151.566 91.3349C152.76 91.9322 153.678 92.7535 154.318 93.7989C154.979 94.8229 155.31 96.0175 155.31 97.3829C155.31 98.7695 154.926 100.007 154.158 101.095C153.411 102.162 152.376 103.164 151.054 104.103L148.014 106.311C147.395 106.716 146.808 107.207 146.254 107.783C145.699 108.338 145.251 108.988 144.91 109.735C144.568 110.46 144.398 111.324 144.398 112.327ZM140.11 113.255V110.023L143.374 109.415H155.598V113.255H140.11ZM162.929 112.327L158.641 110.023C158.641 109.404 158.833 108.722 159.217 107.975C159.601 107.228 160.134 106.482 160.817 105.735C161.499 104.988 162.299 104.295 163.217 103.655L166.609 101.223C167.078 100.903 167.515 100.54 167.921 100.135C168.347 99.7295 168.689 99.2922 168.945 98.8229C169.222 98.3322 169.361 97.8629 169.361 97.4149C169.361 96.8602 169.222 96.3589 168.945 95.9109C168.689 95.4629 168.305 95.1109 167.793 94.8549C167.281 94.5989 166.651 94.4709 165.905 94.4709C165.265 94.4709 164.689 94.5989 164.177 94.8549C163.686 95.1109 163.281 95.4522 162.961 95.8789C162.641 96.3055 162.417 96.7642 162.289 97.2549L157.777 96.4869C157.99 95.4202 158.449 94.4282 159.153 93.5109C159.857 92.5935 160.774 91.8575 161.905 91.3029C163.057 90.7269 164.358 90.4389 165.809 90.4389C167.473 90.4389 168.902 90.7375 170.097 91.3349C171.291 91.9322 172.209 92.7535 172.849 93.7989C173.51 94.8229 173.841 96.0175 173.841 97.3829C173.841 98.7695 173.457 100.007 172.689 101.095C171.942 102.162 170.907 103.164 169.585 104.103L166.545 106.311C165.926 106.716 165.339 107.207 164.785 107.783C164.23 108.338 163.782 108.988 163.441 109.735C163.099 110.46 162.929 111.324 162.929 112.327ZM158.641 113.255V110.023L161.905 109.415H174.129V113.255H158.641Z" fill="#C8F7F3"/>
<path d="M58.4675 168.937V148.873L58.8835 146.537H62.6595L62.6275 168.937H58.4675ZM53.7315 153.609V149.641C54.2649 149.683 54.8409 149.555 55.4595 149.257C56.0782 148.937 56.6862 148.531 57.2835 148.041C57.9022 147.529 58.4355 147.017 58.8835 146.505L61.6675 149.225C60.8995 150.078 60.0889 150.857 59.2355 151.561C58.3822 152.243 57.4969 152.777 56.5795 153.161C55.6835 153.545 54.7342 153.694 53.7315 153.609ZM75.1035 169.321C74.0795 169.321 73.0235 169.15 71.9355 168.809C70.8689 168.467 69.8982 167.955 69.0235 167.273C68.1702 166.59 67.5409 165.747 67.1355 164.745L71.1355 163.561C71.6049 164.243 72.1595 164.745 72.7995 165.065C73.4609 165.385 74.1435 165.545 74.8475 165.545C75.9569 165.545 76.8529 165.214 77.5355 164.553C78.2395 163.87 78.5915 162.963 78.5915 161.833C78.5915 160.787 78.2502 159.913 77.5675 159.209C76.9062 158.505 76.0209 158.153 74.9115 158.153C74.2502 158.153 73.6422 158.302 73.0875 158.601C72.5329 158.899 72.1062 159.251 71.8075 159.657L67.8715 158.793L69.2155 146.537H81.8875V150.505H69.8555L69.2155 146.665H73.5675L71.8075 159.209L69.4715 158.793C69.6635 158.409 69.9622 157.993 70.3675 157.545C70.7729 157.075 71.2742 156.627 71.8715 156.201C72.4902 155.774 73.1835 155.433 73.9515 155.177C74.7195 154.921 75.5729 154.803 76.5115 154.825C77.7275 154.825 78.8369 155.123 79.8395 155.721C80.8422 156.297 81.6315 157.097 82.2075 158.121C82.8049 159.123 83.1035 160.297 83.1035 161.641C83.1035 163.155 82.7622 164.489 82.0795 165.641C81.3969 166.793 80.4582 167.699 79.2635 168.361C78.0689 169.001 76.6822 169.321 75.1035 169.321ZM93.6743 161.225V157.609H103.274V161.225H93.6743ZM118.874 168.937V148.873L119.29 146.537H123.066L123.034 168.937H118.874ZM114.138 153.609V149.641C114.671 149.683 115.247 149.555 115.866 149.257C116.484 148.937 117.092 148.531 117.69 148.041C118.308 147.529 118.842 147.017 119.29 146.505L122.074 149.225C121.306 150.078 120.495 150.857 119.642 151.561C118.788 152.243 117.903 152.777 116.986 153.161C116.09 153.545 115.14 153.694 114.138 153.609ZM135.894 169.321C134.102 169.321 132.576 169.065 131.318 168.553C130.059 168.019 129.099 167.294 128.438 166.377C127.798 165.438 127.478 164.35 127.478 163.113C127.478 161.79 127.798 160.627 128.438 159.625C129.099 158.622 130.059 157.833 131.318 157.257C132.576 156.681 134.102 156.403 135.894 156.425C137.707 156.403 139.243 156.681 140.502 157.257C141.76 157.833 142.72 158.622 143.382 159.625C144.043 160.627 144.374 161.79 144.374 163.113C144.374 164.35 144.043 165.438 143.382 166.377C142.72 167.294 141.76 168.019 140.502 168.553C139.243 169.065 137.707 169.321 135.894 169.321ZM135.894 165.673C137.067 165.673 138.027 165.385 138.774 164.809C139.52 164.211 139.894 163.454 139.894 162.537C139.894 161.534 139.52 160.723 138.774 160.105C138.027 159.486 137.067 159.177 135.894 159.177C135.126 159.177 134.443 159.315 133.846 159.593C133.27 159.87 132.811 160.265 132.47 160.777C132.128 161.289 131.958 161.875 131.958 162.537C131.958 163.155 132.128 163.699 132.47 164.169C132.811 164.638 133.27 165.011 133.846 165.289C134.443 165.545 135.126 165.673 135.894 165.673ZM135.894 158.153C134.294 158.153 132.918 157.907 131.766 157.417C130.614 156.905 129.728 156.211 129.11 155.337C128.512 154.441 128.214 153.406 128.214 152.233C128.214 151.038 128.512 149.982 129.11 149.065C129.728 148.147 130.614 147.433 131.766 146.921C132.918 146.409 134.294 146.153 135.894 146.153C137.515 146.153 138.902 146.409 140.054 146.921C141.206 147.433 142.091 148.147 142.71 149.065C143.328 149.982 143.638 151.038 143.638 152.233C143.638 153.406 143.328 154.441 142.71 155.337C142.091 156.211 141.206 156.905 140.054 157.417C138.902 157.907 137.515 158.153 135.894 158.153ZM135.894 155.689C136.918 155.689 137.75 155.411 138.39 154.857C139.051 154.302 139.382 153.598 139.382 152.745C139.382 151.827 139.051 151.091 138.39 150.537C137.75 149.961 136.918 149.673 135.894 149.673C134.891 149.673 134.07 149.961 133.43 150.537C132.79 151.091 132.47 151.827 132.47 152.745C132.47 153.598 132.79 154.302 133.43 154.857C134.07 155.411 134.891 155.689 135.894 155.689Z" fill="#C8F7F3"/>
</svg>
