<svg width="150" height="150" viewBox="0 0 197 224" fill="none" xmlns="http://www.w3.org/2000/svg">
<rect x="4.05762" y="21.5088" width="188.654" height="197.76" stroke="#16A5C5" stroke-width="8"/>
<rect x="0.0576172" y="17.5088" width="196.654" height="34.5399" fill="#16A5C5"/>
<rect x="11.1426" y="0.990234" width="15.8932" height="34.7993" rx="7.9466" fill="#086478" stroke="#086478"/>
<rect x="171.812" y="0.990234" width="15.8932" height="34.7991" rx="7.9466" fill="#086478" stroke="#086478"/>
<path d="M35.1049 114.015C34.0169 114.015 33.0462 113.845 32.1929 113.503C31.3609 113.141 30.6462 112.682 30.0489 112.127C29.4729 111.573 29.0142 110.975 28.6729 110.335C28.3316 109.695 28.0969 109.077 27.9689 108.479L31.8089 107.039C32.0436 107.978 32.4382 108.714 32.9929 109.247C33.5689 109.759 34.2942 110.015 35.1689 110.015C35.8089 110.015 36.4169 109.866 36.9929 109.567C37.5689 109.269 38.0276 108.789 38.3689 108.127C38.7316 107.466 38.9129 106.613 38.9129 105.567V91.1674H43.2649V106.847C43.2649 107.957 43.0622 108.959 42.6569 109.855C42.2516 110.73 41.6756 111.477 40.9289 112.095C40.2036 112.714 39.3396 113.194 38.3369 113.535C37.3556 113.855 36.2782 114.015 35.1049 114.015ZM56.5691 114.015C54.7131 114.015 53.1025 113.653 51.7371 112.927C50.3718 112.202 49.3158 111.189 48.5691 109.887C47.8438 108.565 47.4811 107.007 47.4811 105.215H51.8651C51.8651 106.175 52.0571 107.018 52.4411 107.743C52.8465 108.447 53.4011 108.991 54.1051 109.375C54.8305 109.759 55.6731 109.951 56.6331 109.951C57.5931 109.951 58.4251 109.759 59.1291 109.375C59.8545 108.991 60.4091 108.447 60.7931 107.743C61.1985 107.018 61.4011 106.175 61.4011 105.215H65.7851C65.7851 107.007 65.4011 108.565 64.6331 109.887C63.8865 111.189 62.8198 112.202 61.4331 112.927C60.0678 113.653 58.4465 114.015 56.5691 114.015ZM47.4811 105.215V91.1674H51.8651V105.215H47.4811ZM61.4011 105.215V91.1674H65.7851V105.215H61.4011ZM70.3324 113.567V91.1674H74.7164V113.567H70.3324ZM73.1484 113.567V109.567H84.5724V113.567H73.1484ZM98.6329 112.639L94.3449 110.335C94.3449 109.717 94.5369 109.034 94.9209 108.287C95.3049 107.541 95.8382 106.794 96.5209 106.047C97.2036 105.301 98.0036 104.607 98.9209 103.967L102.313 101.535C102.782 101.215 103.22 100.853 103.625 100.447C104.052 100.042 104.393 99.6047 104.649 99.1354C104.926 98.6447 105.065 98.1754 105.065 97.7274C105.065 97.1727 104.926 96.6714 104.649 96.2234C104.393 95.7754 104.009 95.4234 103.497 95.1674C102.985 94.9114 102.356 94.7834 101.609 94.7834C100.969 94.7834 100.393 94.9114 99.8809 95.1674C99.3902 95.4234 98.9849 95.7647 98.6649 96.1914C98.3449 96.618 98.1209 97.0767 97.9929 97.5674L93.4809 96.7994C93.6942 95.7327 94.1529 94.7407 94.8569 93.8234C95.5609 92.906 96.4782 92.17 97.6089 91.6154C98.7609 91.0394 100.062 90.7514 101.513 90.7514C103.177 90.7514 104.606 91.05 105.801 91.6474C106.996 92.2447 107.913 93.066 108.553 94.1114C109.214 95.1354 109.545 96.33 109.545 97.6954C109.545 99.082 109.161 100.319 108.393 101.407C107.646 102.474 106.612 103.477 105.289 104.415L102.249 106.623C101.63 107.029 101.044 107.519 100.489 108.095C99.9342 108.65 99.4862 109.301 99.1449 110.047C98.8036 110.773 98.6329 111.637 98.6329 112.639ZM94.3449 113.567V110.335L97.6089 109.727H109.833V113.567H94.3449ZM121.612 113.951C119.799 113.951 118.199 113.461 116.812 112.479C115.425 111.477 114.337 110.111 113.548 108.383C112.759 106.634 112.364 104.629 112.364 102.367C112.364 100.106 112.759 98.1114 113.548 96.3834C114.337 94.634 115.415 93.2687 116.78 92.2874C118.167 91.2847 119.767 90.7834 121.58 90.7834C123.393 90.7834 124.993 91.2847 126.38 92.2874C127.788 93.2687 128.887 94.634 129.676 96.3834C130.465 98.1114 130.86 100.106 130.86 102.367C130.86 104.629 130.465 106.634 129.676 108.383C128.887 110.111 127.799 111.477 126.412 112.479C125.025 113.461 123.425 113.951 121.612 113.951ZM121.612 109.983C122.572 109.983 123.425 109.663 124.172 109.023C124.94 108.362 125.537 107.466 125.964 106.335C126.391 105.183 126.604 103.861 126.604 102.367C126.604 100.874 126.391 99.5514 125.964 98.3994C125.537 97.2474 124.94 96.3514 124.172 95.7114C123.425 95.05 122.561 94.7194 121.58 94.7194C120.62 94.7194 119.767 95.05 119.02 95.7114C118.273 96.3514 117.687 97.2474 117.26 98.3994C116.855 99.5514 116.652 100.874 116.652 102.367C116.652 103.861 116.855 105.183 117.26 106.335C117.687 107.466 118.273 108.362 119.02 109.023C119.788 109.663 120.652 109.983 121.612 109.983ZM137.914 112.639L133.626 110.335C133.626 109.717 133.818 109.034 134.202 108.287C134.586 107.541 135.119 106.794 135.802 106.047C136.485 105.301 137.285 104.607 138.202 103.967L141.594 101.535C142.063 101.215 142.501 100.853 142.906 100.447C143.333 100.042 143.674 99.6047 143.93 99.1354C144.207 98.6447 144.346 98.1754 144.346 97.7274C144.346 97.1727 144.207 96.6714 143.93 96.2234C143.674 95.7754 143.29 95.4234 142.778 95.1674C142.266 94.9114 141.637 94.7834 140.89 94.7834C140.25 94.7834 139.674 94.9114 139.162 95.1674C138.671 95.4234 138.266 95.7647 137.946 96.1914C137.626 96.618 137.402 97.0767 137.274 97.5674L132.762 96.7994C132.975 95.7327 133.434 94.7407 134.138 93.8234C134.842 92.906 135.759 92.17 136.89 91.6154C138.042 91.0394 139.343 90.7514 140.794 90.7514C142.458 90.7514 143.887 91.05 145.082 91.6474C146.277 92.2447 147.194 93.066 147.834 94.1114C148.495 95.1354 148.826 96.33 148.826 97.6954C148.826 99.082 148.442 100.319 147.674 101.407C146.927 102.474 145.893 103.477 144.57 104.415L141.53 106.623C140.911 107.029 140.325 107.519 139.77 108.095C139.215 108.65 138.767 109.301 138.426 110.047C138.085 110.773 137.914 111.637 137.914 112.639ZM133.626 113.567V110.335L136.89 109.727H149.114V113.567H133.626ZM156.445 112.639L152.157 110.335C152.157 109.717 152.349 109.034 152.733 108.287C153.117 107.541 153.651 106.794 154.333 106.047C155.016 105.301 155.816 104.607 156.733 103.967L160.125 101.535C160.595 101.215 161.032 100.853 161.437 100.447C161.864 100.042 162.205 99.6047 162.461 99.1354C162.739 98.6447 162.877 98.1754 162.877 97.7274C162.877 97.1727 162.739 96.6714 162.461 96.2234C162.205 95.7754 161.821 95.4234 161.309 95.1674C160.797 94.9114 160.168 94.7834 159.421 94.7834C158.781 94.7834 158.205 94.9114 157.693 95.1674C157.203 95.4234 156.797 95.7647 156.477 96.1914C156.157 96.618 155.933 97.0767 155.805 97.5674L151.293 96.7994C151.507 95.7327 151.965 94.7407 152.669 93.8234C153.373 92.906 154.291 92.17 155.421 91.6154C156.573 91.0394 157.875 90.7514 159.325 90.7514C160.989 90.7514 162.419 91.05 163.613 91.6474C164.808 92.2447 165.725 93.066 166.365 94.1114C167.027 95.1354 167.357 96.33 167.357 97.6954C167.357 99.082 166.973 100.319 166.205 101.407C165.459 102.474 164.424 103.477 163.101 104.415L160.061 106.623C159.443 107.029 158.856 107.519 158.301 108.095C157.747 108.65 157.299 109.301 156.957 110.047C156.616 110.773 156.445 111.637 156.445 112.639ZM152.157 113.567V110.335L155.421 109.727H167.645V113.567H152.157Z" fill="#C8F7F3"/>
<path d="M55.9454 168.321L51.6574 166.017C51.6574 165.398 51.8494 164.716 52.2334 163.969C52.6174 163.222 53.1507 162.476 53.8334 161.729C54.5161 160.982 55.3161 160.289 56.2334 159.649L59.6254 157.217C60.0947 156.897 60.5321 156.534 60.9374 156.129C61.3641 155.724 61.7054 155.286 61.9614 154.817C62.2387 154.326 62.3774 153.857 62.3774 153.409C62.3774 152.854 62.2387 152.353 61.9614 151.905C61.7054 151.457 61.3214 151.105 60.8094 150.849C60.2974 150.593 59.6681 150.465 58.9214 150.465C58.2814 150.465 57.7054 150.593 57.1934 150.849C56.7027 151.105 56.2974 151.446 55.9774 151.873C55.6574 152.3 55.4334 152.758 55.3054 153.249L50.7934 152.481C51.0067 151.414 51.4654 150.422 52.1694 149.505C52.8734 148.588 53.7907 147.852 54.9214 147.297C56.0734 146.721 57.3747 146.433 58.8254 146.433C60.4894 146.433 61.9187 146.732 63.1134 147.329C64.3081 147.926 65.2254 148.748 65.8654 149.793C66.5267 150.817 66.8574 152.012 66.8574 153.377C66.8574 154.764 66.4734 156.001 65.7054 157.089C64.9587 158.156 63.9241 159.158 62.6014 160.097L59.5614 162.305C58.9427 162.71 58.3561 163.201 57.8014 163.777C57.2467 164.332 56.7987 164.982 56.4574 165.729C56.1161 166.454 55.9454 167.318 55.9454 168.321ZM51.6574 169.249V166.017L54.9214 165.409H67.1454V169.249H51.6574ZM77.9326 169.633C76.9086 169.633 75.8526 169.462 74.7646 169.121C73.698 168.78 72.7273 168.268 71.8526 167.585C70.9993 166.902 70.37 166.06 69.9646 165.057L73.9646 163.873C74.434 164.556 74.9886 165.057 75.6286 165.377C76.29 165.697 76.9726 165.857 77.6766 165.857C78.786 165.857 79.682 165.526 80.3646 164.865C81.0686 164.182 81.4206 163.276 81.4206 162.145C81.4206 161.1 81.0793 160.225 80.3966 159.521C79.7353 158.817 78.85 158.465 77.7406 158.465C77.0793 158.465 76.4713 158.614 75.9166 158.913C75.362 159.212 74.9353 159.564 74.6366 159.969L70.7006 159.105L72.0446 146.849H84.7166V150.817H72.6846L72.0446 146.977H76.3966L74.6366 159.521L72.3006 159.105C72.4926 158.721 72.7913 158.305 73.1966 157.857C73.602 157.388 74.1033 156.94 74.7006 156.513C75.3193 156.086 76.0126 155.745 76.7806 155.489C77.5486 155.233 78.402 155.116 79.3406 155.137C80.5566 155.137 81.666 155.436 82.6686 156.033C83.6713 156.609 84.4606 157.409 85.0366 158.433C85.634 159.436 85.9326 160.609 85.9326 161.953C85.9326 163.468 85.5913 164.801 84.9086 165.953C84.226 167.105 83.2873 168.012 82.0926 168.673C80.898 169.313 79.5113 169.633 77.9326 169.633ZM96.5034 161.537V157.921H106.103V161.537H96.5034ZM124.455 169.633C123.132 169.633 121.938 169.441 120.871 169.057C119.804 168.652 118.908 168.086 118.183 167.361C117.479 166.614 116.988 165.74 116.711 164.737L120.743 163.553C120.892 163.809 121.095 164.129 121.351 164.513C121.607 164.876 121.959 165.185 122.407 165.441C122.855 165.697 123.442 165.825 124.167 165.825C125.234 165.825 126.076 165.537 126.695 164.961C127.335 164.364 127.655 163.596 127.655 162.657C127.655 162.017 127.495 161.452 127.175 160.961C126.855 160.47 126.332 160.097 125.607 159.841C124.903 159.564 123.975 159.425 122.823 159.425H121.479V156.449H122.663C123.943 156.449 125.148 156.609 126.279 156.929C127.41 157.228 128.402 157.676 129.255 158.273C130.13 158.849 130.812 159.553 131.303 160.385C131.794 161.196 132.039 162.124 132.039 163.169C132.039 164.513 131.687 165.676 130.983 166.657C130.279 167.617 129.351 168.353 128.199 168.865C127.047 169.377 125.799 169.633 124.455 169.633ZM121.479 158.625V155.841H122.823C124.316 155.841 125.426 155.585 126.151 155.073C126.876 154.561 127.239 153.857 127.239 152.961C127.239 152.449 127.111 151.99 126.855 151.585C126.599 151.18 126.236 150.86 125.767 150.625C125.298 150.39 124.754 150.273 124.135 150.273C123.73 150.273 123.314 150.348 122.887 150.497C122.46 150.625 122.066 150.849 121.703 151.169C121.362 151.468 121.084 151.905 120.871 152.481L116.903 151.297C117.202 150.252 117.714 149.377 118.439 148.673C119.186 147.948 120.071 147.404 121.095 147.041C122.119 146.657 123.175 146.465 124.263 146.465C125.65 146.465 126.898 146.732 128.007 147.265C129.116 147.777 129.991 148.492 130.631 149.409C131.271 150.326 131.591 151.382 131.591 152.577C131.591 153.601 131.346 154.486 130.855 155.233C130.364 155.98 129.692 156.609 128.839 157.121C128.007 157.633 127.058 158.017 125.991 158.273C124.924 158.508 123.815 158.625 122.663 158.625H121.479ZM139.484 169.249V149.185L139.9 146.849H143.676L143.644 169.249H139.484ZM134.748 153.921V149.953C135.281 149.996 135.857 149.868 136.476 149.569C137.095 149.249 137.703 148.844 138.3 148.353C138.919 147.841 139.452 147.329 139.9 146.817L142.684 149.537C141.916 150.39 141.105 151.169 140.252 151.873C139.399 152.556 138.513 153.089 137.596 153.473C136.7 153.857 135.751 154.006 134.748 153.921Z" fill="#C8F7F3"/>
</svg>
