<svg width="150" height="150" viewBox="0 0 197 224" fill="none" xmlns="http://www.w3.org/2000/svg">
<rect x="4.05762" y="21.6035" width="188.654" height="197.76" stroke="#16A5C5" stroke-width="8"/>
<rect x="0.0576172" y="17.6035" width="196.654" height="34.5399" fill="#16A5C5"/>
<rect x="11.1426" y="1.08496" width="15.8932" height="34.7993" rx="7.9466" fill="#086478" stroke="#086478"/>
<rect x="171.812" y="1.08496" width="15.8932" height="34.7991" rx="7.9466" fill="#086478" stroke="#086478"/>
<path d="M35.1049 114.11C34.0169 114.11 33.0462 113.939 32.1929 113.598C31.3609 113.235 30.6462 112.777 30.0489 112.222C29.4729 111.667 29.0142 111.07 28.6729 110.43C28.3316 109.79 28.0969 109.171 27.9689 108.574L31.8089 107.134C32.0436 108.073 32.4382 108.809 32.9929 109.342C33.5689 109.854 34.2942 110.11 35.1689 110.11C35.8089 110.11 36.4169 109.961 36.9929 109.662C37.5689 109.363 38.0276 108.883 38.3689 108.222C38.7316 107.561 38.9129 106.707 38.9129 105.662V91.2621H43.2649V106.942C43.2649 108.051 43.0622 109.054 42.6569 109.95C42.2516 110.825 41.6756 111.571 40.9289 112.19C40.2036 112.809 39.3396 113.289 38.3369 113.63C37.3556 113.95 36.2782 114.11 35.1049 114.11ZM56.5691 114.11C54.7131 114.11 53.1025 113.747 51.7371 113.022C50.3718 112.297 49.3158 111.283 48.5691 109.982C47.8438 108.659 47.4811 107.102 47.4811 105.31H51.8651C51.8651 106.27 52.0571 107.113 52.4411 107.838C52.8465 108.542 53.4011 109.086 54.1051 109.47C54.8305 109.854 55.6731 110.046 56.6331 110.046C57.5931 110.046 58.4251 109.854 59.1291 109.47C59.8545 109.086 60.4091 108.542 60.7931 107.838C61.1985 107.113 61.4011 106.27 61.4011 105.31H65.7851C65.7851 107.102 65.4011 108.659 64.6331 109.982C63.8865 111.283 62.8198 112.297 61.4331 113.022C60.0678 113.747 58.4465 114.11 56.5691 114.11ZM47.4811 105.31V91.2621H51.8651V105.31H47.4811ZM61.4011 105.31V91.2621H65.7851V105.31H61.4011ZM70.3324 113.662V91.2621H74.7164V113.662H70.3324ZM73.1484 113.662V109.662H84.5724V113.662H73.1484ZM98.6329 112.734L94.3449 110.43C94.3449 109.811 94.5369 109.129 94.9209 108.382C95.3049 107.635 95.8382 106.889 96.5209 106.142C97.2036 105.395 98.0036 104.702 98.9209 104.062L102.313 101.63C102.782 101.31 103.22 100.947 103.625 100.542C104.052 100.137 104.393 99.6994 104.649 99.2301C104.926 98.7394 105.065 98.2701 105.065 97.8221C105.065 97.2674 104.926 96.7661 104.649 96.3181C104.393 95.8701 104.009 95.5181 103.497 95.2621C102.985 95.0061 102.356 94.8781 101.609 94.8781C100.969 94.8781 100.393 95.0061 99.8809 95.2621C99.3902 95.5181 98.9849 95.8594 98.6649 96.2861C98.3449 96.7128 98.1209 97.1714 97.9929 97.6621L93.4809 96.8941C93.6942 95.8274 94.1529 94.8354 94.8569 93.9181C95.5609 93.0008 96.4782 92.2648 97.6089 91.7101C98.7609 91.1341 100.062 90.8461 101.513 90.8461C103.177 90.8461 104.606 91.1448 105.801 91.7421C106.996 92.3394 107.913 93.1608 108.553 94.2061C109.214 95.2301 109.545 96.4248 109.545 97.7901C109.545 99.1768 109.161 100.414 108.393 101.502C107.646 102.569 106.612 103.571 105.289 104.51L102.249 106.718C101.63 107.123 101.044 107.614 100.489 108.19C99.9342 108.745 99.4862 109.395 99.1449 110.142C98.8036 110.867 98.6329 111.731 98.6329 112.734ZM94.3449 113.662V110.43L97.6089 109.822H109.833V113.662H94.3449ZM121.612 114.046C119.799 114.046 118.199 113.555 116.812 112.574C115.425 111.571 114.337 110.206 113.548 108.478C112.759 106.729 112.364 104.723 112.364 102.462C112.364 100.201 112.759 98.2061 113.548 96.4781C114.337 94.7288 115.415 93.3634 116.78 92.3821C118.167 91.3794 119.767 90.8781 121.58 90.8781C123.393 90.8781 124.993 91.3794 126.38 92.3821C127.788 93.3634 128.887 94.7288 129.676 96.4781C130.465 98.2061 130.86 100.201 130.86 102.462C130.86 104.723 130.465 106.729 129.676 108.478C128.887 110.206 127.799 111.571 126.412 112.574C125.025 113.555 123.425 114.046 121.612 114.046ZM121.612 110.078C122.572 110.078 123.425 109.758 124.172 109.118C124.94 108.457 125.537 107.561 125.964 106.43C126.391 105.278 126.604 103.955 126.604 102.462C126.604 100.969 126.391 99.6461 125.964 98.4941C125.537 97.3421 124.94 96.4461 124.172 95.8061C123.425 95.1448 122.561 94.8141 121.58 94.8141C120.62 94.8141 119.767 95.1448 119.02 95.8061C118.273 96.4461 117.687 97.3421 117.26 98.4941C116.855 99.6461 116.652 100.969 116.652 102.462C116.652 103.955 116.855 105.278 117.26 106.43C117.687 107.561 118.273 108.457 119.02 109.118C119.788 109.758 120.652 110.078 121.612 110.078ZM137.914 112.734L133.626 110.43C133.626 109.811 133.818 109.129 134.202 108.382C134.586 107.635 135.119 106.889 135.802 106.142C136.485 105.395 137.285 104.702 138.202 104.062L141.594 101.63C142.063 101.31 142.501 100.947 142.906 100.542C143.333 100.137 143.674 99.6994 143.93 99.2301C144.207 98.7394 144.346 98.2701 144.346 97.8221C144.346 97.2674 144.207 96.7661 143.93 96.3181C143.674 95.8701 143.29 95.5181 142.778 95.2621C142.266 95.0061 141.637 94.8781 140.89 94.8781C140.25 94.8781 139.674 95.0061 139.162 95.2621C138.671 95.5181 138.266 95.8594 137.946 96.2861C137.626 96.7128 137.402 97.1714 137.274 97.6621L132.762 96.8941C132.975 95.8274 133.434 94.8354 134.138 93.9181C134.842 93.0008 135.759 92.2648 136.89 91.7101C138.042 91.1341 139.343 90.8461 140.794 90.8461C142.458 90.8461 143.887 91.1448 145.082 91.7421C146.277 92.3394 147.194 93.1608 147.834 94.2061C148.495 95.2301 148.826 96.4248 148.826 97.7901C148.826 99.1768 148.442 100.414 147.674 101.502C146.927 102.569 145.893 103.571 144.57 104.51L141.53 106.718C140.911 107.123 140.325 107.614 139.77 108.19C139.215 108.745 138.767 109.395 138.426 110.142C138.085 110.867 137.914 111.731 137.914 112.734ZM133.626 113.662V110.43L136.89 109.822H149.114V113.662H133.626ZM156.445 112.734L152.157 110.43C152.157 109.811 152.349 109.129 152.733 108.382C153.117 107.635 153.651 106.889 154.333 106.142C155.016 105.395 155.816 104.702 156.733 104.062L160.125 101.63C160.595 101.31 161.032 100.947 161.437 100.542C161.864 100.137 162.205 99.6994 162.461 99.2301C162.739 98.7394 162.877 98.2701 162.877 97.8221C162.877 97.2674 162.739 96.7661 162.461 96.3181C162.205 95.8701 161.821 95.5181 161.309 95.2621C160.797 95.0061 160.168 94.8781 159.421 94.8781C158.781 94.8781 158.205 95.0061 157.693 95.2621C157.203 95.5181 156.797 95.8594 156.477 96.2861C156.157 96.7128 155.933 97.1714 155.805 97.6621L151.293 96.8941C151.507 95.8274 151.965 94.8354 152.669 93.9181C153.373 93.0008 154.291 92.2648 155.421 91.7101C156.573 91.1341 157.875 90.8461 159.325 90.8461C160.989 90.8461 162.419 91.1448 163.613 91.7421C164.808 92.3394 165.725 93.1608 166.365 94.2061C167.027 95.2301 167.357 96.4248 167.357 97.7901C167.357 99.1768 166.973 100.414 166.205 101.502C165.459 102.569 164.424 103.571 163.101 104.51L160.061 106.718C159.443 107.123 158.856 107.614 158.301 108.19C157.747 108.745 157.299 109.395 156.957 110.142C156.616 110.867 156.445 111.731 156.445 112.734ZM152.157 113.662V110.43L155.421 109.822H167.645V113.662H152.157Z" fill="#C8F7F3"/>
<path d="M54.531 169.344V149.28L54.947 146.944H58.723L58.691 169.344H54.531ZM49.795 154.016V150.048C50.3283 150.09 50.9043 149.962 51.523 149.664C52.1417 149.344 52.7497 148.938 53.347 148.448C53.9657 147.936 54.499 147.424 54.947 146.912L57.731 149.632C56.963 150.485 56.1523 151.264 55.299 151.968C54.4457 152.65 53.5603 153.184 52.643 153.568C51.747 153.952 50.7977 154.101 49.795 154.016ZM71.551 169.728C69.759 169.728 68.2337 169.472 66.975 168.96C65.7163 168.426 64.7563 167.701 64.095 166.784C63.455 165.845 63.135 164.757 63.135 163.52C63.135 162.197 63.455 161.034 64.095 160.032C64.7563 159.029 65.7163 158.24 66.975 157.664C68.2337 157.088 69.759 156.81 71.551 156.832C73.3643 156.81 74.9003 157.088 76.159 157.664C77.4177 158.24 78.3777 159.029 79.039 160.032C79.7004 161.034 80.031 162.197 80.031 163.52C80.031 164.757 79.7004 165.845 79.039 166.784C78.3777 167.701 77.4177 168.426 76.159 168.96C74.9003 169.472 73.3643 169.728 71.551 169.728ZM71.551 166.08C72.7243 166.08 73.6843 165.792 74.431 165.216C75.1777 164.618 75.551 163.861 75.551 162.944C75.551 161.941 75.1777 161.13 74.431 160.512C73.6843 159.893 72.7243 159.584 71.551 159.584C70.783 159.584 70.1003 159.722 69.503 160C68.927 160.277 68.4683 160.672 68.127 161.184C67.7857 161.696 67.615 162.282 67.615 162.944C67.615 163.562 67.7857 164.106 68.127 164.576C68.4683 165.045 68.927 165.418 69.503 165.696C70.1003 165.952 70.783 166.08 71.551 166.08ZM71.551 158.56C69.951 158.56 68.575 158.314 67.423 157.824C66.271 157.312 65.3857 156.618 64.767 155.744C64.1697 154.848 63.871 153.813 63.871 152.64C63.871 151.445 64.1697 150.389 64.767 149.472C65.3857 148.554 66.271 147.84 67.423 147.328C68.575 146.816 69.951 146.56 71.551 146.56C73.1723 146.56 74.559 146.816 75.711 147.328C76.863 147.84 77.7483 148.554 78.367 149.472C78.9857 150.389 79.295 151.445 79.295 152.64C79.295 153.813 78.9857 154.848 78.367 155.744C77.7483 156.618 76.863 157.312 75.711 157.824C74.559 158.314 73.1723 158.56 71.551 158.56ZM71.551 156.096C72.575 156.096 73.407 155.818 74.047 155.264C74.7083 154.709 75.039 154.005 75.039 153.152C75.039 152.234 74.7083 151.498 74.047 150.944C73.407 150.368 72.575 150.08 71.551 150.08C70.5483 150.08 69.727 150.368 69.087 150.944C68.447 151.498 68.127 152.234 68.127 153.152C68.127 154.005 68.447 154.709 69.087 155.264C69.727 155.818 70.5483 156.096 71.551 156.096ZM90.7378 161.632V158.016H100.338V161.632H90.7378ZM115.617 168.416L111.329 166.112C111.329 165.493 111.521 164.81 111.905 164.064C112.289 163.317 112.823 162.57 113.505 161.824C114.188 161.077 114.988 160.384 115.905 159.744L119.297 157.312C119.767 156.992 120.204 156.629 120.609 156.224C121.036 155.818 121.377 155.381 121.633 154.912C121.911 154.421 122.049 153.952 122.049 153.504C122.049 152.949 121.911 152.448 121.633 152C121.377 151.552 120.993 151.2 120.481 150.944C119.969 150.688 119.34 150.56 118.593 150.56C117.953 150.56 117.377 150.688 116.865 150.944C116.375 151.2 115.969 151.541 115.649 151.968C115.329 152.394 115.105 152.853 114.977 153.344L110.465 152.576C110.679 151.509 111.137 150.517 111.841 149.6C112.545 148.682 113.463 147.946 114.593 147.392C115.745 146.816 117.047 146.528 118.497 146.528C120.161 146.528 121.591 146.826 122.785 147.424C123.98 148.021 124.897 148.842 125.537 149.888C126.199 150.912 126.529 152.106 126.529 153.472C126.529 154.858 126.145 156.096 125.377 157.184C124.631 158.25 123.596 159.253 122.273 160.192L119.233 162.4C118.615 162.805 118.028 163.296 117.473 163.872C116.919 164.426 116.471 165.077 116.129 165.824C115.788 166.549 115.617 167.413 115.617 168.416ZM111.329 169.344V166.112L114.593 165.504H126.817V169.344H111.329ZM132.229 163.168L129.061 161.44L138.981 146.944L141.605 149.408L132.229 163.168ZM129.061 164.928V161.44L131.525 161.184H147.525V164.928H129.061ZM139.493 169.344V149.344L139.013 146.944H143.621V169.344H139.493Z" fill="#C8F7F3"/>
</svg>
