<?xml version="1.0" encoding="UTF-8"?>
<svg width="210px" height="110px" viewBox="0 0 210 110" version="1.1" xmlns="http://www.w3.org/2000/svg" xmlns:xlink="http://www.w3.org/1999/xlink">
    <!-- Generator: Sketch 47.1 (45422) - http://www.bohemiancoding.com/sketch -->
    <title>pepul-new-logo copy 2</title>
    <desc>Created with Sketch.</desc>
    <defs>
        <linearGradient x1="0.0698181818%" y1="49.5061132%" x2="92.2951969%" y2="74.6740218%" id="linearGradient-1">
            <stop stop-color="#FFC75E" offset="0%"/>
            <stop stop-color="#F4648F" offset="100%"/>
        </linearGradient>
    </defs>
    <g id="Page-1" stroke="none" stroke-width="1" fill="none" fill-rule="evenodd">
        <g id="pepul-new-logo-copy-2">
            <g id="Group-2" transform="translate(6.000000, 16.000000)">
                <g id="Group-3" transform="translate(0.000000, 4.000000)" fill="url(#linearGradient-1)">
                    <g id="Group" transform="translate(0.000000, 0.158853)">
                        <path d="M0.00932113173,52.7521668 L0.00932113173,1.4717932 C0.00932113173,0.6971652 0.630906513,0 1.48558641,0 L19.2007698,0 C28.757645,0 36.6051604,7.74628 36.6051604,17.1192788 C36.6051604,26.724666 28.757645,34.5484088 19.2784679,34.5484088 L8.01223291,34.5484088 L8.01223291,52.7521668 C8.01223291,53.5267948 7.31294936,54.22396 6.53596763,54.22396 L1.48558641,54.22396 C0.630906513,54.22396 0.00932113173,53.5267948 0.00932113173,52.7521668 Z M8.01223291,26.9570544 L19.0453734,26.9570544 C24.4065473,26.9570544 28.6022487,22.6191376 28.6022487,17.041816 C28.6022487,11.7743456 24.4065473,7.74628 19.0453734,7.74628 L8.01223291,7.74628 L8.01223291,26.9570544 Z M40.1015782,36.3300532 C40.1015782,26.2598892 47.1721119,17.6615184 57.9721579,17.6615184 C67.2959386,17.6615184 74.3664723,24.5557076 74.3664723,34.083632 C74.3664723,34.7033344 74.2887742,35.9427392 74.211076,36.5624416 C74.1333778,37.4919952 73.3563961,38.1116976 72.5794144,38.1116976 L47.7936973,38.1116976 C47.8713955,42.9143912 52.2224931,47.8720104 58.5160451,47.8720104 C62.6340483,47.8720104 65.1203898,46.4002172 67.2959386,44.8509612 C68.0729204,44.3087216 68.7722039,44.0763332 69.3937893,45.0058868 L71.49164,48.2593244 C72.1132253,49.0339524 72.424018,49.7311176 71.3362436,50.6606712 C68.7722039,52.9070924 64.0326154,55.0760508 58.0498561,55.0760508 C47.1721119,55.0760508 40.1015782,46.5551428 40.1015782,36.3300532 Z M48.1821882,32.3794504 L66.6743533,32.3794504 C66.5189569,28.0415336 63.1002373,24.2458564 57.8167616,24.2458564 C52.144795,24.2458564 48.7260754,27.886608 48.1821882,32.3794504 Z M90.4499941,52.5972412 L90.4499941,70.9559248 C90.4499941,71.9629412 89.7507105,72.6601064 88.5852379,72.6601064 L84.2341403,72.6601064 C83.3017622,72.6601064 82.5247805,71.8854784 82.5247805,70.9559248 L82.5247805,20.140328 C82.5247805,19.2882372 83.3017622,18.4361464 84.2341403,18.4361464 L86.1765946,18.4361464 C86.9535763,18.4361464 87.4197653,18.7459976 87.730558,19.5980884 L88.6629361,21.9219724 C89.2845215,21.30227 93.3248265,17.6615184 99.9291711,17.6615184 C109.796839,17.6615184 116.867373,26.1049636 116.867373,36.3300532 C116.867373,46.7875312 109.408348,55.0760508 99.6183784,55.0760508 C94.9564881,55.0760508 91.0715795,52.9845552 90.4499941,52.5972412 Z M90.2945977,45.0833496 C90.2945977,45.0833496 93.7910155,47.7170848 98.6083022,47.7170848 C104.435665,47.7170848 109.097556,42.7594656 109.097556,36.3300532 C109.097556,29.9781036 105.057251,25.0204844 98.9190949,25.0204844 C93.7133173,25.0204844 90.6053904,28.9710872 90.2945977,30.0555664 L90.2945977,45.0833496 Z M125.181077,38.6539372 C125.181077,48.026936 127.822815,55.0760508 138.545163,55.0760508 C145.848791,55.0760508 149.112114,50.9705224 149.889096,50.1958944 L150.821474,52.7521668 C151.132267,53.6042576 151.520758,54.22396 152.453136,54.22396 L154.317892,54.22396 C155.25027,54.22396 156.10495,53.449332 156.10495,52.5197784 L156.10495,20.140328 C156.10495,19.2882372 155.25027,18.4361464 154.317892,18.4361464 L150.355285,18.4361464 C149.034416,18.4361464 148.335133,18.6685348 148.335133,20.140328 L148.335133,41.829912 C148.02434,43.4566308 145.149508,47.7170848 139.94373,47.7170848 C135.359538,47.7170848 132.950895,45.0833496 132.950895,39.1961768 L132.950895,20.140328 C132.950895,19.2882372 132.173913,18.4361464 131.241535,18.4361464 L126.890437,18.4361464 C126.035757,18.4361464 125.181077,19.2882372 125.181077,20.140328 L125.181077,38.6539372 Z M167.215789,52.5197784 C167.215789,53.449332 167.99277,54.22396 168.925148,54.22396 L173.276246,54.22396 C174.130926,54.22396 174.985606,53.449332 174.985606,52.5197784 L174.985606,1.7041816 C174.985606,0.8520908 174.130926,0 173.276246,0 L168.925148,0 C167.99277,0 167.215789,0.8520908 167.215789,1.7041816 L167.215789,52.5197784 Z" id="Pepul"/>
                    </g>
                </g>
                <path d="M186.691406,5.78710938 L184.277344,5.78710938 L184.277344,13 L182.566406,13 L182.566406,5.78710938 L180.164062,5.78710938 L180.164062,4.46875 L186.691406,4.46875 L186.691406,5.78710938 Z M189.878906,4.46875 L192.052734,10.7558594 L192.087891,10.7558594 L194.279297,4.46875 L196.517578,4.46875 L196.517578,13 L194.806641,13 L194.806641,10.4570312 L194.970703,6.68945312 L194.935547,6.68359375 L192.650391,13 L191.501953,13 L189.228516,6.70703125 L189.193359,6.71289062 L189.357422,10.4570312 L189.357422,13 L187.646484,13 L187.646484,4.46875 L189.878906,4.46875 Z" id="TM" fill="#34373D"/>
            </g>
        </g>
    </g>
</svg>