<svg viewBox="0 0 40 39" fill="none" xmlns="http://www.w3.org/2000/svg">
<path d="M20.0288 0C9.26142 0 0.528809 8.73261 0.528809 19.5C0.528809 30.2674 9.26142 39 20.0288 39C30.7962 39 39.5288 30.2674 39.5288 19.5C39.5288 8.73261 30.7962 0 20.0288 0ZM21.5973 35.5239C21.5125 35.5239 21.4277 35.5239 21.3005 35.5663V26.3674C23.5049 26.325 25.4973 26.2826 27.3201 26.1554C25.7092 31.1152 22.6995 34.4217 21.5973 35.5239ZM18.4603 35.5239C17.3158 34.3793 14.3484 31.0728 12.7375 26.1554C14.5179 26.2826 16.5527 26.3674 18.7571 26.3674V35.5663C18.6723 35.5663 18.5875 35.5239 18.4603 35.5239ZM3.92011 19.5C3.92011 18.4402 4.04729 17.3804 4.21685 16.363C5.14946 16.1935 6.9299 15.9391 9.43098 15.6848C9.21903 16.9141 9.09185 18.1859 9.09185 19.5424C9.09185 20.8989 9.21903 22.1707 9.38859 23.3576C6.92989 23.1033 5.10707 22.8489 4.17446 22.6793C4.04729 21.6196 3.92011 20.5598 3.92011 19.5ZM11.6777 19.5C11.6777 18.0587 11.8473 16.7022 12.1016 15.4304C14.0516 15.3033 16.256 15.1761 18.7571 15.1761V23.8239C16.2984 23.7815 14.0516 23.6967 12.0592 23.5272C11.8473 22.2978 11.6777 20.9413 11.6777 19.5ZM21.5549 3.47609C22.6995 4.62065 25.6245 8.01196 27.2777 12.8446C25.4973 12.7174 23.5049 12.6326 21.3005 12.6326V3.4337C21.3853 3.4337 21.4701 3.47609 21.5549 3.47609ZM18.7571 3.4337V12.6326C16.5527 12.675 14.5603 12.7174 12.7799 12.8446C14.3908 8.01196 17.3582 4.62065 18.4603 3.47609C18.5875 3.47609 18.6723 3.4337 18.7571 3.4337ZM21.3005 23.8239V15.1761C23.7592 15.2185 26.006 15.3033 27.956 15.4304C28.2103 16.7022 28.3799 18.0587 28.3799 19.5C28.3799 20.9413 28.2527 22.2978 27.9984 23.5696C26.0484 23.6967 23.8016 23.7815 21.3005 23.8239ZM30.5842 15.6848C33.0853 15.9391 34.8658 16.1935 35.7984 16.363C36.0103 17.3804 36.1375 18.4402 36.1375 19.5C36.1375 20.5598 36.0103 21.6196 35.8408 22.637C34.9082 22.8065 33.1277 23.0609 30.6266 23.3152C30.8386 22.0859 30.9234 20.8141 30.9234 19.4576C30.9234 18.1859 30.7962 16.8717 30.5842 15.6848ZM35.0353 13.65C33.8484 13.4804 32.1527 13.2685 29.9908 13.0565C28.9734 9.41087 27.1929 6.48587 25.7092 4.4087C29.9908 6.01957 33.3821 9.41087 35.0353 13.65ZM14.3484 4.4087C12.8223 6.44348 11.0842 9.36848 10.0669 13.0141C7.94729 13.1837 6.25163 13.438 5.02229 13.6076C6.67555 9.41087 10.1092 6.01957 14.3484 4.4087ZM5.02229 25.35C6.20924 25.5196 7.9049 25.7315 10.0245 25.9435C11.0419 29.5891 12.7375 32.5141 14.2636 34.5489C10.0245 32.8957 6.67555 29.5467 5.02229 25.35ZM25.794 34.5489C27.3201 32.5141 29.0158 29.6315 30.0332 25.9859C32.1527 25.8163 33.8484 25.562 35.0353 25.3924C33.3821 29.5467 30.0332 32.8957 25.794 34.5489Z" fill="#FFC107"/>
</svg>
