<svg width="70" height="53" viewBox="0 0 70 53" fill="none" xmlns="http://www.w3.org/2000/svg">
<g clip-path="url(#clip0_16_1136)">
<path fill-rule="evenodd" clip-rule="evenodd" d="M4.70498 0H64.7839C67.3739 0 69.4889 2.07538 69.4889 4.6169V48.3831C69.4889 50.9191 67.3739 53 64.7839 53H4.70498C2.11498 53 0 50.9246 0 48.3831V4.6169C0 2.07538 2.11498 0 4.70498 0ZM7.12533 14.955H61.849V37.7509H7.12533V14.955ZM18.2148 21.4586H21.5965V28.3617C21.5965 29.0443 21.4947 29.6935 21.2912 30.2984C21.0876 30.9088 20.7709 31.4415 20.3411 31.8966C19.9113 32.3516 19.4589 32.6734 18.9839 32.8566C18.3279 33.1118 17.5362 33.245 16.6145 33.245C16.0829 33.245 15.5004 33.2062 14.867 33.1285C14.2393 33.0508 13.7078 32.8954 13.2836 32.6568C12.8595 32.4237 12.475 32.0908 12.1244 31.6579C11.7738 31.2251 11.5306 30.7812 11.4005 30.3206C11.1913 29.5826 11.0838 28.9333 11.0838 28.3617V21.4586H14.4655V28.5282C14.4655 29.1608 14.6295 29.6547 14.9632 30.0043C15.2968 30.3594 15.7549 30.537 16.343 30.537C16.9198 30.537 17.3779 30.3594 17.7115 30.0098C18.0395 29.6602 18.2092 29.1664 18.2092 28.5227V21.4586H18.2148ZM23.9716 21.4586H27.3703V33.0508H23.9716V21.4586ZM31.4363 21.2644H32.9744L30.2091 33.245H28.671L31.4363 21.2644ZM41.1799 21.4586H44.5616V28.3617C44.5616 29.0443 44.4598 29.6935 44.2562 30.2984C44.0526 30.9088 43.7359 31.4415 43.3061 31.8966C42.8764 32.3516 42.424 32.6734 41.9489 32.8566C41.293 33.1118 40.5013 33.245 39.5795 33.245C39.0479 33.245 38.4655 33.2062 37.8321 33.1285C37.2044 33.0508 36.6728 32.8954 36.2487 32.6568C35.8246 32.4237 35.44 32.0908 35.0894 31.6579C34.7388 31.2251 34.4956 30.7812 34.3656 30.3206C34.1563 29.5826 34.0545 28.9333 34.0545 28.3617V21.4586H37.4362V28.5282C37.4362 29.1608 37.6002 29.6547 37.9339 30.0043C38.2675 30.3594 38.7256 30.537 39.3137 30.537C39.8905 30.537 40.3486 30.3594 40.6822 30.0098C41.0102 29.6602 41.1799 29.1664 41.1799 28.5227V21.4586ZM46.0488 21.4586H49.7868L51.7265 25.0267L53.6096 21.4586H57.2967L53.8923 27.0743L57.619 33.0508H53.8075L51.6586 29.3273L49.4927 33.0508H45.7095L49.4871 27.0077L46.0488 21.4586ZM37.8151 46.4353C36.8085 46.4353 35.9942 45.5641 35.9942 44.4931C35.9942 43.4166 36.8085 42.5509 37.8151 42.5509H60.2373C61.2439 42.5509 62.0582 43.4222 62.0582 44.4931C62.0582 45.5697 61.2439 46.4353 60.2373 46.4353H37.8151ZM8.45991 46.4353C7.46463 46.4353 6.65596 45.5641 6.65596 44.4931C6.65596 43.4166 7.46463 42.5509 8.45991 42.5509H29.2478C30.243 42.5509 31.0517 43.4222 31.0517 44.4931C31.0517 45.5697 30.243 46.4353 29.2478 46.4353H8.45991ZM66.7123 11.1538H2.99151V48.8326C2.99151 49.1877 3.13288 49.4985 3.37039 49.7371C3.61356 49.9702 3.93024 50.1089 4.29216 50.1089H65.389C65.7509 50.1089 66.0676 49.9702 66.3108 49.7371C66.5539 49.4985 66.6897 49.1877 66.6897 48.8326V11.1538H66.7123ZM60.3051 3.41828C61.5888 3.41828 62.6294 4.43933 62.6294 5.69898C62.6294 6.95864 61.5888 7.97969 60.3051 7.97969C59.0215 7.97969 57.9809 6.95864 57.9809 5.69898C57.9866 4.43933 59.0271 3.41828 60.3051 3.41828ZM44.5616 3.41828C45.8453 3.41828 46.8858 4.43933 46.8858 5.69898C46.8858 6.95864 45.8453 7.97969 44.5616 7.97969C43.2779 7.97969 42.2374 6.95864 42.2374 5.69898C42.2374 4.43933 43.2779 3.41828 44.5616 3.41828ZM52.4333 3.41828C53.717 3.41828 54.7576 4.43933 54.7576 5.69898C54.7576 6.95864 53.717 7.97969 52.4333 7.97969C51.1497 7.97969 50.1091 6.95864 50.1091 5.69898C50.1091 4.43933 51.1497 3.41828 52.4333 3.41828Z" fill="#1B70CC"/>
</g>
<defs>
<clipPath id="clip0_16_1136">
<rect width="69.4889" height="53" fill="white"/>
</clipPath>
</defs>
</svg>
