<svg width="40" height="40" viewBox="0 0 13 4" fill="none" xmlns="http://www.w3.org/2000/svg">
<mask id="path-1-inside-1_916_4533" fill="white">
<path fill-rule="evenodd" clip-rule="evenodd" d="M3.93694 2.5002C3.71485 3.36271 2.93185 4 2 4C0.895431 4 0 3.10457 0 2C0 0.895431 0.895431 0 2 0C3.00268 0 3.83302 0.737847 3.97768 1.7002H4.70312H11.7031H12.7031V2.5002H11.7031H4.70312H3.93694Z"/>
</mask>
<path fill-rule="evenodd" clip-rule="evenodd" d="M3.93694 2.5002C3.71485 3.36271 2.93185 4 2 4C0.895431 4 0 3.10457 0 2C0 0.895431 0.895431 0 2 0C3.00268 0 3.83302 0.737847 3.97768 1.7002H4.70312H11.7031H12.7031V2.5002H11.7031H4.70312H3.93694Z" fill="white"/>
<path d="M3.93694 2.5002V2.1002H3.62689L3.54958 2.40045L3.93694 2.5002ZM3.97768 1.7002L3.58212 1.75966L3.63331 2.1002H3.97768V1.7002ZM12.7031 1.7002H13.1031V1.3002H12.7031V1.7002ZM12.7031 2.5002V2.9002H13.1031V2.5002H12.7031ZM3.54958 2.40045C3.37188 3.09055 2.74493 3.6 2 3.6V4.4C3.11877 4.4 4.05782 3.63487 4.32431 2.59994L3.54958 2.40045ZM2 3.6C1.11634 3.6 0.4 2.88366 0.4 2H-0.4C-0.4 3.32548 0.674517 4.4 2 4.4V3.6ZM0.4 2C0.4 1.11634 1.11634 0.4 2 0.4V-0.4C0.674517 -0.4 -0.4 0.674517 -0.4 2H0.4ZM2 0.4C2.80178 0.4 3.46645 0.990134 3.58212 1.75966L4.37324 1.64073C4.19959 0.485561 3.20357 -0.4 2 -0.4V0.4ZM4.70312 1.3002H3.97768V2.1002H4.70312V1.3002ZM11.7031 1.3002H4.70312V2.1002H11.7031V1.3002ZM12.7031 1.3002H11.7031V2.1002H12.7031V1.3002ZM13.1031 2.5002V1.7002H12.3031V2.5002H13.1031ZM11.7031 2.9002H12.7031V2.1002H11.7031V2.9002ZM4.70312 2.9002H11.7031V2.1002H4.70312V2.9002ZM3.93694 2.9002H4.70312V2.1002H3.93694V2.9002Z" fill="#37bc9b" mask="url(#path-1-inside-1_916_4533)"/>
</svg>
