<svg xmlns="http://www.w3.org/2000/svg" width="80" height="40" viewBox="0 0 110 40">
    <g fill="none" fill-rule="evenodd">
        <path fill="#1890FF" fill-rule="nonzero" d="M29.184 0H10.57C4.763-.013.037 4.718 0 10.584V37.82A2.24 2.24 0 0 0 2.222 40h26.962a10.392 10.392 0 0 0 7.39-3.12 10.604 10.604 0 0 0 3.03-7.488v-18.8a10.576 10.576 0 0 0-3.027-7.487A10.364 10.364 0 0 0 29.184 0zm-6.78 30.484H7.802a1.13 1.13 0 0 1-.911-1.112c0-.543.382-1.01.911-1.112h14.602c.529.102.911.569.911 1.112a1.13 1.13 0 0 1-.911 1.112zm9.58-6.26H7.782a1.13 1.13 0 0 1-.91-1.112c0-.543.382-1.01.91-1.112h24.202c.529.102.911.569.911 1.112a1.13 1.13 0 0 1-.91 1.112zm0-6.264H7.782a1.025 1.025 0 0 1-.899-1.112c-.048-.556.35-1.05.9-1.112h24.201c.544.069.936.56.887 1.112a1.026 1.026 0 0 1-.887 1.112zm0-6.264H7.782a1.025 1.025 0 0 1-.899-1.112c-.048-.556.35-1.05.9-1.112h24.201c.544.069.936.56.887 1.112a1.026 1.026 0 0 1-.887 1.112z"/>
        <text fill="#000" font-family="ProductSans-Bold, Product Sans" font-size="24" font-weight="bold">
            <tspan x="50" y="29">Blogs</tspan>
        </text>
    </g>
</svg>
