<svg width="74" height="74" viewBox="0 0 74 74" fill="none" xmlns="http://www.w3.org/2000/svg">
<circle cx="37" cy="37" r="37" fill="#BB2031"/>
<path d="M54.4493 36.5954V48.9638H47.2785V37.4243C47.2785 34.5269 46.2431 32.5482 43.6468 32.5482C41.6654 32.5482 40.4884 33.8803 39.9686 35.1702C39.7798 35.6312 39.7311 36.2713 39.7311 36.9179V48.9632H32.5598C32.5598 48.9632 32.656 29.4192 32.5598 27.3961H39.7317V30.4524C39.7172 30.4765 39.6969 30.5 39.6841 30.523H39.7317V30.4524C40.6846 28.986 42.3842 26.8897 46.1945 26.8897C50.9123 26.8897 54.4493 29.9722 54.4493 36.5954ZM25.0579 17C22.6049 17 21 18.6103 21 20.7258C21 22.7965 22.5583 24.4533 24.9638 24.4533H25.0103C27.5114 24.4533 29.0666 22.7965 29.0666 20.7258C29.019 18.6103 27.5114 17 25.0579 17ZM21.4262 48.9638H28.5949V27.3961H21.4262V48.9638Z" fill="white"/>
</svg>
