<?xml version="1.0" encoding="iso-8859-1"?>
<!-- Generator: Adobe Illustrator 18.0.0, SVG Export Plug-In . SVG Version: 6.00 Build 0)  -->
<!DOCTYPE svg PUBLIC "-//W3C//DTD SVG 1.1//EN" "http://www.w3.org/Graphics/SVG/1.1/DTD/svg11.dtd">
<svg version="1.1" id="Capa_1" xmlns="http://www.w3.org/2000/svg" xmlns:xlink="http://www.w3.org/1999/xlink" x="0px" y="0px"
	 viewBox="0 0 296.719 296.719" style="enable-background:new 0 0 296.719 296.719;" xml:space="preserve">
<g>
	<path d="M225.605,96.931c-1.369-9.706-10.829-17.906-20.829-17.906v-21.29C204.776,25.899,179.043,0,147.277,0
		C115.51,0,89.776,25.787,89.776,57.484v21.54c-10,0-19.063,8.191-20.389,17.888L44.17,281.723
		c-0.584,4.274,0.53,7.881,3.088,10.811c2.557,2.932,6.368,4.185,10.681,4.185H238.28c4.306,0,8.074-1.248,10.611-4.167
		c2.536-2.92,3.493-6.696,2.891-10.961L225.605,96.931z M105.776,57.484c0-22.858,18.573-41.454,41.501-41.454
		c22.926,0,41.499,18.708,41.499,41.704v20.984h-83V57.484z"/>
	<path d="M25.461,110.025c-9.188,1.837-15.65,11.198-14.109,20.441l20.532,123.195L52.26,104.665L25.461,110.025z"/>
	<path d="M271.258,110.025l-28.191-5.639l21.38,151.605l20.921-125.525C286.908,121.224,280.446,111.862,271.258,110.025z"/>
</g>
<g>
</g>
<g>
</g>
<g>
</g>
<g>
</g>
<g>
</g>
<g>
</g>
<g>
</g>
<g>
</g>
<g>
</g>
<g>
</g>
<g>
</g>
<g>
</g>
<g>
</g>
<g>
</g>
<g>
</g>
</svg>
