<svg width="24" height="25" viewBox="0 0 24 25" fill="none" xmlns="http://www.w3.org/2000/svg">
<path d="M4.51076 11.0109C4.55553 10.9787 4.60746 10.94 4.66655 10.8971C4.8313 10.7769 5.03723 10.6267 5.25032 10.4893C5.72485 10.1867 6.2173 9.9828 6.38383 10.3605C6.57185 10.7834 6.73302 11.8157 6.85657 12.9768C7.03385 14.6402 7.13771 16.5825 7.13771 17.3573C7.13592 18.379 7.08578 19.3748 6.99446 20.3514C6.9085 21.2614 6.78853 22.1585 6.63632 23.0428L17.3089 23.0277C17.1799 22.092 17.0743 21.1519 16.9973 20.2076C16.9167 19.201 16.8684 18.1879 16.8612 17.1685C16.854 16.0846 16.8916 14.9922 16.9847 13.8911C17.0779 12.788 17.2247 11.6741 17.4342 10.5451C17.4575 10.4163 17.5238 10.3112 17.6097 10.2446C17.6957 10.1781 17.8031 10.1524 17.9105 10.1803C17.9213 10.1824 17.9356 10.1888 17.9517 10.1953C17.9607 10.1996 17.9696 10.2039 17.9786 10.2082C17.984 10.2103 17.9875 10.2125 17.9929 10.2146L19.4774 11.0345L22.0273 7.01883L15.9569 2.17902C15.6489 2.88299 15.3104 3.4818 14.9541 3.97973C14.5548 4.53346 14.1304 4.95842 13.6881 5.25675C13.4428 5.42201 13.1903 5.54864 12.936 5.63664C12.6799 5.72463 12.4185 5.774 12.1535 5.78258C11.8902 5.79117 11.6288 5.76112 11.3673 5.69244C11.1059 5.62376 10.8462 5.51645 10.5884 5.3705C10.0888 5.0872 9.59634 4.66009 9.12539 4.08704C8.69741 3.5655 8.28376 2.92592 7.89697 2.16614L1.97156 7.05317L4.51076 11.0109ZM5.76067 11.3006L4.58955 12.0496C4.58597 12.0518 4.58239 12.0539 4.57881 12.0561C4.49644 12.1055 4.40332 12.1183 4.31737 12.0947C4.22783 12.0711 4.14546 12.011 4.08458 11.9187C4.08279 11.9144 4.081 11.9123 4.07921 11.908L1.09949 7.25921C1.0977 7.25706 1.09232 7.24848 1.08516 7.23774C1.07979 7.22916 1.07442 7.22057 1.07084 7.21414L1.06726 7.2077C1.00816 7.10038 0.988464 6.97376 1.00637 6.85571C1.02428 6.73552 1.08158 6.62392 1.17291 6.5488L7.78236 1.09731C7.79848 1.08228 7.81281 1.07155 7.82892 1.06082C7.91488 1.00287 8.01157 0.987848 8.1029 1.00931C8.19422 1.03077 8.27839 1.09087 8.33927 1.1853C8.35181 1.20462 8.36434 1.22608 8.37329 1.2454C8.76008 2.06956 9.17194 2.75207 9.59813 3.29507C10.0315 3.84666 10.4792 4.25016 10.9304 4.50556C11.1328 4.61931 11.3351 4.70302 11.5339 4.75667C11.7344 4.81033 11.9332 4.83394 12.132 4.82535C12.3289 4.81891 12.5241 4.78028 12.7193 4.71375C12.9127 4.64721 13.1061 4.54849 13.2977 4.41971C13.6952 4.15143 14.0802 3.75437 14.4438 3.2221C14.8001 2.70271 15.135 2.05454 15.4412 1.27974C15.443 1.27759 15.443 1.2733 15.4448 1.27115C15.4483 1.26257 15.4519 1.25398 15.4555 1.24755C15.4573 1.23467 15.4627 1.22394 15.4662 1.21321C15.5271 1.10375 15.6202 1.03292 15.7187 1.00931C15.819 0.985702 15.9264 1.00716 16.0196 1.08014L22.8224 6.50158C22.8242 6.50373 22.8278 6.50587 22.8296 6.50802L22.8314 6.51016L22.835 6.51231L22.8421 6.51875L22.8439 6.5209C22.9317 6.60031 22.9836 6.7162 22.9961 6.83854C23.0104 6.96088 22.9854 7.08751 22.9173 7.19267L19.9179 11.9123L19.9161 11.9144C19.8606 12.0046 19.7818 12.0668 19.6959 12.0926C19.6099 12.1205 19.515 12.1119 19.4273 12.0647L18.1057 11.3349C17.9464 12.2922 17.8317 13.2387 17.7583 14.1744C17.6795 15.1789 17.6473 16.1726 17.6545 17.1599C17.6616 18.2073 17.7136 19.2525 17.8031 20.2956C17.8926 21.3365 18.018 22.3774 18.172 23.4227C18.1738 23.4291 18.1738 23.4377 18.1738 23.4441C18.1738 23.4506 18.1756 23.457 18.1756 23.4634V23.4677C18.1756 23.4806 18.1774 23.4913 18.1774 23.5042C18.1774 23.6351 18.1326 23.7553 18.061 23.8433C17.9875 23.9292 17.8891 23.9828 17.7798 23.9828L6.15641 24C6.1403 24 6.12239 24 6.10448 23.9979C6.08658 23.9957 6.06867 23.9936 6.05076 23.9871C5.94332 23.9571 5.85558 23.8798 5.80006 23.7746C5.74455 23.6716 5.72306 23.5428 5.74813 23.4141C5.93078 22.4375 6.07583 21.4481 6.1779 20.4372C6.27818 19.4263 6.33369 18.4004 6.33548 17.3552C6.33727 16.3658 6.29071 15.3527 6.19044 14.3075C6.09911 13.3331 5.95765 12.333 5.76067 11.3006Z" fill="#624D49" stroke="#624D49" stroke-width="0.6"/>
</svg>
