<svg width="151" height="151" viewBox="0 0 151 151" fill="none" xmlns="http://www.w3.org/2000/svg">
<circle cx="75.5" cy="75.5" r="74.8009" fill="#EF8410" stroke="#EF8410" stroke-width="1.39815"/>
<g clip-path="url(#clip0_5_187)">
<path d="M115.417 107.75L109.838 82.7092C109.311 80.3426 108.068 78.2244 106.244 76.5833C103.069 73.727 101.248 69.7717 101.248 65.7319V54.1628C101.248 52.344 100.269 50.678 98.6933 49.8151C98.1515 49.5185 97.8146 48.958 97.8146 48.3528V39.9783C97.8146 37.2078 95.5045 34.9537 92.6651 34.9537H89.2321C86.3927 34.9537 84.0827 37.2078 84.0827 39.9783V41.6532C84.0827 46.2708 80.2326 50.0275 75.5 50.0275C70.7674 50.0275 66.9174 46.2708 66.9174 41.6532V39.9783C66.9174 37.2078 64.6073 34.9537 61.7679 34.9537H58.3349C55.4955 34.9537 53.1854 37.2078 53.1854 39.9783V48.3527C53.1854 48.9578 52.8486 49.5184 52.3067 49.815C50.7311 50.6779 49.7524 52.3439 49.7524 54.1626V65.7317C49.7524 69.7715 47.9313 73.7269 44.7559 76.5833C42.932 78.2244 41.6895 80.3426 41.1622 82.7092L35.5831 107.75C35.3958 108.591 35.8917 109.433 36.7304 109.699C48.3966 113.394 61.8031 115.347 75.5 115.347C89.1969 115.347 102.603 113.394 114.27 109.699C115.108 109.433 115.604 108.591 115.417 107.75ZM53.1854 65.7319V54.1628C53.1854 53.5536 53.4925 53.0071 53.9869 52.7361C55.6101 51.8473 56.6184 50.1675 56.6184 48.3527V39.9783C56.6184 39.0548 57.3885 38.3035 58.3349 38.3035H61.7679C62.7143 38.3035 63.4844 39.0548 63.4844 39.9783V41.6532C63.4844 48.118 68.8745 53.3772 75.5 53.3772C82.1256 53.3772 87.5156 48.118 87.5156 41.6532V39.9783C87.5156 39.0548 88.2857 38.3035 89.2321 38.3035H92.6651C93.6115 38.3035 94.3816 39.0548 94.3816 39.9783V48.3527C94.3816 50.1675 95.3899 51.8473 97.0131 52.7363C97.5075 53.0069 97.8146 53.5536 97.8146 54.1628V65.7319C97.8146 66.7472 97.9072 67.7573 98.0879 68.7518C94.7143 69.5528 91.1698 70.1704 87.5155 70.594V68.451C87.5155 67.5262 86.7469 66.7762 85.799 66.7762H80.6495C78.6011 66.7762 76.759 67.6561 75.5 69.0488C74.241 67.6561 72.3989 66.7762 70.3505 66.7762H65.201C64.2531 66.7762 63.4845 67.5262 63.4845 68.451V70.594C59.8302 70.1704 56.2859 69.5529 52.9122 68.7518C53.0926 67.7571 53.1854 66.747 53.1854 65.7319ZM84.0827 70.1259V72.4386C84.0825 72.4523 84.0825 72.4659 84.0827 72.4796V76.8254H80.6497C78.7567 76.8254 77.2167 75.3227 77.2167 73.4756C77.2167 71.6286 78.7567 70.1259 80.6497 70.1259H84.0827ZM73.7835 73.4756C73.7835 75.3227 72.2435 76.8254 70.3505 76.8254H66.9175V72.4796C66.9177 72.4659 66.9177 72.4523 66.9175 72.4386V70.1259H70.3505C72.2435 70.1259 73.7835 71.6286 73.7835 73.4756ZM97.3542 110.254L92.5928 94.7677C92.3202 93.8817 91.3626 93.3792 90.4556 93.6447C89.5475 93.9105 89.0323 94.8442 89.3047 95.7301L93.9279 110.767C88.4961 111.506 82.8893 111.918 77.2167 111.987V90.2243C77.2167 89.2994 76.4481 88.5494 75.5002 88.5494C74.5522 88.5494 73.7837 89.2994 73.7837 90.2243V111.987C68.1111 111.918 62.5043 111.506 57.0724 110.767L61.6957 95.7302C61.9681 94.8444 61.4529 93.9107 60.5448 93.6449C59.6367 93.3782 58.68 93.8818 58.4076 94.7678L53.6461 110.254C48.6529 109.436 43.831 108.337 39.2706 106.969L44.5172 83.4208C44.8939 81.7305 45.7812 80.218 47.0833 79.0464C49.2937 77.058 50.9667 74.6263 51.997 71.9821C55.6601 72.8566 59.5133 73.5222 63.4847 73.9667V78.5002C63.4847 79.4251 64.2533 80.1751 65.2012 80.1751H70.3507C72.399 80.1751 74.2412 79.2951 75.5002 77.9025C76.7592 79.2951 78.6013 80.1751 80.6497 80.1751H85.7991C86.7471 80.1751 87.5156 79.4251 87.5156 78.5002V73.9665C91.4871 73.5222 95.3404 72.8564 99.0033 71.9818C100.034 74.6261 101.707 77.0578 103.917 79.0461C105.219 80.2178 106.107 81.7304 106.483 83.4206L111.73 106.969C107.169 108.337 102.347 109.436 97.3542 110.254Z" fill="white"/>
</g>
<defs>
<clipPath id="clip0_5_187">
<rect width="82.4907" height="80.3935" fill="white" transform="translate(34.2546 34.9537)"/>
</clipPath>
</defs>
</svg>
