<svg width="60" height="60" viewBox="0 0 60 60" fill="none" xmlns="http://www.w3.org/2000/svg">
<circle cx="30" cy="30" r="30" fill="#FBFBFB"/>
<path d="M41.0082 10.4807C53.392 12.0748 49.7574 30.0196 49.413 38.7177C49.2215 43.5004 48.3673 47.199 43.4315 48.8568C36.9398 51.0378 27.3744 50.3107 20.7552 49.3415C16.3296 48.7038 12.8605 47.3773 11.6362 42.7861C9.69757 35.5291 10.246 25.7086 11.0877 18.3114C11.1133 18.1712 11.1515 18.069 11.2152 17.9797C11.3298 6.90982 34.5674 9.65177 41.0082 10.4807Z" fill="#EF8410"/>
<path d="M46.1478 17.2274C46.1734 14.1791 42.3727 13.2099 40.332 15.0848C39.7835 15.5949 39.5284 16.3729 39.4902 17.2146C39.6942 18.2987 40.3448 19.37 41.1865 19.9821C43.1635 21.3723 46.1222 19.523 46.1478 17.2274Z" fill="#FBFBFB"/>
<path d="M40.4979 23.1578C36.1362 16.5514 26.2901 15.9008 20.9973 21.7548C17.3881 25.7467 17.1329 32.3915 19.8495 37.1104C20.0026 37.1613 20.1428 37.2507 20.2705 37.4037C24.6834 42.3266 32.2846 44.1122 37.7434 39.6484C42.6151 35.6565 44.0434 28.527 40.4979 23.1578Z" fill="white"/>
<path d="M23.1146 32.2133C24.6578 36.5497 30.142 39.9931 34.5165 37.3149C43.3548 31.9072 32.9733 17.215 25.6907 23.732C23.1146 25.2496 22.107 29.369 23.1146 32.2133Z" fill="#EF8410"/>
</svg>
