<svg width="151" height="151" viewBox="0 0 151 151" fill="none" xmlns="http://www.w3.org/2000/svg">
<circle cx="75.5" cy="75.5" r="74.8148" fill="#EF8410" stroke="#EF8410" stroke-width="1.37037"/>
<path d="M109.813 75.3725C109.678 74.3684 109.091 73.521 108.241 72.9765C107.678 72.6153 106.979 72.6126 106.389 72.865C106.382 70.6975 106.39 68.53 106.334 66.3651C106.278 63.9346 106.411 61.5068 106.501 59.0817C106.533 58.2821 106.02 57.5915 105.332 57.2515C105.271 56.3378 105.207 55.424 105.128 54.5129C105.077 53.9684 105.032 53.4239 104.955 52.8846C104.939 52.7784 104.926 52.6721 104.91 52.5659C104.87 52.2843 104.743 51.7982 104.583 51.5831C104.352 51.2803 104.156 50.9429 103.797 50.7703C103.534 50.6454 103.282 50.5232 102.995 50.4834C102.716 50.4409 102.429 50.4409 102.147 50.409C102.086 49.5139 102.039 48.6187 101.999 47.7235C102.1 47.4925 102.155 47.2428 102.155 46.9825C102.155 45.9332 101.282 45.0753 100.243 45.0646C98.1047 45.0487 95.9664 45.0806 93.8281 44.9903C91.905 44.9106 89.9845 44.799 88.0534 44.7592C83.9973 44.6848 79.9333 44.714 75.8718 44.6848C71.8875 44.6582 67.9084 44.5785 63.9161 44.5679C61.969 44.5653 60.022 44.5281 58.0776 44.5281C56.2023 44.5281 54.3243 44.5626 52.4517 44.6928C50.3851 44.8389 48.292 45.3117 46.3901 46.1404C44.5334 46.9426 42.8653 48.5417 42.2889 50.5126C42.1322 51.0518 42.0525 51.6017 41.9808 52.1621C41.9197 52.6164 41.8665 53.0812 41.9197 53.5381C41.9861 54.1092 42.079 54.6617 42.2304 55.2089C41.6062 55.525 41.1679 56.1625 41.16 56.8982C41.1334 59.0179 41.144 61.135 41.1042 63.2493C41.0697 65.1725 41.0245 67.0929 41.0033 69.0107C40.9687 72.8942 40.9475 76.7723 41.0033 80.6584C41.0431 83.3571 41.1042 86.0559 41.1148 88.7546C41.1308 91.464 41.1653 94.176 41.1042 96.8907C41.0962 97.2281 41.2158 97.5309 41.3804 97.8071C41.7815 98.8431 42.2012 99.8843 42.7458 100.851C42.9689 101.244 43.2504 101.608 43.5214 101.972C43.7737 102.304 44.0314 102.634 44.289 102.96C44.6822 103.46 45.2718 103.853 45.7978 104.19C46.9718 104.958 48.3398 105.447 49.7184 105.688C50.9137 105.895 52.1197 106.097 53.3309 106.172C55.5303 106.302 57.7403 106.318 59.9476 106.358C62.0461 106.392 64.1445 106.432 66.2376 106.429C68.3759 106.429 70.5089 106.405 72.6445 106.419C74.7881 106.44 76.9264 106.504 79.07 106.459C81.28 106.419 83.4847 106.328 85.692 106.297C87.8143 106.262 89.95 106.273 92.0723 106.273C94.099 106.273 96.1284 106.273 98.1498 106.246C99.0981 106.235 100.046 106.246 101 106.257C101.999 106.267 102.997 106.278 104.002 106.262C104.684 106.254 105.279 105.914 105.683 105.415C106.196 105.048 106.56 104.482 106.546 103.821C106.501 101.537 106.525 99.2521 106.501 96.9651C106.467 94.3407 106.506 91.7217 106.552 89.1C107.181 89.0043 107.744 88.821 108.267 88.3828C109.434 87.4053 109.71 85.7292 109.832 84.2975C109.909 83.4103 109.909 82.5178 109.944 81.6253C109.999 80.2626 110.066 78.8867 110.018 77.5187C109.991 76.8015 109.909 76.0843 109.813 75.3725ZM53.4611 56.4679C53.469 56.274 53.4797 56.0775 53.4372 55.8782C53.4265 55.8278 53.4186 55.7746 53.4079 55.7242C53.3548 54.9114 53.3814 54.0932 53.3893 53.2751C57.2754 53.3867 61.1642 53.3893 65.0556 53.4079C67.0584 53.4185 69.0612 53.469 71.064 53.5195C72.9208 53.57 74.7722 53.7054 76.6289 53.7665C78.56 53.8329 80.4964 53.8621 82.4354 53.902C84.3718 53.9418 86.3136 53.9817 88.25 53.9976C90.2209 54.0135 92.1945 54.0321 94.1628 54.0375C95.8973 54.0428 97.6345 54.1171 99.369 54.1278C100.012 54.1304 100.652 54.1543 101.29 54.2021C101.396 55.1398 101.465 56.0801 101.494 57.0257C100.461 57.047 99.4248 57.0364 98.3968 57.0257C96.4658 56.9992 94.532 56.9407 92.6009 56.9301C88.7228 56.9089 84.8526 56.7787 80.9745 56.7495C76.8493 56.7203 72.7268 56.7548 68.6017 56.6087C65.9481 56.5184 63.2892 56.5237 60.6383 56.529C59.2198 56.529 57.804 56.5343 56.3909 56.5184C55.4134 56.5051 54.4359 56.4918 53.4611 56.4679ZM105.829 84.9934C105.832 84.9907 105.837 84.9854 105.842 84.9801C105.84 84.9854 105.834 84.9907 105.829 84.9934ZM105.314 76.6289C105.452 76.6395 105.587 76.6315 105.717 76.6103C105.797 77.7764 105.784 78.9451 105.763 80.1165C105.752 80.8576 105.739 81.5987 105.723 82.3451C105.715 83.0703 105.725 83.7954 105.659 84.5153C105.627 84.6826 105.59 84.8473 105.545 85.012C104.809 85.0492 104.065 85.0253 103.332 85.0067C102.44 84.9854 101.547 84.9775 100.655 84.9775C98.6757 84.9775 96.6889 84.9828 94.7259 84.7596C94.1283 84.6534 93.5492 84.502 92.9808 84.2921C92.4097 84.0212 91.8864 83.7078 91.379 83.3412C91.1878 83.1739 91.0045 83.0012 90.8292 82.8179C90.7229 82.6532 90.63 82.4859 90.5397 82.3132C90.4467 82.0635 90.3617 81.8112 90.2926 81.5482C90.2501 80.9559 90.2687 80.3768 90.3325 79.7871C90.4387 79.155 90.5689 78.5281 90.7867 77.9225C90.8584 77.7817 90.9354 77.6489 91.0178 77.5187C91.1187 77.4178 91.2197 77.3195 91.3259 77.2292C91.5278 77.1043 91.735 76.9901 91.9501 76.8839C92.4734 76.6953 93.0047 76.5518 93.5572 76.4535C94.4204 76.3659 95.2811 76.3473 96.1497 76.326C97.0767 76.2995 98.0064 76.265 98.9334 76.265C101.064 76.2543 103.197 76.4668 105.314 76.6289ZM46.0023 52.3906C46.0634 52.0612 46.1378 51.7398 46.244 51.4237C46.3184 51.275 46.4008 51.1342 46.4884 50.996C46.7195 50.7357 46.9665 50.4914 47.2295 50.2629C47.5668 50.0318 47.9175 49.8406 48.2893 49.6626C49.5511 49.1818 50.8765 48.8817 52.2047 48.6798C54.0189 48.4859 55.8251 48.3982 57.6473 48.385C59.5731 48.3743 61.5015 48.3557 63.4273 48.3504C65.2229 48.3504 67.0186 48.361 68.8195 48.3717C70.9737 48.3823 73.1333 48.3956 75.2901 48.3823C79.3356 48.3584 83.3811 48.3478 87.4265 48.4275C89.3629 48.4673 91.294 48.5071 93.2331 48.6346C94.8295 48.7462 96.4286 48.7834 98.0276 48.8259C98.0648 49.296 98.0967 49.7689 98.1498 50.2417C97.9718 50.2417 97.7939 50.2364 97.6159 50.239C93.8334 50.2629 90.0509 50.3187 86.2658 50.2629C84.2629 50.239 82.2601 50.1965 80.2626 50.1328C78.3714 50.077 76.4854 50.061 74.5968 49.9867C72.6658 49.9096 70.7373 49.83 68.8062 49.806C66.8751 49.7768 64.9414 49.7795 63.0103 49.7556C59.4084 49.6998 55.8065 49.5696 52.21 49.4182C52.1861 49.4182 52.1622 49.4156 52.1383 49.4156C51.2086 49.4156 50.4622 50.2018 50.3373 51.0917C49.7768 51.4503 49.3784 52.0453 49.3811 52.7465C49.3864 53.9153 49.4076 55.092 49.5564 56.2554C49.4767 56.2395 49.3917 56.2421 49.3067 56.2315C48.6904 56.1359 48.0795 56.0323 47.4872 55.8357C47.2959 55.7375 47.1153 55.6285 46.9347 55.5064C46.839 55.4214 46.7514 55.3337 46.6664 55.2381C46.5229 55.007 46.4034 54.7706 46.2919 54.5262C46.159 54.1756 46.0554 53.825 45.9784 53.4584C45.9545 53.0998 45.9678 52.7492 46.0023 52.3906ZM97.9718 101.983C95.9079 102.033 93.8414 102.028 91.7775 102.073C87.3628 102.158 82.9508 102.309 78.5308 102.341C76.4828 102.352 74.4295 102.397 72.3815 102.381C70.2034 102.371 68.0279 102.341 65.8551 102.336C63.8018 102.331 61.7486 102.357 59.6953 102.365C57.4853 102.371 55.262 102.381 53.0626 102.163C52.8873 102.145 52.712 102.129 52.5367 102.11C51.3387 101.94 50.1328 101.728 49.0012 101.308C48.5497 101.085 48.114 100.838 47.6997 100.554C47.4128 100.301 47.1604 100.028 46.9187 99.7356C46.7062 99.454 46.499 99.1645 46.3051 98.8643C46.0953 98.5296 45.9306 98.1604 45.7712 97.7965C45.5879 97.345 45.4126 96.8881 45.24 96.4285C45.1364 96.155 45.0089 95.9132 44.8469 95.6981C44.8203 92.2768 44.8203 88.8582 44.7751 85.4423C44.7459 83.5457 44.7087 81.6439 44.6848 79.7473C44.6556 77.8003 44.6795 75.8479 44.6742 73.9009C44.6742 71.1145 44.6689 68.3281 44.7406 65.539C44.7937 63.3715 44.8601 61.2067 44.9186 59.0392C45.0461 59.1189 45.1709 59.2065 45.2984 59.2782C46.3583 59.8626 47.5429 60.0087 48.7223 60.1521C49.7104 60.2743 50.7039 60.3275 51.7026 60.3646C53.6842 60.4364 55.6737 60.4098 57.6606 60.4098C59.7537 60.4098 61.8415 60.3859 63.9347 60.3753C65.9933 60.3593 68.0412 60.455 70.0972 60.5214C72.0787 60.5825 74.0629 60.5825 76.0498 60.5825C78.1084 60.5771 80.1697 60.5612 82.2283 60.5665C84.247 60.5718 86.2631 60.6914 88.2765 60.8135C92.059 61.0367 95.8575 61.05 99.6453 61.0951C100.54 61.1057 101.449 61.0951 102.355 61.0579C102.299 64.8484 102.349 68.6415 102.365 72.432C101.125 72.3735 99.8843 72.2859 98.6412 72.2726C97.6876 72.262 96.734 72.2328 95.7857 72.2168C95.6901 72.2142 95.5972 72.2142 95.5015 72.2142C94.4443 72.2142 93.4004 72.3151 92.3512 72.4532C91.2117 72.61 90.0509 73.0748 89.0734 73.6751C88.3429 74.124 87.8276 74.7243 87.3123 75.3964C86.9883 75.8187 86.797 76.4164 86.6164 76.8998C86.4198 77.4204 86.3136 77.9782 86.2073 78.5254C85.9337 79.9279 85.8036 81.349 86.0958 82.7621C86.1675 83.1154 86.3083 83.4581 86.4384 83.7954C86.7625 84.6375 87.2008 85.3334 87.8064 86.0054C88.2845 86.5393 88.9273 86.9537 89.5117 87.3628C89.8889 87.6257 90.3033 87.8409 90.7229 88.0348C91.3179 88.3031 91.9342 88.5846 92.5743 88.7414C93.7086 89.0229 94.8933 89.1159 96.0593 89.1796C97.3662 89.2514 98.6811 89.2407 99.9986 89.2301C100.554 89.2248 101.114 89.2195 101.672 89.2195C101.906 89.2195 102.137 89.2221 102.371 89.2248C102.341 93.4535 102.477 97.6796 102.511 101.906C101 101.922 99.4859 101.948 97.9718 101.983ZM97.1006 80.4539C97.1006 81.5987 96.147 82.555 94.9995 82.555C93.8547 82.555 92.8984 81.6014 92.8984 80.4539C92.8984 79.309 93.852 78.3528 94.9995 78.3528C96.1443 78.3528 97.1006 79.309 97.1006 80.4539Z" fill="white"/>
</svg>
