<svg width="29" height="29" viewBox="0 0 29 29" fill="none" xmlns="http://www.w3.org/2000/svg">
<g clip-path="url(#clip0_27_371)">
<path d="M21.4889 16.0142C20.112 16.0142 18.9917 17.1347 18.9917 18.512C18.9917 19.8893 20.1119 21.0098 21.4889 21.0098C22.8663 21.0098 23.9868 19.8893 23.9868 18.512C23.9868 17.1346 22.8663 16.0142 21.4889 16.0142ZM21.4889 19.7132C20.8269 19.7132 20.2883 19.1743 20.2883 18.512C20.2883 17.8496 20.8269 17.3107 21.4889 17.3107C22.1513 17.3107 22.6902 17.8497 22.6902 18.512C22.6902 19.1744 22.1513 19.7132 21.4889 19.7132Z" fill="#624D49"/>
<path d="M21.4889 6.50049C20.112 6.50049 18.9917 7.62101 18.9917 8.99828C18.9917 10.3753 20.1119 11.4956 21.4889 11.4956C22.8663 11.4956 23.9868 10.3753 23.9868 8.99828C23.9868 7.62101 22.8663 6.50049 21.4889 6.50049ZM21.4889 10.1991C20.8269 10.1991 20.2883 9.66041 20.2883 8.99834C20.2883 8.33598 20.8269 7.79711 21.4889 7.79711C22.1513 7.79711 22.6902 8.33604 22.6902 8.99834C22.6902 9.66036 22.1513 10.1991 21.4889 10.1991Z" fill="#624D49"/>
<path d="M28.3517 4.87621H25.9736C25.4816 3.96351 24.5167 3.34171 23.4091 3.34171H22.1372V2.11C22.1372 1.75203 21.8469 1.46169 21.4889 1.46169C21.1309 1.46169 20.8406 1.75197 20.8406 2.11V3.34176H17.2769V1.86559C17.2769 1.50763 16.9866 1.21729 16.6286 1.21729H12.5768C12.2188 1.21729 11.9285 1.50757 11.9285 1.86559V3.34176H5.96426C2.67553 3.34171 0 6.0173 0 9.30602V15.562C0 15.92 0.290283 16.2103 0.648309 16.2103H2.59318V19.8732H0.648309C0.290283 19.8732 0 20.1635 0 20.5214V27.134C0 27.492 0.290283 27.7823 0.648309 27.7823H25.6724C26.0303 27.7823 26.3207 27.492 26.3207 27.134V11.5102H28.3517C28.7097 11.5102 29.0001 11.2199 29.0001 10.8619V5.52452C29 5.1665 28.7098 4.87621 28.3517 4.87621ZM13.2251 2.51385H15.9804V3.34171H13.2251V2.51385V2.51385ZM25.0241 26.4857H1.29656V24.8864H25.024V26.4857H25.0241ZM25.0241 10.8619V23.5898H1.29656V21.1697H17.2769C17.4635 21.1697 17.6411 21.0893 17.7642 20.9491C17.8873 20.8088 17.944 20.6224 17.9198 20.4374L16.6232 10.5185C16.581 10.1957 16.3059 9.95427 15.9804 9.95427H6.80707C6.48156 9.95427 6.20645 10.1957 6.1642 10.5185L5.58969 14.9137H1.29656V9.30596C1.29656 6.73221 3.39045 4.63827 5.96426 4.63827H6.02911V6.19418C6.02911 6.55215 6.31939 6.84249 6.67742 6.84249C7.03544 6.84249 7.32573 6.55221 7.32573 6.19418V4.63827H12.5769H16.6287H23.4092C24.2996 4.63827 25.0241 5.36276 25.0241 6.25315V10.8619V10.8619ZM3.88974 19.8732V16.2103H6.15876C6.48428 16.2103 6.75938 15.9688 6.80163 15.6461L7.37614 11.2509H15.4112L16.5383 19.8732H3.88974V19.8732ZM27.7034 10.2136H26.3206V6.17283H27.7034V10.2136Z" fill="#624D49"/>
<path d="M6.67748 7.60962C6.31951 7.60962 6.02917 7.8999 6.02917 8.25793V8.54968C6.02917 8.90765 6.31946 9.19799 6.67748 9.19799C7.03551 9.19799 7.32579 8.90771 7.32579 8.54968V8.25793C7.32574 7.8999 7.03545 7.60962 6.67748 7.60962Z" fill="#624D49"/>
</g>
<defs>
<clipPath id="clip0_27_371">
<rect width="29" height="29" fill="white"/>
</clipPath>
</defs>
</svg>
