<svg width="60" height="60" viewBox="0 0 60 60" fill="none" xmlns="http://www.w3.org/2000/svg">
<path d="M30 60C46.5685 60 60 46.5685 60 30C60 13.4315 46.5685 0 30 0C13.4315 0 0 13.4315 0 30C0 46.5685 13.4315 60 30 60Z" fill="#FBFBFB"/>
<path d="M47.9249 32.4142V44.7826H40.7541V33.2431C40.7541 30.3457 39.7187 28.367 37.1224 28.367C35.141 28.367 33.964 29.6991 33.4442 30.989C33.2554 31.45 33.2067 32.0901 33.2067 32.7367V44.782H26.0354C26.0354 44.782 26.1316 25.238 26.0354 23.2149H33.2073V26.2712C33.1928 26.2953 33.1725 26.3188 33.1597 26.3418H33.2073V26.2712C34.1602 24.8048 35.8598 22.7085 39.6701 22.7085C44.3879 22.7085 47.9249 25.791 47.9249 32.4142ZM18.5335 12.8188C16.0805 12.8188 14.4756 14.4291 14.4756 16.5446C14.4756 18.6153 16.0339 20.2721 18.4394 20.2721H18.4859C20.987 20.2721 22.5422 18.6153 22.5422 16.5446C22.4946 14.4291 20.987 12.8188 18.5335 12.8188ZM14.9018 44.7826H22.0705V23.2149H14.9018V44.7826Z" fill="#EF8410"/>
</svg>
