<svg width="28" height="28" viewBox="0 0 28 28" fill="none" xmlns="http://www.w3.org/2000/svg">
<path d="M21.2893 9.14693C21.1601 8.23102 20.2674 7.45722 19.3238 7.45722V5.44819C19.3238 2.44397 16.8955 0 13.8979 0C10.9002 0 8.47178 2.4334 8.47178 5.4245V7.45713C7.52812 7.45713 6.67289 8.23008 6.54776 9.14514L4.16815 26.5849C4.11304 26.9882 4.21816 27.3286 4.45955 27.6051C4.70084 27.8818 5.06047 28 5.46747 28H22.4854C22.8918 28 23.2473 27.8822 23.4867 27.6068C23.726 27.3312 23.8163 26.9749 23.7595 26.5724L21.2893 9.14693ZM9.98162 5.4245C9.98162 3.2675 11.7343 1.51268 13.8979 1.51268C16.0613 1.51268 17.8139 3.27806 17.8139 5.44809V7.42825H9.98162V5.4245Z" fill="#624D49"/>
</svg>
