<svg width="36" height="35" viewBox="0 0 36 35" fill="none" xmlns="http://www.w3.org/2000/svg">
<path d="M18.4608 0C15.4833 0.00163429 12.5557 0.751282 9.95613 2.17773C7.35652 3.60417 5.17123 5.66004 3.60785 8.15004C2.04446 10.64 1.15491 13.4815 1.0237 16.4044C0.892486 19.3273 1.52397 22.2347 2.85815 24.8503L1.02823 32.0373C0.959107 32.3139 0.965034 32.6034 1.04542 32.877C1.12581 33.1507 1.27785 33.3988 1.48636 33.5966C1.69486 33.7944 1.95253 33.935 2.23364 34.0044C2.51475 34.0737 2.80945 34.0694 3.08831 33.9918L9.88516 32.1099C12.211 33.3925 14.805 34.1344 17.468 34.2785C20.131 34.4227 22.7923 33.9652 25.2474 32.9414C27.7025 31.9175 29.8862 30.3544 31.6308 28.3721C33.3754 26.3898 34.6346 24.0411 35.3116 21.5061C35.9886 18.9712 36.0654 16.3176 35.5362 13.7489C35.007 11.1802 33.8859 8.7649 32.2588 6.68832C30.6317 4.61174 28.542 2.92916 26.1502 1.76974C23.7583 0.610324 21.1278 0.00491742 18.4608 0V0ZM8.46157 7.32943C10.3413 5.48187 12.7129 4.19227 15.3043 3.60854C17.8958 3.0248 20.6022 3.17055 23.1132 4.02908C25.6242 4.88761 27.8381 6.42416 29.5011 8.46251C31.1641 10.5009 32.2088 12.9585 32.5154 15.5536C32.822 18.1487 32.3781 20.7761 31.2346 23.1347C30.0911 25.4932 28.2943 27.4873 26.0503 28.8883C23.8062 30.2893 21.2058 31.0405 18.5472 31.0557C15.8886 31.0709 13.2794 30.3495 11.0189 28.9743C10.8218 28.8453 10.5988 28.7594 10.365 28.7223C10.1311 28.6852 9.89195 28.6978 9.66352 28.7593L4.94665 30.0911L6.22532 25.0653C6.33782 24.6581 6.2859 24.2239 6.0804 23.8535C5.50466 22.8349 5.06351 21.7484 4.76764 20.6201C4.15997 18.2792 4.1809 15.8234 4.82837 13.4928C5.47585 11.1622 6.72772 9.03663 8.46157 7.32384V7.32943Z" fill="#624D49"/>
</svg>
