<svg width="60" height="60" viewBox="0 0 60 60" fill="none" xmlns="http://www.w3.org/2000/svg">
<g clip-path="url(#clip0_41_151)">
<path d="M30.0002 59.9995C46.5686 59.9995 60 46.5681 60 29.9997C60 13.4313 46.5686 0 30.0002 0C13.4318 0 0.000488281 13.4313 0.000488281 29.9997C0.000488281 46.5681 13.4318 59.9995 30.0002 59.9995Z" fill="#FBFBFB"/>
<path d="M48.3761 21.5599C47.0905 22.13 45.7075 22.5156 44.2572 22.6878C45.738 21.8006 46.8744 20.3968 47.4108 18.7213C46.0252 19.5433 44.4899 20.1396 42.8572 20.461C41.5491 19.0679 39.6854 18.1973 37.6218 18.1973C33.6623 18.1973 30.451 21.4086 30.451 25.368C30.451 25.9301 30.5146 26.4772 30.6376 27.0023C24.6781 26.7034 19.394 23.8488 15.857 19.5091C15.2399 20.5679 14.8859 21.8006 14.8859 23.1145C14.8859 25.6017 16.1527 27.7975 18.0758 29.0831C16.9009 29.0462 15.7944 28.7238 14.8281 28.1852C14.8276 28.2157 14.8276 28.2462 14.8276 28.2761C14.8276 31.7506 17.3004 34.6485 20.5801 35.3068C19.979 35.4715 19.3443 35.5587 18.6913 35.5587C18.2282 35.5587 17.7795 35.5143 17.3421 35.4309C18.2544 38.2791 20.9021 40.3524 24.0406 40.4107C21.586 42.3343 18.4945 43.4803 15.134 43.4803C14.5564 43.4803 13.9842 43.4466 13.4243 43.3798C16.5961 45.4151 20.3662 46.6018 24.4155 46.6018C37.6052 46.6018 44.8182 35.6753 44.8182 26.1986C44.8182 25.8878 44.8112 25.5782 44.7973 25.2713C46.1995 24.2605 47.4151 22.9979 48.3761 21.5599Z" fill="#EF8410"/>
</g>
<defs>
<clipPath id="clip0_41_151">
<rect width="60" height="60" fill="white"/>
</clipPath>
</defs>
</svg>
