<svg width="24" height="26" viewBox="0 0 24 26" fill="none" xmlns="http://www.w3.org/2000/svg">
<path d="M9.20056 9.84113C8.83267 9.50795 8.30285 9.55037 7.99226 9.90176C7.9134 9.95556 7.83686 10.0163 7.7747 10.0979C7.44973 10.5245 7.54806 11.1904 7.927 11.5389C8.91187 12.4447 10.1876 10.735 9.20056 9.84113Z" fill="#624D49"/>
<path d="M14.9889 13.7925C14.9274 13.8018 14.8696 13.8227 14.8117 13.8434C14.7926 13.847 14.7742 13.8541 14.7551 13.8596C14.7537 13.8603 14.7519 13.8608 14.7504 13.8614C14.5416 13.9248 14.3438 14.0981 14.2329 14.3391C14.2324 14.34 14.2327 14.341 14.2321 14.3419C14.0665 14.6397 14.0294 15.0127 14.2102 15.3525C14.2199 15.3707 14.2343 15.3832 14.245 15.4005C14.3672 15.6833 14.5725 15.9253 14.8536 16.038C15.5101 16.3011 16.2607 15.843 16.3269 15.0681C16.3945 14.2788 15.6766 13.6895 14.9889 13.7925Z" fill="#624D49"/>
<path d="M23.8305 11.1748C23.9632 10.9737 23.8519 10.7017 23.6862 10.5786C23.0351 10.095 22.0484 9.5192 21.1835 9.32424C21.7481 8.67994 22.2209 7.87189 22.7053 7.18732C22.8658 6.96067 22.6479 6.6164 22.4081 6.62647C21.967 6.64492 21.5256 6.65972 21.0848 6.68435C20.6683 6.70759 20.2049 6.80279 19.7937 6.71532C19.7624 6.70867 19.7342 6.71269 19.705 6.71328C19.9545 6.00325 20.1753 5.2789 20.4021 4.56048C20.5184 4.19202 20.7192 3.63117 20.2656 3.4156C19.8399 3.21309 19.0425 3.63896 18.6358 3.76867C18.2964 3.87693 17.9568 3.99957 17.6199 4.12899C17.5627 4.14516 17.5058 4.1614 17.4488 4.17758C17.5322 3.27055 17.5648 2.35933 17.5158 1.44751C17.502 1.19072 17.2244 0.947535 16.9966 1.1247C16.2285 1.72275 15.4557 2.33495 14.7276 2.99363C14.461 2.08637 14.1672 1.18563 13.8766 0.289628C13.7987 0.0494363 13.4609 -0.128566 13.2835 0.119954C12.8426 0.73712 12.267 1.39095 11.8769 2.09194C11.4161 1.37693 10.8214 0.714653 10.3016 0.128582C10.1006 -0.0978304 9.75462 0.022056 9.67416 0.307962C9.39437 1.303 9.01504 2.2407 8.62426 3.18595C8.43152 3.01059 8.23519 2.83822 8.05429 2.65896C7.61008 2.21889 7.18081 1.7617 6.75717 1.29857C6.61222 1.14016 6.29671 1.14669 6.20369 1.3758C5.9453 2.01327 6.02798 2.755 6.07422 3.43549C6.09169 3.69336 6.09341 4.03612 6.13168 4.36493C5.41681 4.06548 4.69343 3.78509 3.981 3.49247C3.70171 3.37786 3.46296 3.71439 3.52346 3.98801C3.7339 4.93836 3.92155 5.91458 4.22312 6.84066C3.38211 6.77368 2.55154 6.70586 1.71556 6.52144C1.42162 6.45662 1.11855 6.79387 1.30199 7.10404C1.74006 7.84391 2.21817 8.63374 2.77459 9.31975C2.5313 9.41932 2.29382 9.54412 2.06215 9.65335C1.46603 9.9344 0.883614 10.2454 0.311213 10.5792C0.0247906 10.7463 0.0626742 11.176 0.311213 11.3526C0.941961 11.8007 1.55252 12.2796 2.16502 12.7555C1.54389 13.2936 0.935269 13.8476 0.293736 14.3586C0.0370682 14.5631 0.0599089 14.983 0.382666 15.0964C0.886269 15.2734 1.38683 15.4598 1.88219 15.6623C2.16082 15.7761 2.43939 15.918 2.72188 16.0397C2.21911 16.7867 1.78231 17.5904 1.30194 18.3532C1.13348 18.6204 1.35802 18.9805 1.63437 18.9809C2.46455 18.982 3.29301 19.012 4.12186 19.0417C3.93487 19.8678 3.76703 20.6995 3.57479 21.5244C3.50809 21.8099 3.76232 22.1571 4.05024 22.0396C4.59587 21.8169 5.14151 21.5942 5.68725 21.3715C5.84426 21.3074 6.05763 21.2501 6.26065 21.1729C6.1329 22.1517 6.15579 23.1812 6.07582 24.1553C6.05414 24.4206 6.32707 24.5977 6.54044 24.5387C7.07175 24.3916 7.43991 23.9639 7.88063 23.6321C8.17413 23.4112 8.52001 23.2386 8.83154 23.0292C9.02942 23.9265 9.36849 24.8176 9.58583 25.6984C9.67886 26.0761 10.1166 26.087 10.3039 25.8001C10.8082 25.0271 11.3633 24.2405 11.8042 23.4158C11.9225 23.6214 12.0499 23.8217 12.1698 24.0216C12.4817 24.5414 12.7948 25.0614 13.1209 25.5709C13.2714 25.8062 13.6519 25.8764 13.787 25.5709C14.123 24.811 14.4348 24.0303 14.7272 23.2438C14.9103 23.4632 15.0995 23.6715 15.2835 23.8489C15.702 24.2525 16.4266 25.0116 17.0246 24.8276C17.1312 24.7949 17.1898 24.7056 17.2253 24.6059C17.2648 24.5587 17.2955 24.5056 17.3046 24.445C17.4631 23.3917 17.5915 22.304 17.582 21.2308C17.8689 21.3903 18.1773 21.5186 18.4676 21.6427C19.017 21.8776 19.569 22.1054 20.1197 22.3362C20.3742 22.4429 20.6791 22.1139 20.5799 21.8377C20.378 21.2763 20.1741 20.7187 20.0093 20.1427C19.9179 19.8233 19.8475 19.4922 19.7604 19.1689L19.7416 18.8917C20.589 18.989 21.4831 18.9295 22.3173 18.9426C22.605 18.9472 22.8191 18.5745 22.6559 18.3034C22.2359 17.6047 21.8282 16.7537 21.3137 16.0775C21.5516 15.9999 21.7861 15.8957 22.0138 15.8119C22.5088 15.6296 22.9993 15.4352 23.49 15.2399C23.8129 15.1114 23.9105 14.6313 23.5883 14.4247C22.9371 14.0068 22.3319 13.5405 21.7302 13.0595C22.4957 12.5364 23.3178 11.952 23.8305 11.1748ZM7.71422 13.3907C7.52535 13.2917 7.33477 13.1619 7.14121 12.9754C5.74084 11.6246 5.8801 8.92288 7.7802 8.2183C9.54662 7.56321 11.5685 8.82091 11.161 11.0382C10.8209 12.8886 9.21712 13.4209 7.71422 13.3907ZM10.1145 17.6072C9.70336 17.5931 9.28774 17.6244 8.88286 17.6607C8.64444 17.682 8.39098 17.7003 8.14095 17.7361C10.3994 14.6369 12.1259 11.2617 13.9563 7.89573C14.2935 7.87476 14.6297 7.84277 14.9671 7.80077C12.994 10.7653 11.3573 14.2987 10.1145 17.6072ZM15.1009 17.6656C14.4943 17.7146 13.9581 17.608 13.5324 17.3234C12.5219 16.2088 12.272 14.3958 13.3461 13.1289C14.5561 11.7015 16.7289 12.0338 17.5107 13.7676C18.3561 15.6425 16.8497 17.5244 15.1009 17.6656Z" fill="#624D49"/>
<path d="M14.9194 22.334C14.9233 22.334 14.9233 22.3281 14.9194 22.3281V22.334Z" fill="#624D49"/>
</svg>
