<svg width="24" height="26" viewBox="0 0 24 26" fill="none" xmlns="http://www.w3.org/2000/svg">
<path d="M2.37674 26C2.99437 26 3.55763 25.8165 3.98073 25.5164C4.40383 25.8165 4.96709 26 5.58472 26C6.20215 26 6.76515 25.8165 7.18812 25.5165C7.61122 25.8165 8.17442 26 8.79205 26C9.40968 26 9.97294 25.8165 10.396 25.5164C10.8191 25.8165 11.3824 26 12 26C12.6177 26 13.1809 25.8165 13.604 25.5164C14.0271 25.8165 14.5904 26 15.208 26C15.8255 26 16.3884 25.8165 16.8114 25.5165C17.2345 25.8165 17.7977 26 18.4153 26C19.033 26 19.5962 25.8165 20.0193 25.5164C20.4424 25.8165 21.0057 26 21.6233 26C22.9338 26 24 25.1745 24 24.1598C24 24.1583 23.9997 24.1567 23.9997 24.1552C23.9995 24.1415 23.9984 24.1277 23.997 24.1139C23.9964 24.1075 23.9961 24.101 23.9952 24.0946C23.9936 24.0831 23.9909 24.0717 23.9884 24.0601C23.9866 24.0515 23.985 24.0427 23.9827 24.0343C23.9804 24.0261 23.9773 24.0179 23.9746 24.0098C23.9707 23.9982 23.9669 23.9866 23.9621 23.9752C23.9597 23.9695 23.9566 23.9638 23.954 23.958C23.9478 23.9447 23.9414 23.9315 23.9341 23.9186C23.9333 23.9173 23.9328 23.9158 23.932 23.9145L19.114 15.6168C19.0476 15.4942 18.9825 15.3645 18.9204 15.2309C18.4837 14.2949 18.2659 13.3146 18.2733 12.3169C18.2793 11.4474 18.458 10.59 18.8036 9.76407H23.2274C23.654 9.76407 24 9.4962 24 9.16586V9.06359C24 7.189 22.0303 5.66389 19.6092 5.66389H13.104V4.23785C13.104 4.23445 13.1034 4.23109 13.1033 4.22769C13.1033 4.22429 13.104 4.22094 13.104 4.21754C13.104 3.8872 12.758 3.61933 12.3314 3.61933C11.4686 3.61933 10.7668 3.07592 10.7668 2.40795C10.7668 1.73997 11.4686 1.19656 12.3314 1.19656C13.1945 1.19656 13.8967 1.73997 13.8967 2.40795C13.8967 2.73828 14.2427 3.00615 14.6694 3.00615C15.096 3.00615 15.442 2.73828 15.442 2.40795C15.442 1.08017 14.0466 0 12.3314 0C10.6167 0 9.22158 1.08017 9.22158 2.40784C9.22158 3.52909 10.2166 4.47378 11.5588 4.74043V5.66399H4.39091C1.96977 5.66399 6.55508e-05 7.1891 6.55508e-05 9.06369V9.16596C6.55508e-05 9.4963 0.346036 9.76417 0.772679 9.76417H5.19645C5.54222 10.5903 5.72094 11.4476 5.72678 12.3172C5.73413 13.3147 5.51638 14.295 5.07944 15.2315C5.01746 15.3646 4.9524 15.4943 4.88596 15.6169L0.0680132 23.9145C0.0672262 23.9159 0.0667016 23.9173 0.0659146 23.9187C0.0585689 23.9315 0.0522069 23.9448 0.0460417 23.9581C0.0434182 23.9638 0.0403356 23.9695 0.0379089 23.9752C0.0331866 23.9866 0.0293824 23.9982 0.0254472 24.0098C0.0226926 24.018 0.0195449 24.0261 0.0173149 24.0343C0.0150194 24.0428 0.0134449 24.0515 0.0116085 24.0602C0.00905061 24.0716 0.00642738 24.0831 0.00478771 24.0946C0.0038695 24.101 0.00360712 24.1075 0.00301684 24.114C0.00163952 24.1277 0.000458928 24.1415 0.000327754 24.1551C0.000327754 24.1567 0 24.1582 0 24.1598C6.55869e-05 25.1745 1.06625 26 2.37674 26ZM21.6231 24.8035C21.1647 24.8035 20.7918 24.5148 20.7918 24.1598C20.7918 23.8295 20.4458 23.5616 20.0191 23.5616C19.5925 23.5616 19.2465 23.8295 19.2465 24.1598C19.2465 24.5148 18.8736 24.8035 18.4151 24.8035C17.9567 24.8035 17.5837 24.5148 17.5837 24.1598C17.5837 23.8295 17.2377 23.5616 16.8111 23.5616C16.3844 23.5616 16.0385 23.8295 16.0385 24.1598C16.0385 24.5148 15.6659 24.8035 15.2079 24.8035C14.7495 24.8035 14.3765 24.5148 14.3765 24.1598C14.3765 23.8295 14.0305 23.5616 13.6039 23.5616C13.1773 23.5616 12.8313 23.8295 12.8313 24.1598C12.8313 24.5148 12.4584 24.8035 11.9999 24.8035C11.5414 24.8035 11.1685 24.5148 11.1685 24.1598C11.1685 23.8295 10.8226 23.5616 10.3959 23.5616C9.96927 23.5616 9.6233 23.8295 9.6233 24.1598C9.6233 24.5148 9.25037 24.8035 8.79192 24.8035C8.3334 24.8035 7.96047 24.5148 7.96047 24.1598C7.96047 23.8295 7.6145 23.5616 7.18786 23.5616C6.76122 23.5616 6.41525 23.8295 6.41525 24.1598C6.41525 24.5148 6.04265 24.8035 5.58465 24.8035C5.12627 24.8035 4.75328 24.5148 4.75328 24.1598C4.75328 23.8295 4.4073 23.5616 3.98066 23.5616C3.55402 23.5616 3.20805 23.8295 3.20805 24.1598C3.20805 24.5148 2.83512 24.8035 2.37667 24.8035C1.96538 24.8035 1.6238 24.5708 1.55775 24.2667L2.66814 22.3545H21.3317L22.4421 24.2667C22.3761 24.5709 22.0344 24.8035 21.6231 24.8035ZM4.49565 19.2071H19.5043L20.637 21.158H3.36283L4.49565 19.2071ZM18.8096 18.0107H5.19041L6.29955 16.1006C6.30211 16.0962 6.30447 16.0918 6.30696 16.0873C6.31188 16.0782 6.31667 16.0685 6.32165 16.0592H12C12.4267 16.0592 12.7726 15.7913 12.7726 15.461C12.7726 15.1307 12.4267 14.8628 12 14.8628H6.84746C7.06882 14.2251 7.20419 13.5728 7.25227 12.912H16.7479C16.8156 13.8431 17.0562 14.7573 17.4666 15.6369C17.5388 15.7921 17.615 15.9436 17.6932 16.0874C17.6955 16.0918 17.698 16.0962 17.7006 16.1006L18.8096 18.0107ZM22.3819 8.56776H19.3546L20.1337 6.89838C21.2438 7.0593 22.1293 7.72073 22.3819 8.56776ZM14.309 6.86045C13.9851 7.60769 13.0728 8.14785 12 8.14785C10.9272 8.14785 10.0148 7.60779 9.69098 6.86045C9.69105 6.86045 14.309 6.86045 14.309 6.86045ZM8.09519 6.86045C8.45592 8.27445 10.0693 9.34426 11.9999 9.34426C13.9305 9.34426 15.5439 8.2745 15.9046 6.86045H18.5083L17.4675 9.09081C17.0715 9.93982 16.8331 10.8203 16.7557 11.7156H7.24413C7.16661 10.8202 6.92827 9.93967 6.53212 9.09035L5.49152 6.86045H8.09519V6.86045ZM3.86621 6.89838L4.64525 8.56776H1.61803C1.87067 7.72073 2.75602 7.0593 3.86621 6.89838Z" fill="#624D49"/>
<path d="M15.2876 14.8362C14.8603 14.8362 14.515 15.1042 14.515 15.4344C14.515 15.7646 14.8603 16.0326 15.2876 16.0326C15.7141 16.0326 16.0602 15.7646 16.0602 15.4344C16.0602 15.1042 15.714 14.8362 15.2876 14.8362Z" fill="#624D49"/>
</svg>
