<svg width="151" height="151" viewBox="0 0 151 151" fill="none" xmlns="http://www.w3.org/2000/svg">
<circle cx="75.5" cy="75.5" r="74.5" fill="#EF8410" stroke="#EF8410" stroke-width="2"/>
<g clip-path="url(#clip0_5_196)">
<path d="M61.9737 48.829L51.5368 59.1891L48.6829 56.3561L59.1198 45.996L61.9737 48.829V48.829Z" fill="white"/>
<path d="M120.202 75.5215L105.246 53.2438H86.84V69.502H80.1716V53.2438H75.102C73.4836 40.9921 63.052 31.6824 50.2416 31.6824C36.2807 31.6824 25.1667 42.9276 25.1667 56.5729C25.1667 65.7472 30.1777 73.7214 37.7041 77.9795V97.7991H47.6288C47.9408 103.954 53.0688 108.831 59.3473 108.831C65.6258 108.831 70.7539 103.935 71.0658 97.7991H86.7035C87.0155 103.954 92.1436 108.831 98.422 108.831C104.701 108.831 109.829 103.935 110.141 97.7991H120.241V75.5215H120.202V75.5215ZM98.383 57.2503H103.043L114.001 73.5085H98.383V57.2503V57.2503ZM29.2028 56.5536C29.2028 45.1147 38.5035 35.6695 50.2416 35.6695C61.7651 35.6695 71.2803 44.9018 71.2803 56.5536C71.2803 68.2053 61.9796 77.4376 50.2416 77.4376C38.5035 77.4376 29.2028 68.0117 29.2028 56.5536V56.5536ZM59.3473 104.631C55.2137 104.631 51.8599 101.302 51.8599 97.1991C51.8599 93.0958 55.2137 89.7667 59.3473 89.7667C63.481 89.7667 66.8347 93.0958 66.8347 97.1991C66.8347 101.302 63.4615 104.631 59.3473 104.631ZM98.4025 104.631C94.2689 104.631 90.9152 101.302 90.9152 97.1991C90.9152 93.0958 94.2689 89.7667 98.4025 89.7667C102.536 89.7667 105.89 93.0958 105.89 97.1991C105.89 101.302 102.536 104.631 98.4025 104.631ZM116.166 93.7732H109.614V93.7926C108.152 89.0312 103.687 85.5667 98.4025 85.5667C93.1185 85.5667 88.6534 89.0312 87.191 93.7926H70.5589C69.0965 89.0312 64.6314 85.5667 59.3473 85.5667C54.0632 85.5667 49.5981 89.0312 48.1357 93.7926H41.7403V79.8183C44.3921 80.7473 47.2388 81.2505 50.2416 81.2505C63.7539 81.2505 74.946 70.7795 75.297 57.2503H76.1159V73.5085H90.8762V57.2503H94.3274V77.515H116.166V93.7732V93.7732Z" fill="white"/>
<path d="M52.2499 38.3018H48.2137V41.9211H52.2499V38.3018Z" fill="white"/>
<path d="M52.2499 71.2053H48.2137V74.8247H52.2499V71.2053Z" fill="white"/>
<path d="M35.4813 54.5599H31.8351V58.5664H35.4813V54.5599Z" fill="white"/>
<path d="M68.648 54.5599H65.0018V58.5664H68.648V54.5599Z" fill="white"/>
</g>
<defs>
<clipPath id="clip0_5_196">
<rect width="95.0741" height="94.375" fill="white" transform="translate(25.1667 23.0695)"/>
</clipPath>
</defs>
</svg>
