<svg width="151" height="151" viewBox="0 0 151 151" fill="none" xmlns="http://www.w3.org/2000/svg">
<circle cx="75.5" cy="75.5" r="74.8148" fill="#EF8410" stroke="#EF8410" stroke-width="1.37037"/>
<path d="M106.683 90.3487L98.8921 84.0906C97.1041 82.6858 94.5498 82.5581 92.7617 83.9629L86.1205 88.8161C85.3543 89.4547 84.2048 89.327 83.4385 88.5607L73.4767 79.6206L64.5366 69.6588C63.7703 68.8925 63.7703 67.8708 64.2812 66.9768L69.1344 60.3356C70.5393 58.5475 70.4115 55.9932 69.0067 54.2052L62.7486 46.4146C60.8329 44.1157 57.3846 43.8603 55.2134 46.0314L48.5722 52.6726C47.5505 53.6944 47.0396 55.0992 47.0396 56.5041C47.6782 69.5311 53.5531 81.9195 62.2378 90.6041C70.9224 99.2888 83.3108 105.164 96.3378 105.802C97.7427 105.93 99.1475 105.291 100.169 104.27L106.81 97.6285C109.237 95.7127 109.109 92.1367 106.683 90.3487Z" fill="white"/>
</svg>
