<svg width="41" height="42" viewBox="0 0 41 42" fill="none" xmlns="http://www.w3.org/2000/svg">
<path d="M30.5862 13.7218C33.317 13.7218 35.5307 11.418 35.5307 8.57609C35.5307 5.73422 33.317 3.43042 30.5862 3.43042C27.8554 3.43042 25.6416 5.73422 25.6416 8.57609C25.6416 11.418 27.8554 13.7218 30.5862 13.7218Z" stroke="#624D49" stroke-width="2.55954" stroke-linecap="round" stroke-linejoin="round"/>
<path d="M10.8083 25.7285C13.5392 25.7285 15.7529 23.4247 15.7529 20.5828C15.7529 17.7409 13.5392 15.4371 10.8083 15.4371C8.07753 15.4371 5.86377 17.7409 5.86377 20.5828C5.86377 23.4247 8.07753 25.7285 10.8083 25.7285Z" stroke="#624D49" stroke-width="2.55954" stroke-linecap="round" stroke-linejoin="round"/>
<path d="M30.5862 37.7348C33.317 37.7348 35.5307 35.431 35.5307 32.5892C35.5307 29.7473 33.317 27.4435 30.5862 27.4435C27.8554 27.4435 25.6416 29.7473 25.6416 32.5892C25.6416 35.431 27.8554 37.7348 30.5862 37.7348Z" stroke="#624D49" stroke-width="2.55954" stroke-linecap="round" stroke-linejoin="round"/>
<path d="M15.0771 23.1729L26.3343 29.9994" stroke="#624D49" stroke-width="2.55954" stroke-linecap="round" stroke-linejoin="round"/>
<path d="M26.3178 11.1661L15.0771 17.9927" stroke="#624D49" stroke-width="2.55954" stroke-linecap="round" stroke-linejoin="round"/>
</svg>
