<?xml version='1.0' encoding='iso-8859-1'?>
<svg version="1.1" xmlns="http://www.w3.org/2000/svg" viewBox="0 0 487.6 487.6" xmlns:xlink="http://www.w3.org/1999/xlink" enable-background="new 0 0 487.6 487.6">
  <g>
    <g>
      <path d="m188.77,133.09l-53.527,53.527-14.637-14.637 53.527-53.527 14.637,14.637z"/>
      <path d="m487.4,271l-76.7-115.1h-94.4v84h-34.2v-84h-26c-8.3-63.3-61.8-111.4-127.5-111.4-71.6,0-128.6,58.1-128.6,128.6 0,47.4 25.7,88.6 64.3,110.6v102.4h50.9c1.6,31.8 27.9,57 60.1,57s58.5-25.3 60.1-57h80.2c1.6,31.8 27.9,57 60.1,57s58.5-25.3 60.1-57h51.8v-115.1h-0.2zm-111.9-94.4h23.9l56.2,84h-80.1v-84zm-354.8-3.6c1.06581e-14-59.1 47.7-107.9 107.9-107.9 59.1,0 107.9,47.7 107.9,107.9s-47.7,107.9-107.9,107.9-107.9-48.7-107.9-107.9zm154.6,248.4c-21.2,0-38.4-17.2-38.4-38.4s17.2-38.4 38.4-38.4 38.4,17.2 38.4,38.4-17.3,38.4-38.4,38.4zm200.3,0c-21.2,0-38.4-17.2-38.4-38.4s17.2-38.4 38.4-38.4c21.2,0 38.4,17.2 38.4,38.4s-17.2,38.4-38.4,38.4zm91.1-56.1h-33.6v0.1c-7.5-24.6-30.4-42.5-57.5-42.5-27.1,0-50,17.9-57.5,42.5h-85.3c-7.5-24.6-30.4-42.5-57.5-42.5s-50,17.9-57.5,42.5h-32.8v-72.2c13.6,4.8 28.2,7.4 43.6,7.4 69.3,0 126.7-54.1 128.5-124h4.2v84h75.7v-84h17.7v104.7h112v84z"/>
      <rect width="20.7" x="118.2" y="78.7" height="18.7"/>
      <rect width="20.7" x="118.2" y="248.7" height="18.7"/>
      <rect width="18.7" x="34.2" y="162.7" height="20.7"/>
      <rect width="18.7" x="204.3" y="162.7" height="20.7"/>
    </g>
  </g>
</svg>
