<?xml version="1.0" encoding="iso-8859-1"?>
<!-- Generator: Adobe Illustrator 19.0.0, SVG Export Plug-In . SVG Version: 6.00 Build 0)  -->
<svg version="1.1" id="Capa_1" xmlns="http://www.w3.org/2000/svg" xmlns:xlink="http://www.w3.org/1999/xlink" x="0px" y="0px"
	 viewBox="0 0 480 480" style="enable-background:new 0 0 480 480;" xml:space="preserve">
<path id="XMLID_1392_" d="M472.27,434.641L439.806,285.13c-3.068-14.13-10.298-26.777-20.912-36.575
	c-18.476-17.054-29.073-40.67-29.073-64.79v-69.075c0-10.859-5.695-20.806-14.863-25.958c-3.153-1.771-5.113-5.118-5.113-8.731V30
	c0-16.542-13.442-30-29.964-30h-19.976c-16.522,0-29.964,13.458-29.964,30v10c0,27.57-22.403,50-49.941,50s-49.941-22.43-49.941-50
	V30c0-16.542-13.442-30-29.964-30h-19.976c-16.522,0-29.964,13.458-29.964,30v50c0,3.613-1.96,6.96-5.113,8.731
	c-9.168,5.152-14.863,15.099-14.863,25.958v69.075c0,24.12-10.597,47.736-29.074,64.791C50.492,258.353,43.262,271,40.194,285.13
	L7.73,434.641c-1.09,5.02,1.796,10.05,6.676,11.636C82.29,468.339,160.3,480,240,480s157.71-11.661,225.595-33.724
	C470.475,444.69,473.361,439.66,472.27,434.641z M110.155,183.765v-69.075c0-3.637,1.787-6.9,4.664-8.518
	c9.445-5.307,15.312-15.336,15.312-26.172V30c0-5.514,4.481-10,9.988-10h19.976c5.507,0,9.988,4.486,9.988,10v10
	c0,38.599,31.364,70,69.917,70s69.917-31.401,69.917-70V30c0-5.514,4.481-10,9.988-10h19.976c5.507,0,9.988,4.486,9.988,10v50
	c0,10.836,5.867,20.865,15.312,26.173c2.877,1.616,4.664,4.88,4.664,8.517v69.075c0,6.062,0.539,12.093,1.59,18.031
	c-19.63,4.782-40.255,8.47-61.519,10.999V200c0-5.522-4.472-10-9.988-10h-29.964c-11.919,0-22.638,5.254-29.964,13.569
	C232.674,195.254,221.955,190,210.036,190h-29.964c-5.516,0-9.988,4.478-9.988,10v12.795c-21.264-2.529-41.888-6.216-61.519-10.999
	C109.615,195.857,110.155,189.826,110.155,183.765z M289.941,210v13.808c-0.001,0.082-0.001,0.163,0,0.245V250h-19.976
	c-11.015,0-19.976-8.972-19.976-20s8.961-20,19.976-20H289.941z M230.012,230c0,11.028-8.961,20-19.976,20h-19.976v-25.947
	c0.001-0.082,0.001-0.163,0-0.245V210h19.976C221.051,210,230.012,218.972,230.012,230z M367.166,449.589l-27.706-92.462
	c-1.586-5.29-7.158-8.29-12.436-6.705c-5.284,1.587-8.282,7.162-6.697,12.451l26.902,89.78c-31.607,4.411-64.232,6.871-97.24,7.284
	V330c0-5.522-4.472-10-9.988-10s-9.988,4.478-9.988,10v129.938c-33.008-0.413-65.633-2.873-97.24-7.284l26.902-89.78
	c1.585-5.289-1.413-10.864-6.697-12.451c-5.284-1.592-10.851,1.415-12.436,6.705l-27.706,92.462
	c-29.055-4.882-57.113-11.445-83.649-19.611l30.529-140.6c2.192-10.092,7.355-19.123,14.932-26.118
	c12.862-11.872,22.597-26.391,28.592-42.178c21.315,5.221,43.736,9.195,66.845,11.849V260c0,5.522,4.472,10,9.988,10h29.964
	c11.919,0,22.638-5.254,29.964-13.569c7.326,8.315,18.045,13.569,29.964,13.569h29.964c5.516,0,9.988-4.478,9.988-10v-27.069
	c23.109-2.653,45.531-6.628,66.845-11.85c5.995,15.788,15.73,30.307,28.592,42.178c7.578,6.996,12.741,16.027,14.932,26.119
	l30.529,140.6C424.279,438.144,396.221,444.707,367.166,449.589z"/>
<g>
</g>
<g>
</g>
<g>
</g>
<g>
</g>
<g>
</g>
<g>
</g>
<g>
</g>
<g>
</g>
<g>
</g>
<g>
</g>
<g>
</g>
<g>
</g>
<g>
</g>
<g>
</g>
<g>
</g>
</svg>
