<svg width="30" height="30" viewBox="0 0 30 30" fill="none" xmlns="http://www.w3.org/2000/svg">
<path d="M7.28728 14.313L21.3182 0.283526C21.5058 0.0930548 21.75 0 22.003 0C22.2517 0 22.5017 0.0930548 22.6908 0.283526L22.7097 0.300974C22.8929 0.48563 22.9961 0.735715 22.9961 0.991615V7.79916C22.9961 8.05797 22.8929 8.30514 22.7097 8.48398L16.1944 15.0007L22.7097 21.5131C22.8929 21.6963 22.9961 21.9406 22.9961 22.2038V29.0084C22.9961 29.2701 22.8929 29.5231 22.7097 29.699L22.6908 29.7136C22.5105 29.8982 22.2633 30 22.003 30C21.7428 30 21.497 29.8982 21.3138 29.7136L7.28728 15.6885C6.90924 15.3119 6.90924 14.691 7.28728 14.313Z" fill="#624D49"/>
</svg>
