<svg width="140" height="140" viewBox="0 0 140 140" fill="none" xmlns="http://www.w3.org/2000/svg">
<circle cx="70" cy="70" r="70" fill="#EF8410"/>
<path d="M45.3358 66.512C43.7998 66.512 42.2424 66.3413 40.6638 66C39.0851 65.6587 37.6984 65.1573 36.5038 64.496L39.0638 58.928C40.0238 59.4827 41.0264 59.8987 42.0718 60.176C43.1171 60.432 44.1091 60.56 45.0478 60.56C45.9011 60.56 46.6051 60.4107 47.1598 60.112C47.7144 59.8133 47.9918 59.376 47.9918 58.8C47.9918 58.48 47.8958 58.2027 47.7038 57.968C47.5118 57.712 47.1704 57.52 46.6798 57.392C46.2104 57.264 45.5171 57.2 44.5998 57.2H38.1038L39.2238 43.6H54.1038V49.296H41.8798L45.6878 46.064L45.0158 54.736L41.2078 51.504H46.4238C48.6424 51.504 50.4131 51.824 51.7358 52.464C53.0798 53.104 54.0504 53.968 54.6478 55.056C55.2664 56.1227 55.5758 57.3173 55.5758 58.64C55.5758 59.9627 55.2131 61.232 54.4878 62.448C53.7838 63.6427 52.6744 64.624 51.1598 65.392C49.6664 66.1387 47.7251 66.512 45.3358 66.512ZM67.2283 66.512C65.2443 66.512 63.4843 66.0533 61.9483 65.136C60.4336 64.2187 59.2389 62.8853 58.3643 61.136C57.5109 59.3867 57.0843 57.2747 57.0843 54.8C57.0843 52.3253 57.5109 50.2133 58.3643 48.464C59.2389 46.7147 60.4336 45.3813 61.9483 44.464C63.4843 43.5467 65.2443 43.088 67.2283 43.088C69.2123 43.088 70.9616 43.5467 72.4763 44.464C74.0123 45.3813 75.2069 46.7147 76.0603 48.464C76.9349 50.2133 77.3723 52.3253 77.3723 54.8C77.3723 57.2747 76.9349 59.3867 76.0603 61.136C75.2069 62.8853 74.0123 64.2187 72.4763 65.136C70.9616 66.0533 69.2123 66.512 67.2283 66.512ZM67.2283 60.464C67.7189 60.464 68.1563 60.2933 68.5403 59.952C68.9243 59.6107 69.2229 59.024 69.4363 58.192C69.6709 57.36 69.7883 56.2293 69.7883 54.8C69.7883 53.3493 69.6709 52.2187 69.4363 51.408C69.2229 50.576 68.9243 49.9893 68.5403 49.648C68.1563 49.3067 67.7189 49.136 67.2283 49.136C66.7376 49.136 66.3003 49.3067 65.9163 49.648C65.5323 49.9893 65.2229 50.576 64.9883 51.408C64.7749 52.2187 64.6683 53.3493 64.6683 54.8C64.6683 56.2293 64.7749 57.36 64.9883 58.192C65.2229 59.024 65.5323 59.6107 65.9163 59.952C66.3003 60.2933 66.7376 60.464 67.2283 60.464ZM82.6325 66L97.9285 43.6H103.337L88.0405 66H82.6325ZM84.7765 55.76C83.6458 55.76 82.6325 55.5253 81.7365 55.056C80.8405 54.5653 80.1258 53.8507 79.5925 52.912C79.0805 51.9733 78.8245 50.8427 78.8245 49.52C78.8245 48.1973 79.0805 47.0773 79.5925 46.16C80.1258 45.2213 80.8405 44.5067 81.7365 44.016C82.6325 43.5253 83.6458 43.28 84.7765 43.28C85.9072 43.28 86.9205 43.5253 87.8165 44.016C88.7125 44.5067 89.4165 45.2213 89.9285 46.16C90.4618 47.0773 90.7285 48.1973 90.7285 49.52C90.7285 50.8427 90.4618 51.9733 89.9285 52.912C89.4165 53.8507 88.7125 54.5653 87.8165 55.056C86.9205 55.5253 85.9072 55.76 84.7765 55.76ZM84.7765 52.304C85.1392 52.304 85.4592 52.112 85.7365 51.728C86.0352 51.3227 86.1845 50.5867 86.1845 49.52C86.1845 48.4533 86.0352 47.728 85.7365 47.344C85.4592 46.9387 85.1392 46.736 84.7765 46.736C84.4352 46.736 84.1152 46.9387 83.8165 47.344C83.5178 47.728 83.3685 48.4533 83.3685 49.52C83.3685 50.5867 83.5178 51.3227 83.8165 51.728C84.1152 52.112 84.4352 52.304 84.7765 52.304ZM101.193 66.32C100.062 66.32 99.0485 66.0853 98.1525 65.616C97.2565 65.1253 96.5418 64.4107 96.0085 63.472C95.4965 62.5333 95.2405 61.4027 95.2405 60.08C95.2405 58.7573 95.4965 57.6373 96.0085 56.72C96.5418 55.7813 97.2565 55.0667 98.1525 54.576C99.0485 54.0853 100.062 53.84 101.193 53.84C102.323 53.84 103.337 54.0853 104.233 54.576C105.129 55.0667 105.833 55.7813 106.345 56.72C106.878 57.6373 107.145 58.7573 107.145 60.08C107.145 61.4027 106.878 62.5333 106.345 63.472C105.833 64.4107 105.129 65.1253 104.233 65.616C103.337 66.0853 102.323 66.32 101.193 66.32ZM101.193 62.864C101.555 62.864 101.875 62.672 102.153 62.288C102.451 61.8827 102.601 61.1467 102.601 60.08C102.601 59.0133 102.451 58.288 102.153 57.904C101.875 57.4987 101.555 57.296 101.193 57.296C100.851 57.296 100.531 57.4987 100.233 57.904C99.9338 58.288 99.7845 59.0133 99.7845 60.08C99.7845 61.1467 99.9338 61.8827 100.233 62.288C100.531 62.672 100.851 62.864 101.193 62.864Z" fill="white"/>
<path d="M53.7452 99.24C52.4332 99.24 51.2252 99.024 50.1212 98.592C49.0172 98.16 48.0572 97.56 47.2412 96.792C46.4252 96.008 45.7932 95.096 45.3452 94.056C44.8972 93 44.6732 91.848 44.6732 90.6C44.6732 89.352 44.8972 88.208 45.3452 87.168C45.7932 86.112 46.4252 85.2 47.2412 84.432C48.0572 83.648 49.0172 83.04 50.1212 82.608C51.2252 82.176 52.4252 81.96 53.7212 81.96C55.0332 81.96 56.2332 82.176 57.3212 82.608C58.4252 83.04 59.3852 83.648 60.2012 84.432C61.0172 85.2 61.6492 86.112 62.0972 87.168C62.5452 88.208 62.7692 89.352 62.7692 90.6C62.7692 91.848 62.5452 93 62.0972 94.056C61.6492 95.112 61.0172 96.024 60.2012 96.792C59.3852 97.56 58.4252 98.16 57.3212 98.592C56.2332 99.024 55.0412 99.24 53.7452 99.24ZM53.7212 96.504C54.5692 96.504 55.3532 96.36 56.0732 96.072C56.7932 95.784 57.4172 95.376 57.9452 94.848C58.4732 94.304 58.8812 93.68 59.1692 92.976C59.4732 92.256 59.6252 91.464 59.6252 90.6C59.6252 89.736 59.4732 88.952 59.1692 88.248C58.8812 87.528 58.4732 86.904 57.9452 86.376C57.4172 85.832 56.7932 85.416 56.0732 85.128C55.3532 84.84 54.5692 84.696 53.7212 84.696C52.8732 84.696 52.0892 84.84 51.3692 85.128C50.6652 85.416 50.0412 85.832 49.4972 86.376C48.9692 86.904 48.5532 87.528 48.2492 88.248C47.9612 88.952 47.8172 89.736 47.8172 90.6C47.8172 91.448 47.9612 92.232 48.2492 92.952C48.5532 93.672 48.9692 94.304 49.4972 94.848C50.0252 95.376 50.6492 95.784 51.3692 96.072C52.0892 96.36 52.8732 96.504 53.7212 96.504ZM68.9323 89.928H77.3083V92.568H68.9323V89.928ZM69.1963 99H66.0763V82.2H78.3403V84.816H69.1963V99ZM84.2136 89.928H92.5896V92.568H84.2136V89.928ZM84.4776 99H81.3576V82.2H93.6216V84.816H84.4776V99Z" fill="white"/>
</svg>
