<svg width="140" height="140" viewBox="0 0 140 140" fill="none" xmlns="http://www.w3.org/2000/svg">
<circle cx="70" cy="70" r="70" fill="#EF8410"/>
<path d="M43.3358 92.512C41.7998 92.512 40.2424 92.3413 38.6638 92C37.0851 91.6587 35.6984 91.1573 34.5038 90.496L37.0638 84.928C38.0238 85.4827 39.0264 85.8987 40.0718 86.176C41.1171 86.432 42.1091 86.56 43.0478 86.56C43.9011 86.56 44.6051 86.4107 45.1598 86.112C45.7144 85.8133 45.9918 85.376 45.9918 84.8C45.9918 84.48 45.8958 84.2027 45.7038 83.968C45.5118 83.712 45.1704 83.52 44.6798 83.392C44.2104 83.264 43.5171 83.2 42.5998 83.2H36.1038L37.2238 69.6H52.1038V75.296H39.8798L43.6878 72.064L43.0158 80.736L39.2078 77.504H44.4238C46.6424 77.504 48.4131 77.824 49.7358 78.464C51.0798 79.104 52.0504 79.968 52.6478 81.056C53.2664 82.1227 53.5758 83.3173 53.5758 84.64C53.5758 85.9627 53.2131 87.232 52.4878 88.448C51.7838 89.6427 50.6744 90.624 49.1598 91.392C47.6664 92.1387 45.7251 92.512 43.3358 92.512ZM65.2283 92.512C63.2443 92.512 61.4843 92.0533 59.9483 91.136C58.4336 90.2187 57.2389 88.8853 56.3643 87.136C55.5109 85.3867 55.0843 83.2747 55.0843 80.8C55.0843 78.3253 55.5109 76.2133 56.3643 74.464C57.2389 72.7147 58.4336 71.3813 59.9483 70.464C61.4843 69.5467 63.2443 69.088 65.2283 69.088C67.2123 69.088 68.9616 69.5467 70.4763 70.464C72.0123 71.3813 73.2069 72.7147 74.0603 74.464C74.9349 76.2133 75.3723 78.3253 75.3723 80.8C75.3723 83.2747 74.9349 85.3867 74.0603 87.136C73.2069 88.8853 72.0123 90.2187 70.4763 91.136C68.9616 92.0533 67.2123 92.512 65.2283 92.512ZM65.2283 86.464C65.7189 86.464 66.1563 86.2933 66.5403 85.952C66.9243 85.6107 67.2229 85.024 67.4363 84.192C67.6709 83.36 67.7883 82.2293 67.7883 80.8C67.7883 79.3493 67.6709 78.2187 67.4363 77.408C67.2229 76.576 66.9243 75.9893 66.5403 75.648C66.1563 75.3067 65.7189 75.136 65.2283 75.136C64.7376 75.136 64.3003 75.3067 63.9163 75.648C63.5323 75.9893 63.2229 76.576 62.9883 77.408C62.7749 78.2187 62.6683 79.3493 62.6683 80.8C62.6683 82.2293 62.7749 83.36 62.9883 84.192C63.2229 85.024 63.5323 85.6107 63.9163 85.952C64.3003 86.2933 64.7376 86.464 65.2283 86.464ZM80.6325 92L95.9285 69.6H101.337L86.0405 92H80.6325ZM82.7765 81.76C81.6458 81.76 80.6325 81.5253 79.7365 81.056C78.8405 80.5653 78.1258 79.8507 77.5925 78.912C77.0805 77.9733 76.8245 76.8427 76.8245 75.52C76.8245 74.1973 77.0805 73.0773 77.5925 72.16C78.1258 71.2213 78.8405 70.5067 79.7365 70.016C80.6325 69.5253 81.6458 69.28 82.7765 69.28C83.9072 69.28 84.9205 69.5253 85.8165 70.016C86.7125 70.5067 87.4165 71.2213 87.9285 72.16C88.4618 73.0773 88.7285 74.1973 88.7285 75.52C88.7285 76.8427 88.4618 77.9733 87.9285 78.912C87.4165 79.8507 86.7125 80.5653 85.8165 81.056C84.9205 81.5253 83.9072 81.76 82.7765 81.76ZM82.7765 78.304C83.1392 78.304 83.4592 78.112 83.7365 77.728C84.0352 77.3227 84.1845 76.5867 84.1845 75.52C84.1845 74.4533 84.0352 73.728 83.7365 73.344C83.4592 72.9387 83.1392 72.736 82.7765 72.736C82.4352 72.736 82.1152 72.9387 81.8165 73.344C81.5178 73.728 81.3685 74.4533 81.3685 75.52C81.3685 76.5867 81.5178 77.3227 81.8165 77.728C82.1152 78.112 82.4352 78.304 82.7765 78.304ZM99.1925 92.32C98.0618 92.32 97.0485 92.0853 96.1525 91.616C95.2565 91.1253 94.5418 90.4107 94.0085 89.472C93.4965 88.5333 93.2405 87.4027 93.2405 86.08C93.2405 84.7573 93.4965 83.6373 94.0085 82.72C94.5418 81.7813 95.2565 81.0667 96.1525 80.576C97.0485 80.0853 98.0618 79.84 99.1925 79.84C100.323 79.84 101.337 80.0853 102.233 80.576C103.129 81.0667 103.833 81.7813 104.345 82.72C104.878 83.6373 105.145 84.7573 105.145 86.08C105.145 87.4027 104.878 88.5333 104.345 89.472C103.833 90.4107 103.129 91.1253 102.233 91.616C101.337 92.0853 100.323 92.32 99.1925 92.32ZM99.1925 88.864C99.5552 88.864 99.8752 88.672 100.153 88.288C100.451 87.8827 100.601 87.1467 100.601 86.08C100.601 85.0133 100.451 84.288 100.153 83.904C99.8752 83.4987 99.5552 83.296 99.1925 83.296C98.8512 83.296 98.5312 83.4987 98.2325 83.904C97.9338 84.288 97.7845 85.0133 97.7845 86.08C97.7845 87.1467 97.9338 87.8827 98.2325 88.288C98.5312 88.672 98.8512 88.864 99.1925 88.864Z" fill="white"/>
<path d="M59.8301 119.16C58.9555 119.16 58.1501 119.016 57.4141 118.728C56.6781 118.44 56.0381 118.04 55.4941 117.528C54.9501 117.005 54.5288 116.397 54.2301 115.704C53.9315 115 53.7821 114.232 53.7821 113.4C53.7821 112.568 53.9315 111.805 54.2301 111.112C54.5288 110.408 54.9501 109.8 55.4941 109.288C56.0381 108.765 56.6781 108.36 57.4141 108.072C58.1501 107.784 58.9501 107.64 59.8141 107.64C60.6888 107.64 61.4888 107.784 62.2141 108.072C62.9501 108.36 63.5901 108.765 64.1341 109.288C64.6781 109.8 65.0995 110.408 65.3981 111.112C65.6968 111.805 65.8461 112.568 65.8461 113.4C65.8461 114.232 65.6968 115 65.3981 115.704C65.0995 116.408 64.6781 117.016 64.1341 117.528C63.5901 118.04 62.9501 118.44 62.2141 118.728C61.4888 119.016 60.6941 119.16 59.8301 119.16ZM59.8141 117.336C60.3795 117.336 60.9021 117.24 61.3821 117.048C61.8621 116.856 62.2781 116.584 62.6301 116.232C62.9821 115.869 63.2541 115.453 63.4461 114.984C63.6488 114.504 63.7501 113.976 63.7501 113.4C63.7501 112.824 63.6488 112.301 63.4461 111.832C63.2541 111.352 62.9821 110.936 62.6301 110.584C62.2781 110.221 61.8621 109.944 61.3821 109.752C60.9021 109.56 60.3795 109.464 59.8141 109.464C59.2488 109.464 58.7261 109.56 58.2461 109.752C57.7768 109.944 57.3608 110.221 56.9981 110.584C56.6461 110.936 56.3688 111.352 56.1661 111.832C55.9741 112.301 55.8781 112.824 55.8781 113.4C55.8781 113.965 55.9741 114.488 56.1661 114.968C56.3688 115.448 56.6461 115.869 56.9981 116.232C57.3501 116.584 57.7661 116.856 58.2461 117.048C58.7261 117.24 59.2488 117.336 59.8141 117.336ZM69.9549 112.952H75.5389V114.712H69.9549V112.952ZM70.1309 119H68.0509V107.8H76.2269V109.544H70.1309V119ZM80.1424 112.952H85.7264V114.712H80.1424V112.952ZM80.3184 119H78.2384V107.8H86.4144V109.544H80.3184V119Z" fill="white"/>
<path d="M45.9181 32V20.8H47.6301L52.5261 28.976H51.6301L56.4461 20.8H58.1581L58.1741 32H56.2061L56.1901 23.888H56.6061L52.5101 30.72H51.5821L47.4221 23.888H47.9021V32H45.9181ZM66.4473 32.16C65.5726 32.16 64.7673 32.016 64.0313 31.728C63.2953 31.44 62.6553 31.04 62.1113 30.528C61.5673 30.0053 61.146 29.3973 60.8473 28.704C60.5486 28 60.3993 27.232 60.3993 26.4C60.3993 25.568 60.5486 24.8053 60.8473 24.112C61.146 23.408 61.5673 22.8 62.1113 22.288C62.6553 21.7653 63.2953 21.36 64.0313 21.072C64.7673 20.784 65.5673 20.64 66.4313 20.64C67.306 20.64 68.106 20.784 68.8313 21.072C69.5673 21.36 70.2073 21.7653 70.7513 22.288C71.2953 22.8 71.7166 23.408 72.0153 24.112C72.314 24.8053 72.4633 25.568 72.4633 26.4C72.4633 27.232 72.314 28 72.0153 28.704C71.7166 29.408 71.2953 30.016 70.7513 30.528C70.2073 31.04 69.5673 31.44 68.8313 31.728C68.106 32.016 67.3113 32.16 66.4473 32.16ZM66.4313 30.336C66.9966 30.336 67.5193 30.24 67.9993 30.048C68.4793 29.856 68.8953 29.584 69.2473 29.232C69.5993 28.8693 69.8713 28.4533 70.0633 27.984C70.266 27.504 70.3673 26.976 70.3673 26.4C70.3673 25.824 70.266 25.3013 70.0633 24.832C69.8713 24.352 69.5993 23.936 69.2473 23.584C68.8953 23.2213 68.4793 22.944 67.9993 22.752C67.5193 22.56 66.9966 22.464 66.4313 22.464C65.866 22.464 65.3433 22.56 64.8633 22.752C64.394 22.944 63.978 23.2213 63.6153 23.584C63.2633 23.936 62.986 24.352 62.7833 24.832C62.5913 25.3013 62.4953 25.824 62.4953 26.4C62.4953 26.9653 62.5913 27.488 62.7833 27.968C62.986 28.448 63.2633 28.8693 63.6153 29.232C63.9673 29.584 64.3833 29.856 64.8633 30.048C65.3433 30.24 65.866 30.336 66.4313 30.336ZM74.6681 32V20.8H79.2761C80.2681 20.8 81.1161 20.96 81.8201 21.28C82.5347 21.6 83.0841 22.0587 83.4681 22.656C83.8521 23.2533 84.0441 23.9627 84.0441 24.784C84.0441 25.6053 83.8521 26.3147 83.4681 26.912C83.0841 27.4987 82.5347 27.952 81.8201 28.272C81.1161 28.5813 80.2681 28.736 79.2761 28.736H75.8201L76.7481 27.792V32H74.6681ZM81.9961 32L79.1641 27.936H81.3881L84.2361 32H81.9961ZM76.7481 28.016L75.8201 27.024H79.1801C80.0974 27.024 80.7854 26.8267 81.2441 26.432C81.7134 26.0373 81.9481 25.488 81.9481 24.784C81.9481 24.0693 81.7134 23.52 81.2441 23.136C80.7854 22.752 80.0974 22.56 79.1801 22.56H75.8201L76.7481 21.536V28.016ZM88.2912 25.456H93.8592V27.168H88.2912V25.456ZM88.4512 30.256H94.7712V32H86.3712V20.8H94.5472V22.544H88.4512V30.256ZM50.0182 53V43.56H46.3062V41.8H55.8102V43.56H52.0982V53H50.0182ZM65.2432 41.8H67.3232V53H65.2432V41.8ZM59.4512 53H57.3712V41.8H59.4512V53ZM65.4032 48.2H59.2752V46.424H65.4032V48.2ZM68.7403 53L73.7803 41.8H75.8283L80.8843 53H78.7083L74.3723 42.904H75.2043L70.8843 53H68.7403ZM71.0603 50.408L71.6203 48.776H77.6683L78.2283 50.408H71.0603ZM82.3087 53V41.8H84.0207L91.0447 50.424H90.1967V41.8H92.2607V53H90.5487L83.5247 44.376H84.3727V53H82.3087Z" fill="white"/>
</svg>
