<svg width="48" height="48" viewBox="0 0 48 48" fill="none" xmlns="http://www.w3.org/2000/svg">
<g clip-path="url(#clip0_5_234)">
<path d="M32.273 0.00748495C28.0091 0.500267 25.5881 5.17504 25.28 9.23549C24.7764 12.8452 26.3522 17.4514 30.1436 18.2814C33.4293 18.5744 36.0433 15.4876 37.1171 12.5431C38.3852 8.85745 38.4222 3.93558 35.3453 1.17442C34.4906 0.433722 33.3932 -0.0162267 32.273 0.00748495ZM14.8801 0.200743C11.3322 0.457399 9.51369 4.58055 9.76046 7.89022C9.79064 12.3156 12.2208 17.2928 16.6525 18.3433C19.9575 18.7007 22.1611 15.1955 22.3664 12.1306C22.7882 7.44013 20.71 1.75812 16.0038 0.341969C15.638 0.240946 15.2587 0.190807 14.8801 0.200743V0.200743ZM43.3887 14.4125C38.6286 14.7614 35.6184 19.8344 35.4115 24.4185C35.161 27.4039 37.0897 31.1583 40.3373 30.9525C45.194 30.4377 48.1222 25.0246 48.0015 20.3214C47.9703 17.6138 46.2544 14.5254 43.3887 14.4125ZM0.0368782 20.6008C-0.403868 25.6802 3.15053 31.4214 8.31392 31.7412C11.4434 31.5322 12.9191 27.8975 12.5605 25.0218C12.2747 20.7788 9.43766 16.4338 5.75167 15.8662C2.06568 15.2985 -0.0215651 17.9026 0.0368782 20.6008ZM24.5464 24.9339C19.7056 24.9452 15.2798 28.1103 12.9135 32.3928C10.931 35.5932 9.3103 39.2162 9.00205 43.0397C9.06949 45.9885 11.883 48.4426 14.7042 47.8553C18.7282 47.3329 22.3241 44.5384 26.5087 45.062C29.9862 45.3396 32.8542 48.0362 36.3653 47.997C39.7744 48.1251 41.7411 44.2183 40.441 41.1583C39.0419 36.777 36.3295 32.9665 33.4182 29.5347C31.0958 27.005 28.0541 24.8219 24.5464 24.9339Z" fill="#631000"/>
</g>
<defs>
<clipPath id="clip0_5_234">
<rect width="48" height="48" fill="white"/>
</clipPath>
</defs>
</svg>
