<svg width="21" height="21" viewBox="0 0 21 21" fill="none" xmlns="http://www.w3.org/2000/svg">
<g clip-path="url(#clip0_5_243)">
<path d="M15.6209 9.844L5.97089 0.195C5.84189 0.064 5.67389 0 5.49989 0C5.32889 0 5.15689 0.064 5.02689 0.195L5.01389 0.207C4.88789 0.334 4.81689 0.506 4.81689 0.682V5.364C4.81689 5.542 4.88789 5.712 5.01389 5.835L9.49489 10.317L5.01389 14.796C4.88789 14.922 4.81689 15.09 4.81689 15.271V19.951C4.81689 20.131 4.88789 20.305 5.01389 20.426L5.02689 20.436C5.15089 20.563 5.32089 20.633 5.49989 20.633C5.67889 20.633 5.84789 20.563 5.97389 20.436L15.6209 10.79C15.8809 10.531 15.8809 10.104 15.6209 9.844Z" fill="#624D49"/>
</g>
<defs>
<clipPath id="clip0_5_243">
<rect width="20.633" height="20.633" fill="white"/>
</clipPath>
</defs>
</svg>
