<?xml version="1.0" encoding="utf-8"?><svg version="1.1" id="Layer_1" xmlns="http://www.w3.org/2000/svg" xmlns:xlink="http://www.w3.org/1999/xlink" x="0px" y="0px" viewBox="0 0 122.88 107.17" style="enable-background:new 0 0 122.88 107.17" xml:space="preserve"><g><path d="M19.61,46.65c0.25-0.15,0.54-0.33,0.87-0.53c0.92-0.56,2.07-1.26,3.26-1.9c2.65-1.41,5.4-2.36,6.33-0.6l0,0l0,0 c1.05,1.97,1.95,6.78,2.64,12.19c0.99,7.75,1.57,16.8,1.57,20.41c-0.01,4.76-0.29,9.4-0.8,13.95c-0.48,4.24-1.15,8.42-2,12.54 l59.6-0.07c-0.72-4.36-1.31-8.74-1.74-13.14c-0.45-4.69-0.72-9.41-0.76-14.16c-0.04-5.05,0.17-10.14,0.69-15.27 c0.52-5.14,1.34-10.33,2.51-15.59c0.13-0.6,0.5-1.09,0.98-1.4c0.48-0.31,1.08-0.43,1.68-0.3l0,0c0.06,0.01,0.14,0.04,0.23,0.07 c0.05,0.02,0.1,0.04,0.15,0.06c0.03,0.01,0.05,0.02,0.08,0.03v0l8.29,3.82l14.24-18.71L83.53,5.5c-1.72,3.28-3.61,6.07-5.6,8.39 c-2.23,2.58-4.6,4.56-7.07,5.95c-1.37,0.77-2.78,1.36-4.2,1.77c-1.43,0.41-2.89,0.64-4.37,0.68c-1.47,0.04-2.93-0.1-4.39-0.42 c-1.46-0.32-2.91-0.82-4.35-1.5c-2.79-1.32-5.54-3.31-8.17-5.98c-2.39-2.43-4.7-5.41-6.86-8.95L5.43,28.21L19.61,46.65L19.61,46.65 z M26.59,48l-6.54,3.49c-0.02,0.01-0.04,0.02-0.06,0.03c-0.46,0.23-0.98,0.29-1.46,0.18c-0.5-0.11-0.96-0.39-1.3-0.82 c-0.01-0.02-0.02-0.03-0.03-0.05L0.56,29.17l0,0c-0.01-0.01-0.04-0.05-0.08-0.1c-0.03-0.04-0.06-0.08-0.08-0.11l-0.02-0.03 c-0.33-0.5-0.44-1.09-0.34-1.64c0.1-0.56,0.42-1.08,0.93-1.43l36.91-25.4c0.09-0.07,0.17-0.12,0.26-0.17 c0.48-0.27,1.02-0.34,1.53-0.24c0.51,0.1,0.98,0.38,1.32,0.82c0.07,0.09,0.14,0.19,0.19,0.28c2.16,3.84,4.46,7.02,6.84,9.55 c2.42,2.57,4.92,4.45,7.44,5.64c1.13,0.53,2.26,0.92,3.37,1.17c1.12,0.25,2.23,0.36,3.34,0.32c1.1-0.03,2.19-0.21,3.28-0.52 c1.08-0.31,2.16-0.77,3.23-1.37c2.22-1.25,4.37-3.1,6.4-5.58c1.99-2.42,3.86-5.44,5.57-9.05c0.01-0.01,0.01-0.03,0.02-0.04 c0.02-0.04,0.04-0.08,0.06-0.11C80.74,1.1,80.77,1.05,80.79,1l0,0c0.34-0.51,0.86-0.84,1.41-0.95c0.56-0.11,1.16-0.01,1.68,0.33 l0,0l37.99,25.26c0.01,0.01,0.03,0.02,0.04,0.03l0.01,0.01l0.02,0.01l0,0l0.04,0.03l0.01,0.01l0,0l0,0 c0.49,0.37,0.78,0.91,0.85,1.48c0.08,0.57-0.06,1.16-0.44,1.65l-16.75,21.99l-0.01,0.01c-0.31,0.42-0.75,0.71-1.23,0.83 c-0.48,0.13-1.01,0.09-1.5-0.13l-7.38-3.4c-0.89,4.46-1.53,8.87-1.94,13.23c-0.44,4.68-0.62,9.31-0.58,13.91 c0.04,4.88,0.33,9.75,0.83,14.61c0.5,4.85,1.2,9.7,2.06,14.57c0.01,0.03,0.01,0.07,0.01,0.1c0,0.03,0.01,0.06,0.01,0.09l0,0.02 c0,0.06,0.01,0.11,0.01,0.17c0,0.61-0.25,1.17-0.65,1.58l0,0l0,0l0,0c-0.41,0.4-0.96,0.65-1.57,0.65v0l-64.91,0.08 c-0.09,0-0.19,0-0.29-0.01c-0.1-0.01-0.2-0.02-0.3-0.05c-0.6-0.14-1.09-0.5-1.4-0.99c-0.31-0.48-0.43-1.08-0.29-1.68 c1.02-4.55,1.83-9.16,2.4-13.87c0.56-4.71,0.87-9.49,0.88-14.36c0.01-4.61-0.25-9.33-0.81-14.2C28.48,57.47,27.69,52.81,26.59,48 L26.59,48z"/></g></svg>