<svg id="Layer_1" width="17px" height="17px" data-name="Layer 1" xmlns="http://www.w3.org/2000/svg" viewBox="0 0 122.88 112.13"><defs><style>.cls-1{fill-rule:evenodd;}</style></defs><title>cloth-store</title><path class="cls-1" d="M106.09,46.4c-1.25-.59-4.33-1.39-5.3-2.35a12.25,12.25,0,0,1-2.12-2.88,12.25,12.25,0,0,1-2.12,2.88c-2.14,2.13-7,3.46-10.29,3.46S78.11,46.18,76,44.05a12.25,12.25,0,0,1-2.12-2.88,12.25,12.25,0,0,1-2.12,2.88c-2.14,2.13-7,3.46-10.29,3.46s-8.15-1.33-10.29-3.46A12.25,12.25,0,0,1,49,41.17a12.25,12.25,0,0,1-2.12,2.88c-2.14,2.13-7,3.46-10.29,3.46s-8.15-1.33-10.29-3.46a12.25,12.25,0,0,1-2.12-2.88,12.25,12.25,0,0,1-2.12,2.88c-1.41,1.4-5.12,2.46-7.08,3-3.95.48-8.61-.09-11.54-3A11.77,11.77,0,0,1,0,35.71V31.07H0a1.44,1.44,0,0,1,.17-.66L8.49,3.76C9.17,1.57,10.84.16,14.07,0h94.09c2.9.31,4.79,1.53,5.57,3.74l9,26.62a1.35,1.35,0,0,1,.19.63h0a.71.71,0,0,1,0,.14v4.58a11.77,11.77,0,0,1-3.47,8.34c-3.48,3.48-8.78,3.39-13.32,2.35Zm-85.4,60.35V64.43a9.78,9.78,0,0,1,9.74-9.74H91.5a9.78,9.78,0,0,1,9.74,9.74v42.32h6.81a1.13,1.13,0,0,0,1.13-1.13V52.8a22.55,22.55,0,0,0,5.38-.16v53a6.52,6.52,0,0,1-6.51,6.51H14.83a6.5,6.5,0,0,1-4.6-1.92h0a6.49,6.49,0,0,1-1.91-4.6V52.7a23.89,23.89,0,0,0,5.37.35v52.57a1.13,1.13,0,0,0,.34.8h0a1.12,1.12,0,0,0,.8.32Zm66.74-36.9a19.26,19.26,0,0,1-5.62-3.12c.77,2.64-1.41,8.67-4.38,15.61-2-5.39-4.4-11-4.33-15.61a10.24,10.24,0,0,1-2.59,1.81L67.43,69.9c-.91.39-1.25,1.4-1.31,2.71a182.2,182.2,0,0,0-1.77,23.14h4.53l.63-14.59A19,19,0,0,1,70.2,84a16.69,16.69,0,0,1,0,5.37l-.2,6.36h6.18v11h-31V99a4.92,4.92,0,0,0,.89-.54,4.65,4.65,0,0,0,2.75.37,4,4,0,0,0,2.17-1.27,3.46,3.46,0,0,0,1.74.27A2.62,2.62,0,0,0,54.6,96.7c2.32-3.14-.08-9.33-1.64-12a24.39,24.39,0,0,0-4.64-5.51v0a2.46,2.46,0,0,1-.44-.5,1.7,1.7,0,0,1-.21-.46,2,2,0,0,1,0-.73,3.87,3.87,0,0,1,.24-.83l1-2.28.48-1.07a2.62,2.62,0,0,0,0-2.38,2.67,2.67,0,0,0-1-1.07,3.59,3.59,0,0,0-.34-.17V67.1a.6.6,0,0,0-.6-.6.6.6,0,0,0-.6.6v2.37h0a4.4,4.4,0,0,0-3,1.2,4,4,0,0,0-2.83-1.17V67.1a.6.6,0,0,0-.6-.6.6.6,0,0,0-.6.6v2.64a2.64,2.64,0,0,0-.38.18A3,3,0,0,0,38.22,71a2.72,2.72,0,0,0-.16,2.5l.41,1,.75,1.86,0,.06c.83,1.62.25,2.16-.66,3-.26.25-.54.51-.84.83a20.55,20.55,0,0,0-2.17,2.66A19.47,19.47,0,0,0,32,93.6c0,.29,0,.47,0,.64-.05,1.48-.09,2.49,1.89,3.17a3.72,3.72,0,0,0,1.35.2,6.71,6.71,0,0,0,1-.13,4.66,4.66,0,0,0,2.52,1.3,4.08,4.08,0,0,0,2.5-.46,4.67,4.67,0,0,0,1.6.84v7.59H25.21V64.43a5.24,5.24,0,0,1,5.22-5.22H91.49a5.22,5.22,0,0,1,5.22,5.22v42.32h-18v-11H84.9l-.18-6.37a17.66,17.66,0,0,1,.06-5.13q.24-1.51.63-3.09L86,95.8h4.53A166.09,166.09,0,0,0,88.78,73c0-1.76-.41-2.81-1.35-3.16Zm-6.1,5.51h3.52a.06.06,0,0,1,.06.06v.78a.06.06,0,0,1-.06,0H81.33a.06.06,0,0,1-.06,0v-.78s0-.06.06-.06Zm-3.88,7.56a.53.53,0,1,1-.53.53.53.53,0,0,1,.53-.53Z"/></svg>