<?xml version="1.0"  encoding="utf-8"?><svg version="1.1" id="Layer_1" xmlns="http://www.w3.org/2000/svg" xmlns:xlink="http://www.w3.org/1999/xlink" x="0px" y="0px" viewBox="0 0 93.58 122.88" width="17px" height="17px" style="enable-background:new 0 0 93.58 122.88" xml:space="preserve"><g><path d="M46.79,16.56c8.35,0,15.9,3.38,21.38,8.85c5.47,5.47,8.85,13.03,8.85,21.38c0,7.98-3.09,15.24-8.14,20.64 c-0.52-2.83-1.3-5.38-2.3-7.64c2.46-3.73,3.89-8.2,3.89-13c0-6.54-2.65-12.46-6.93-16.74c-4.28-4.28-10.2-6.93-16.74-6.93 c-6.54,0-12.46,2.65-16.74,6.93c-4.28,4.28-6.93,10.2-6.93,16.74c0,4.99,1.54,9.62,4.18,13.44c-1.01,2.23-1.81,4.72-2.35,7.46 c-5.19-5.43-8.38-12.79-8.38-20.9c0-8.35,3.38-15.9,8.85-21.38C30.88,19.94,38.44,16.56,46.79,16.56L46.79,16.56z M30.79,66.93 c2.55-9.53,32.11-7.76,32.11-0.35C62.88,143.24,30.77,139.93,30.79,66.93L30.79,66.93z M46.94,32.81c7.06,0,12.78,5.72,12.78,12.78 c0,7.06-5.72,12.78-12.78,12.78c-7.06,0-12.78-5.72-12.78-12.78C34.16,38.53,39.88,32.81,46.94,32.81L46.94,32.81z M46.79,0 c12.92,0,24.62,5.24,33.08,13.7c8.47,8.47,13.7,20.16,13.7,33.08c0,12.92-5.24,24.62-13.7,33.08c-3.32,3.32-7.14,6.14-11.33,8.35 c0.3-2.31,0.57-4.7,0.79-7.2c0.03-0.32,0.05-0.64,0.07-0.96c2.09-1.43,4.04-3.04,5.83-4.83c7.28-7.28,11.78-17.34,11.78-28.45 c0-11.11-4.5-21.17-11.78-28.45C67.96,11.06,57.9,6.55,46.79,6.55c-11.11,0-21.17,4.5-28.45,11.78 C11.06,25.62,6.55,35.68,6.55,46.79c0,11.11,4.5,21.17,11.78,28.45c1.83,1.83,3.83,3.48,5.97,4.93c0.03,0.46,0.06,0.91,0.11,1.38 c0.23,2.34,0.5,4.59,0.8,6.77c-4.27-2.22-8.15-5.08-11.52-8.45C5.24,71.41,0,59.71,0,46.79C0,33.87,5.24,22.17,13.7,13.7 C22.17,5.24,33.87,0,46.79,0L46.79,0z"/></g></svg>