<?xml version="1.0" encoding="iso-8859-1"?>
<!-- Generator: Adobe Illustrator 19.0.0, SVG Export Plug-In . SVG Version: 6.00 Build 0)  -->
<svg version="1.1" id="Capa_1" xmlns="http://www.w3.org/2000/svg" xmlns:xlink="http://www.w3.org/1999/xlink" x="0px" y="0px"
	 viewBox="0 0 512 512" style="enable-background:new 0 0 512 512;" xml:space="preserve" width="17px" height="17px">
<g>
	<g>
		<path d="M506.938,129.589c-0.284-0.176-0.629-0.139-0.924-0.286l0.091-0.182l-128-64l-0.078,0.156
			c-3.096-1.526-6.738-1.625-9.797,0.021L256,126.517L143.771,65.298c-3.042-1.656-6.75-1.729-9.875-0.177l-128,64
			C2.292,130.933,0,134.621,0,138.662v170.667c0,3.979,2.208,7.615,5.729,9.458l245.333,128c1.542,0.802,3.25,1.208,4.938,1.208
			c1.813,0,3.625-0.458,5.25-1.385l245.333-138.667c3.354-1.885,5.417-5.438,5.417-9.281v-160
			C512,134.964,510.083,131.537,506.938,129.589z M384,185.402V91.923l93.479,46.74L384,185.402z"/>
	</g>
</g>
<g>
</g>
<g>
</g>
<g>
</g>
<g>
</g>
<g>
</g>
<g>
</g>
<g>
</g>
<g>
</g>
<g>
</g>
<g>
</g>
<g>
</g>
<g>
</g>
<g>
</g>
<g>
</g>
<g>
</g>
</svg>
