<svg width="74" height="74" viewBox="0 0 74 74" fill="none" xmlns="http://www.w3.org/2000/svg">
<circle cx="37" cy="37" r="37" fill="#BB2031"/>
<path d="M47.6889 17.9109C60.0727 19.505 56.4381 37.4498 56.0937 46.1479C55.9022 50.9306 55.048 54.6292 50.1122 56.287C43.6205 58.468 34.0551 57.7409 27.4359 56.7717C23.0103 56.134 19.5412 54.8075 18.3169 50.2163C16.3782 42.9593 16.9267 33.1388 17.7684 25.7416C17.794 25.6014 17.8322 25.4992 17.8959 25.4099C18.0105 14.34 41.2481 17.0819 47.6889 17.9109Z" fill="white"/>
<path d="M52.8285 24.6576C52.8541 21.6093 49.0534 20.6401 47.0127 22.515C46.4642 23.0251 46.2091 23.8031 46.1709 24.6448C46.3749 25.7289 47.0255 26.8002 47.8672 27.4123C49.8442 28.8025 52.8029 26.9532 52.8285 24.6576Z" fill="#BB2031"/>
<path d="M47.1785 30.588C42.8168 23.9816 32.9707 23.331 27.6779 29.185C24.0687 33.1769 23.8136 39.8217 26.5302 44.5406C26.6833 44.5915 26.8234 44.6809 26.9511 44.8339C31.364 49.7568 38.9652 51.5424 44.424 47.0786C49.2957 43.0867 50.724 35.9572 47.1785 30.588Z" fill="#BB2031"/>
<path d="M29.7953 39.6435C31.3385 43.9799 36.8227 47.4233 41.1972 44.7451C50.0355 39.3374 39.654 24.6452 32.3714 31.1622C29.7953 32.6798 28.7877 36.7992 29.7953 39.6435Z" fill="white"/>
</svg>
