<svg width="74" height="74" viewBox="0 0 74 74" fill="none" xmlns="http://www.w3.org/2000/svg">
<circle cx="37" cy="37" r="37" fill="#BB2031"/>
<path d="M51.0809 44.4267L47.2823 41.3631C46.4105 40.6753 45.1651 40.6128 44.2933 41.3005L41.0551 43.6764C40.6815 43.989 40.1211 43.9265 39.7474 43.5514L34.8902 39.1747L30.5312 34.2979C30.1576 33.9227 30.1576 33.4226 30.4067 32.9849L32.773 29.7337C33.458 28.8583 33.3957 27.6079 32.7107 26.7325L29.6594 22.9186C28.7253 21.7932 27.044 21.6681 25.9854 22.731L22.7473 25.9822C22.2491 26.4824 22 27.1702 22 27.858C22.3114 34.2354 25.1759 40.3002 29.4103 44.5518C33.6448 48.8034 39.6852 51.6795 46.0369 51.9921C46.7219 52.0546 47.4068 51.742 47.905 51.2418L51.1431 47.9906C52.3263 47.0527 52.264 45.302 51.0809 44.4267Z" fill="white"/>
</svg>
