<svg width="66" height="67" viewBox="0 0 66 67" fill="none" xmlns="http://www.w3.org/2000/svg">
<path d="M40.7249 52.9951H9.9724V8.22012H40.7165V11.5697H44.8488V7.30575C44.8516 3.28919 41.6029 0 37.6491 0H13.0454C9.08587 0 5.84576 3.28919 5.84576 7.30575V59.6913C5.84576 63.7137 9.08587 67 13.0454 67H37.6491C41.6029 67 44.8516 63.7137 44.8516 59.6913V52.9174H40.7249V52.9951ZM25.343 63.3428C23.5189 63.3428 22.0463 61.8449 22.0463 59.9962C22.0463 58.1417 23.5191 56.6466 25.343 56.6466C27.1697 56.6466 28.6454 58.1445 28.6454 59.9962C28.6454 61.8449 27.1699 63.3428 25.343 63.3428Z" fill="#1B70CC"/>
<path d="M22.7204 12.714H13.4957V18.4241H22.7204V12.714Z" fill="#1B70CC"/>
<path d="M22.7204 27.3342H13.4957V33.0443H22.7204V27.3342Z" fill="#1B70CC"/>
<path d="M22.7204 42.6358H13.4957V48.343H22.7204V42.6358Z" fill="#1B70CC"/>
<path d="M55.4612 29.8442C55.1354 28.1133 54.4755 26.5119 53.5409 25.1117L56.849 21.7506L53.4701 18.332L50.1677 21.6873C48.794 20.7328 47.208 20.0714 45.5086 19.7379V14.9795H40.7278V19.7379C39.0256 20.0714 37.4537 20.7356 36.066 21.6873L32.7693 18.332L29.3904 21.7534L32.6929 25.1145C31.7611 26.5147 31.104 28.1161 30.7783 29.8441H26.0965V34.6945H30.7781C31.1039 36.4168 31.7638 38.0182 32.6955 39.4242L29.3903 42.7795L32.7692 46.1952L36.0744 42.8427C37.4566 43.7972 39.0341 44.4613 40.7362 44.7978V49.5475H45.517V44.795C47.2163 44.4643 48.7911 43.7944 50.1761 42.8456L53.4785 46.1981L56.8574 42.7795L53.5493 39.4242C54.4839 38.024 55.1411 36.4197 55.4696 34.6917H60.1541V29.8442H55.4612ZM43.1239 37.5468C40.2492 37.5468 37.9154 35.1892 37.9154 32.268C37.9154 29.3497 40.2491 26.9777 43.1239 26.9777C46.0015 26.9777 48.324 29.3468 48.324 32.268C48.324 35.192 45.9957 37.5468 43.1239 37.5468Z" fill="#1B70CC"/>
</svg>
