<svg width="470" height="470" viewBox="0 0 470 470" fill="none" xmlns="http://www.w3.org/2000/svg">
<path d="M390.42 305.444C390.42 305.444 425.322 263.266 415.922 189.824C406.522 116.381 358.206 95.1844 327.336 94.94C296.467 94.6956 266.96 128.62 225.318 135.463C183.676 142.307 125.96 122.877 79.0164 139.308C32.0728 155.739 28.012 254.543 66.27 293.449C104.528 332.356 185.725 330.824 234.06 321.057C282.395 311.29 354.85 350.329 390.42 305.444Z" fill="#2E4AA9"/>
<path opacity="0.7" d="M390.42 305.444C390.42 305.444 425.322 263.266 415.922 189.824C406.522 116.381 358.206 95.1844 327.336 94.94C296.467 94.6956 266.96 128.62 225.318 135.463C183.676 142.307 125.96 122.877 79.0164 139.308C32.0728 155.739 28.012 254.543 66.27 293.449C104.528 332.356 185.725 330.824 234.06 321.057C282.395 311.29 354.85 350.329 390.42 305.444Z" fill="white"/>
<path d="M253.64 109.143C249.138 106.69 247.06 108.73 245.453 106.69C243.845 104.65 249.955 99.3204 237.679 94.0094C237.679 94.0094 236.861 82.5508 220.092 82.1372C203.322 81.7236 207.815 93.5958 203.313 96.4628C198.81 99.3298 197.588 94.8272 193.085 97.6848C188.583 100.542 190.632 106.276 186.947 107.085C183.262 107.893 178.356 103.409 173.862 106.267C169.369 109.125 169.36 111.587 167.282 111.587C165.205 111.587 161.144 109.952 158.691 111.587C156.237 113.223 153.37 115.272 153.37 115.272H256.911C256.911 115.272 258.133 111.597 253.64 109.143Z" fill="#2E4AA9"/>
<path d="M253.64 109.143C249.138 106.69 247.06 108.73 245.453 106.69C243.845 104.65 249.955 99.3204 237.679 94.0094C237.679 94.0094 236.861 82.5508 220.092 82.1372C203.322 81.7236 207.815 93.5958 203.313 96.4628C198.81 99.3298 197.588 94.8272 193.085 97.6848C188.583 100.542 190.632 106.276 186.947 107.085C183.262 107.893 178.356 103.409 173.862 106.267C169.369 109.125 169.36 111.587 167.282 111.587C165.205 111.587 161.144 109.952 158.691 111.587C156.237 113.223 153.37 115.272 153.37 115.272H256.911C256.911 115.272 258.133 111.597 253.64 109.143Z" fill="#2E4AA9"/>
<path opacity="0.7" d="M253.64 109.143C249.138 106.69 247.06 108.73 245.453 106.69C243.845 104.65 249.955 99.3204 237.679 94.0094C237.679 94.0094 236.861 82.5508 220.092 82.1372C203.322 81.7236 207.815 93.5958 203.313 96.4628C198.81 99.3298 197.588 94.8272 193.085 97.6848C188.583 100.542 190.632 106.276 186.947 107.085C183.262 107.893 178.356 103.409 173.862 106.267C169.369 109.125 169.36 111.587 167.282 111.587C165.205 111.587 161.144 109.952 158.691 111.587C156.237 113.223 153.37 115.272 153.37 115.272H256.911C256.911 115.272 258.133 111.597 253.64 109.143Z" fill="white"/>
<path opacity="0.8" d="M379.205 153.22C376.724 151.857 375.596 152.994 374.693 151.857C373.791 150.72 377.175 147.796 370.398 144.854C370.398 144.854 369.946 138.528 360.678 138.274C351.41 138.02 353.901 144.6 351.419 146.189C348.937 147.777 348.251 145.249 345.779 146.866C343.307 148.482 344.425 151.566 342.386 152.064C340.346 152.562 337.639 150.024 335.157 151.603C332.675 153.182 332.675 154.545 331.538 154.545C330.401 154.545 328.154 153.605 326.838 154.545C325.522 155.485 323.896 156.576 323.896 156.576H381.067C381.067 156.576 381.696 154.527 379.205 153.22Z" fill="white"/>
<path opacity="0.8" d="M111.108 204.572C108.626 203.219 107.489 204.347 106.587 203.219C105.684 202.091 109.078 199.148 102.3 196.206C102.3 196.206 101.849 189.88 92.5806 189.626C83.3122 189.372 85.8032 195.952 83.3122 197.541C80.8212 199.13 80.1538 196.601 77.6722 198.218C75.1906 199.835 76.3092 202.918 74.2788 203.416C72.2484 203.914 69.5788 201.376 67.0502 202.965C64.5216 204.553 64.5592 205.898 63.4312 205.898C62.3032 205.898 60.0472 204.958 58.6842 205.898C57.3212 206.838 55.7514 207.928 55.7514 207.928H112.913C112.913 207.928 113.599 205.926 111.108 204.572Z" fill="white"/>
<path d="M237.905 287.198L236.391 130.66L267.27 130.359L266.368 292.349L237.905 287.198Z" fill="white" stroke="#263238" stroke-width="0.94" stroke-linecap="round" stroke-linejoin="round"/>
<path d="M240.114 133.912L240.358 197.832" stroke="#263238" stroke-width="0.705" stroke-linecap="round" stroke-linejoin="round"/>
<path d="M244.644 134.157V211.923" stroke="#263238" stroke-width="0.705" stroke-linecap="round" stroke-linejoin="round"/>
<path d="M249.673 133.912L250.181 212.929" stroke="#263238" stroke-width="0.705" stroke-linecap="round" stroke-linejoin="round"/>
<path d="M255.962 134.664V211.923" stroke="#263238" stroke-width="0.705" stroke-linecap="round" stroke-linejoin="round"/>
<path d="M261.752 134.918V269.564" stroke="#263238" stroke-width="0.705" stroke-linecap="round" stroke-linejoin="round"/>
<path d="M237.848 140.953L265.024 141.207" stroke="#263238" stroke-width="0.705" stroke-linecap="round" stroke-linejoin="round"/>
<path d="M238.102 151.02L264.779 151.772" stroke="#263238" stroke-width="0.705" stroke-linecap="round" stroke-linejoin="round"/>
<path d="M238.6 161.342L264.272 162.601" stroke="#263238" stroke-width="0.705" stroke-linecap="round" stroke-linejoin="round"/>
<path d="M238.346 171.663L264.779 173.421" stroke="#263238" stroke-width="0.705" stroke-linecap="round" stroke-linejoin="round"/>
<path d="M238.6 181.73L264.018 184.494" stroke="#263238" stroke-width="0.705" stroke-linecap="round" stroke-linejoin="round"/>
<path d="M267.27 130.359L291.193 130.66L289.379 276.304L266.368 292.349L267.27 130.359Z" fill="#263238" stroke="#263238" stroke-width="0.94" stroke-linecap="round" stroke-linejoin="round"/>
<path d="M288.73 134.157V211.923" stroke="white" stroke-width="0.705" stroke-linecap="round" stroke-linejoin="round"/>
<path d="M283.701 133.912L283.758 222.921" stroke="white" stroke-width="0.705" stroke-linecap="round" stroke-linejoin="round"/>
<path d="M277.413 134.664L277.535 226.183" stroke="white" stroke-width="0.705" stroke-linecap="round" stroke-linejoin="round"/>
<path d="M271.622 134.918V269.564" stroke="white" stroke-width="0.705" stroke-linecap="round" stroke-linejoin="round"/>
<path d="M290.563 140.897L268.351 141.207" stroke="white" stroke-width="0.705" stroke-linecap="round" stroke-linejoin="round"/>
<path d="M290.563 151.556L268.596 151.772" stroke="white" stroke-width="0.705" stroke-linecap="round" stroke-linejoin="round"/>
<path d="M291.156 161.323L269.103 162.601" stroke="white" stroke-width="0.705" stroke-linecap="round" stroke-linejoin="round"/>
<path d="M290.272 172.283L268.596 173.421" stroke="white" stroke-width="0.705" stroke-linecap="round" stroke-linejoin="round"/>
<path d="M290.272 182.351L269.357 184.494" stroke="white" stroke-width="0.705" stroke-linecap="round" stroke-linejoin="round"/>
<path d="M289.68 192.719L268.765 194.862" stroke="white" stroke-width="0.705" stroke-linecap="round" stroke-linejoin="round"/>
<path d="M289.68 201.893L268.173 205.221" stroke="white" stroke-width="0.705" stroke-linecap="round" stroke-linejoin="round"/>
<path d="M288.73 211.923L267.58 215.589" stroke="white" stroke-width="0.705" stroke-linecap="round" stroke-linejoin="round"/>
<path d="M265.719 78.96H263.623V111.973H265.719V78.96Z" fill="white" stroke="#263238" stroke-width="0.94" stroke-linecap="round" stroke-linejoin="round"/>
<path d="M251.347 117.754L251.243 109.848L277.15 110.262L277.356 118.28L251.347 117.754Z" fill="white" stroke="#263238" stroke-width="0.94" stroke-linecap="round" stroke-linejoin="round"/>
<path d="M265.494 117.961V110.262H277.15L277.356 118.28L265.494 117.961Z" fill="#263238" stroke="#263238" stroke-width="0.94" stroke-linecap="round" stroke-linejoin="round"/>
<path d="M236.391 130.66L242.746 123.394L267.27 123.093V130.359L236.391 130.66Z" fill="white" stroke="#263238" stroke-width="0.94" stroke-linecap="round" stroke-linejoin="round"/>
<path d="M267.27 123.093L285.741 123.695L291.193 130.66L267.27 130.359V123.093Z" fill="#263238" stroke="#263238" stroke-width="0.94" stroke-linecap="round" stroke-linejoin="round"/>
<path d="M242.746 123.394V117.942L267.261 117.754L267.27 123.093L242.746 123.394Z" fill="white" stroke="#263238" stroke-width="0.94" stroke-linecap="round" stroke-linejoin="round"/>
<path d="M267.261 117.754L285.779 118.384L285.741 123.695L267.27 123.093L267.261 117.754Z" fill="#263238" stroke="#263238" stroke-width="0.94" stroke-linecap="round" stroke-linejoin="round"/>
<path d="M360.358 268.032L378.764 272.168L380.145 235.827L394.405 229.379L414.192 233.985L413.271 292.876L423.855 294.718L422.934 391.773L370.943 375.239L329.075 362.812L360.358 268.032Z" fill="#263238"/>
<path d="M287.631 184.898L340.75 189.401L358.159 184.597L304.438 180.395L287.631 184.898Z" fill="white" stroke="#263238" stroke-width="0.94" stroke-linecap="round" stroke-linejoin="round"/>
<path d="M340.75 189.401L339.246 277.629L356.655 269.526L358.159 184.597L340.75 189.401Z" fill="#263238" stroke="#263238" stroke-width="0.94" stroke-linecap="round" stroke-linejoin="round"/>
<path d="M287.631 184.898L287.33 266.528L339.246 277.629L340.75 189.401L287.631 184.898Z" fill="white" stroke="#263238" stroke-width="0.94" stroke-linecap="round" stroke-linejoin="round"/>
<path d="M332.158 209.911L292.594 206.076V189.664L332.158 193.499V209.911Z" fill="#2E4AA9" stroke="#263238" stroke-width="0.94" stroke-miterlimit="10"/>
<path d="M298.258 204.305L297.309 196.405L298.368 196.511L298.937 202.129L299.661 196.64L300.614 196.736L301.342 202.37L301.845 196.859L302.909 196.965L302.017 204.681L300.839 204.564L300.151 199.306L299.436 204.423L298.258 204.305ZM303.143 204.794L304.25 197.099L305.813 197.255L306.991 205.179L305.888 205.068L305.702 203.657L304.449 203.532L304.281 204.908L303.143 204.794ZM304.564 202.59L305.579 202.691L305.058 198.719L305.04 198.717L304.564 202.59ZM307.697 205.249V197.444L308.624 197.537L310.27 202.384L310.186 200.247V197.693L311.249 197.799V205.605L310.411 205.521L308.721 200.504L308.787 202.56V205.358L307.697 205.249ZM312.825 205.762V198.986L311.916 198.895V197.866L314.877 198.162V199.191L314.003 199.103V205.88L312.825 205.762ZM315.543 206.034V198.228L318.147 198.489V199.513L316.726 199.371V201.642L318.076 201.777V202.779L316.726 202.644V205.128L318.2 205.275V206.3L315.543 206.034ZM319.073 206.387V198.581L320.816 198.756C321.211 198.795 321.527 198.907 321.765 199.09C322.004 199.271 322.176 199.516 322.282 199.825C322.39 200.134 322.445 200.5 322.445 200.923L322.449 204.445C322.449 204.956 322.393 205.377 322.282 205.705C322.173 206.032 321.996 206.265 321.752 206.406C321.508 206.548 321.183 206.598 320.777 206.557L319.073 206.387ZM320.256 205.583L320.644 205.622C320.783 205.635 320.897 205.619 320.989 205.572C321.083 205.525 321.152 205.433 321.196 205.295C321.243 205.155 321.267 204.954 321.267 204.69L321.262 200.836C321.262 200.437 321.214 200.145 321.117 199.961C321.019 199.777 320.849 199.673 320.605 199.648L320.256 199.613V205.583Z" fill="#263238"/>
<path d="M278.174 230.065L312.39 234.342L332.873 225.337L300.236 221.511L278.174 230.065Z" fill="white" stroke="#263238" stroke-width="0.94" stroke-linecap="round" stroke-linejoin="round"/>
<path d="M284.529 229.567L310.792 232.847L326.518 225.938L301.467 222.996L284.529 229.567Z" fill="white" stroke="#263238" stroke-width="0.705" stroke-linecap="round" stroke-linejoin="round"/>
<path d="M278.174 230.065L277.281 299.39L310.585 308.386L312.39 234.342L278.174 230.065Z" fill="white" stroke="#263238" stroke-width="0.94" stroke-linecap="round" stroke-linejoin="round"/>
<path d="M312.39 234.342L332.873 225.337L331.519 299.164L310.585 308.386L312.39 234.342Z" fill="#263238" stroke="#263238" stroke-width="0.94" stroke-linecap="round" stroke-linejoin="round"/>
<path d="M196.667 319.28L193.753 233.355L165.299 228.251L168.034 311.958L196.667 319.28Z" fill="white" stroke="#263238" stroke-width="0.94" stroke-linecap="round" stroke-linejoin="round"/>
<path d="M167.376 258.735L193.048 265.033" stroke="#263238" stroke-width="0.705" stroke-linecap="round" stroke-linejoin="round"/>
<path d="M168.636 261.762L193.302 268.05" stroke="#263238" stroke-width="0.705" stroke-linecap="round" stroke-linejoin="round"/>
<path d="M168.89 277.864L193.555 284.153" stroke="#263238" stroke-width="0.705" stroke-linecap="round" stroke-linejoin="round"/>
<path d="M167.63 275.345L193.302 282.141" stroke="#263238" stroke-width="0.705" stroke-linecap="round" stroke-linejoin="round"/>
<path d="M193.753 233.355L217.102 226.794L218.193 301.242L196.667 319.28L193.753 233.355Z" fill="#263238" stroke="#263238" stroke-width="0.94" stroke-linecap="round" stroke-linejoin="round"/>
<path d="M165.299 228.251L197.767 220.59L217.102 226.794L193.753 233.355L165.299 228.251Z" fill="white" stroke="#263238" stroke-width="0.94" stroke-linecap="round" stroke-linejoin="round"/>
<path d="M167.668 232.998L191.506 236.927L191.835 254.232L168.26 249.767L167.668 232.998Z" fill="#2E4AA9" stroke="#263238" stroke-width="0.94" stroke-linecap="round" stroke-linejoin="round"/>
<path d="M171.847 249.011V243.762L172.637 243.887V246.01L173.343 246.122V243.999L174.133 244.124V249.373L173.343 249.248V246.808L172.637 246.696V249.136L171.847 249.011ZM174.928 249.499V244.25L175.718 244.375V249.624L174.928 249.499ZM176.513 249.75V244.501L177.818 244.708C178.089 244.751 178.291 244.836 178.425 244.965C178.558 245.093 178.646 245.264 178.687 245.478C178.73 245.691 178.752 245.947 178.752 246.245C178.752 246.554 178.72 246.791 178.657 246.958C178.597 247.123 178.471 247.221 178.28 247.25C178.371 247.281 178.446 247.33 178.507 247.4C178.568 247.467 178.617 247.56 178.655 247.679C178.692 247.797 178.718 247.945 178.734 248.124C178.752 248.302 178.761 248.518 178.761 248.773C178.761 248.793 178.761 248.848 178.761 248.94C178.761 249.031 178.761 249.14 178.761 249.265C178.763 249.389 178.765 249.512 178.766 249.636C178.768 249.759 178.771 249.865 178.775 249.953C178.779 250.041 178.784 250.094 178.79 250.111L178.001 249.986C177.995 249.975 177.99 249.923 177.986 249.831C177.984 249.737 177.981 249.619 177.977 249.475C177.975 249.331 177.973 249.177 177.971 249.012C177.971 248.847 177.971 248.685 177.971 248.526C177.971 248.364 177.971 248.222 177.971 248.099C177.971 247.942 177.959 247.822 177.936 247.739C177.914 247.654 177.873 247.59 177.812 247.549C177.753 247.508 177.668 247.475 177.556 247.452L177.302 247.397V249.875L176.513 249.75ZM177.305 246.777L177.621 246.827C177.717 246.842 177.789 246.832 177.839 246.796C177.89 246.76 177.924 246.685 177.942 246.57C177.961 246.456 177.971 246.289 177.971 246.068V246.035C177.971 245.85 177.962 245.707 177.945 245.605C177.927 245.502 177.89 245.428 177.833 245.381C177.778 245.334 177.691 245.302 177.573 245.283L177.305 245.241V246.777ZM179.453 250.216V244.967L180.242 245.092V250.341L179.453 250.216ZM181.038 250.467V245.218L181.656 245.316L182.755 248.639L182.699 247.199V245.481L183.409 245.593V250.842L182.849 250.754L181.721 247.315L181.765 248.7V250.582L181.038 250.467ZM185.164 251.174C184.852 251.125 184.601 250.961 184.41 250.682C184.22 250.401 184.125 249.98 184.125 249.42V247.138C184.125 246.904 184.146 246.697 184.189 246.519C184.235 246.341 184.303 246.196 184.396 246.084C184.49 245.969 184.612 245.891 184.761 245.849C184.91 245.805 185.09 245.8 185.3 245.833C185.528 245.869 185.713 245.934 185.857 246.026C186 246.116 186.11 246.233 186.187 246.376C186.265 246.518 186.319 246.686 186.349 246.879C186.378 247.073 186.393 247.289 186.393 247.527V247.9L185.656 247.784V247.235C185.656 246.998 185.632 246.826 185.583 246.719C185.536 246.612 185.445 246.548 185.312 246.527C185.164 246.504 185.062 246.546 185.005 246.654C184.948 246.761 184.92 246.962 184.92 247.258V249.534C184.92 249.864 184.944 250.104 184.991 250.255C185.04 250.404 185.141 250.49 185.294 250.515C185.443 250.538 185.548 250.482 185.609 250.347C185.672 250.21 185.704 249.97 185.704 249.628V248.921L185.306 248.858V248.277L186.393 248.449V251.315L186.039 251.259L185.919 250.724C185.875 250.898 185.783 251.024 185.642 251.101C185.502 251.178 185.343 251.202 185.164 251.174Z" fill="#263238"/>
<path d="M199.59 197.25L203.181 318.82L233.449 327.205L231.691 201.621L199.59 197.25Z" fill="white" stroke="#263238" stroke-width="0.94" stroke-linecap="round" stroke-linejoin="round"/>
<path d="M203.961 206.894L206.875 310.538" stroke="#263238" stroke-width="0.705" stroke-linecap="round" stroke-linejoin="round"/>
<path d="M203.783 200.709L203.877 203.801" stroke="#263238" stroke-width="0.705" stroke-linecap="round" stroke-linejoin="round"/>
<path d="M208.736 201.921L210.983 311.262" stroke="#263238" stroke-width="0.705" stroke-linecap="round" stroke-linejoin="round"/>
<path d="M213.765 203.125L215.326 312.71" stroke="#263238" stroke-width="0.705" stroke-linecap="round" stroke-linejoin="round"/>
<path d="M218.597 203.736L220.157 313.189" stroke="#263238" stroke-width="0.705" stroke-linecap="round" stroke-linejoin="round"/>
<path d="M223.823 205.343L225.224 315.37" stroke="#263238" stroke-width="0.705" stroke-linecap="round" stroke-linejoin="round"/>
<path d="M229.125 222.376L230.3 315.605" stroke="#263238" stroke-width="0.705" stroke-linecap="round" stroke-linejoin="round"/>
<path d="M228.956 205.465L229.078 217.958" stroke="#263238" stroke-width="0.705" stroke-linecap="round" stroke-linejoin="round"/>
<path d="M260.512 195.059L295.047 272.111V344.905L256.056 328.784L260.512 195.059Z" fill="#263238"/>
<path d="M278.409 242.99V265.87" stroke="white" stroke-width="0.705" stroke-linecap="round" stroke-linejoin="round"/>
<path d="M231.691 201.621L260.512 195.059V334.264L232.791 327.28L231.691 201.621Z" fill="#263238" stroke="#263238" stroke-width="0.94" stroke-linecap="round" stroke-linejoin="round"/>
<path d="M254.702 207.486L255.548 322.834" stroke="white" stroke-width="0.705" stroke-linecap="round" stroke-linejoin="round"/>
<path d="M254.665 200.389L254.684 203.801" stroke="white" stroke-width="0.705" stroke-linecap="round" stroke-linejoin="round"/>
<path d="M249.636 202.119L250.707 322.11" stroke="white" stroke-width="0.705" stroke-linecap="round" stroke-linejoin="round"/>
<path d="M244.804 203.228L245.5 322.11" stroke="white" stroke-width="0.705" stroke-linecap="round" stroke-linejoin="round"/>
<path d="M239.568 205.381L240.48 319.6" stroke="white" stroke-width="0.705" stroke-linecap="round" stroke-linejoin="round"/>
<path d="M234.445 206.039L235.808 318.34" stroke="white" stroke-width="0.705" stroke-linecap="round" stroke-linejoin="round"/>
<path d="M199.59 197.25L230.967 191.769L260.512 195.059L231.691 201.621L199.59 197.25Z" fill="white" stroke="#263238" stroke-width="0.94" stroke-linecap="round" stroke-linejoin="round"/>
<path d="M205.945 197.127L230.77 192.803L254.157 195.398L231.353 200.596L205.945 197.127Z" fill="white" stroke="#263238" stroke-width="0.705" stroke-linecap="round" stroke-linejoin="round"/>
<path d="M233.684 222.94L259.478 215.316V230.855L233.684 239.352V222.94Z" fill="#2E4AA9" stroke="#263238" stroke-width="0.94" stroke-miterlimit="10"/>
<path d="M241.254 234.959C240.685 235.136 240.24 235.096 239.917 234.841C239.598 234.581 239.435 234.103 239.428 233.408L239.412 231.787L240.689 231.39L240.705 232.944C240.706 233.123 240.718 233.285 240.739 233.43C240.764 233.575 240.811 233.681 240.881 233.749C240.951 233.817 241.058 233.828 241.203 233.784C241.347 233.739 241.454 233.662 241.522 233.555C241.59 233.444 241.635 233.306 241.656 233.14C241.677 232.971 241.687 232.777 241.685 232.556L241.616 225.628L242.937 225.217L243.006 232.078C243.013 232.825 242.861 233.449 242.549 233.95C242.241 234.45 241.809 234.786 241.254 234.959ZM246.179 233.427C245.729 233.567 245.36 233.582 245.072 233.471C244.787 233.359 244.576 233.128 244.437 232.778C244.298 232.427 244.226 231.963 244.22 231.385L244.179 227.229C244.173 226.705 244.235 226.237 244.362 225.825C244.49 225.412 244.696 225.062 244.98 224.773C245.264 224.485 245.638 224.268 246.101 224.124C246.45 224.016 246.744 223.981 246.985 224.02C247.227 224.059 247.422 224.164 247.572 224.335C247.722 224.502 247.832 224.731 247.9 225.02C247.973 225.305 248.011 225.643 248.015 226.036L248.056 230.192C248.062 230.77 248.001 231.276 247.873 231.709C247.749 232.142 247.548 232.501 247.271 232.788C246.994 233.074 246.63 233.287 246.179 233.427ZM246.167 232.229C246.332 232.178 246.454 232.088 246.536 231.96C246.617 231.831 246.669 231.657 246.694 231.439C246.721 231.217 246.733 230.944 246.73 230.62L246.688 226.386C246.684 225.99 246.644 225.697 246.57 225.506C246.499 225.311 246.347 225.249 246.113 225.322C245.873 225.397 245.712 225.552 245.628 225.789C245.545 226.022 245.505 226.341 245.509 226.748L245.552 230.986C245.555 231.317 245.571 231.585 245.599 231.79C245.631 231.991 245.69 232.128 245.776 232.201C245.866 232.273 245.996 232.283 246.167 232.229ZM249.285 232.358L249.194 223.271L251.072 222.687C251.509 222.551 251.858 222.514 252.12 222.574C252.381 222.631 252.57 222.793 252.688 223.06C252.81 223.323 252.873 223.698 252.878 224.187L252.88 224.466C252.885 224.938 252.83 225.345 252.714 225.688C252.602 226.027 252.411 226.299 252.139 226.504C252.367 226.513 252.549 226.599 252.686 226.764C252.826 226.924 252.927 227.143 252.989 227.421C253.051 227.695 253.084 228.007 253.087 228.358L253.09 228.591C253.092 229.198 253.03 229.712 252.902 230.135C252.775 230.555 252.572 230.896 252.294 231.158C252.017 231.421 251.653 231.622 251.202 231.762L249.285 232.358ZM250.595 230.873L251.064 230.728C251.238 230.674 251.375 230.591 251.476 230.48C251.581 230.365 251.655 230.206 251.699 230.002C251.743 229.798 251.764 229.533 251.76 229.206L251.753 228.473C251.749 228.032 251.704 227.725 251.62 227.551C251.539 227.372 251.372 227.322 251.119 227.401L250.562 227.574L250.595 230.873ZM250.552 226.537L251.04 226.385C251.155 226.349 251.248 226.303 251.32 226.246C251.392 226.189 251.448 226.113 251.486 226.018C251.525 225.92 251.55 225.793 251.562 225.637C251.577 225.481 251.583 225.285 251.58 225.051L251.575 224.504C251.573 224.26 251.549 224.081 251.505 223.966C251.461 223.852 251.395 223.787 251.306 223.77C251.22 223.751 251.108 223.764 250.97 223.807L250.526 223.945L250.552 226.537Z" fill="#263238"/>
<path d="M288.965 261.809L259.788 274.583L299.277 282.78L322.523 266.922L288.965 261.809Z" fill="white" stroke="#263238" stroke-width="0.94" stroke-linecap="round" stroke-linejoin="round"/>
<path d="M289.266 263.266L264.14 274.264L298.149 281.323L318.171 267.665L289.266 263.266Z" fill="white" stroke="#263238" stroke-width="0.705" stroke-linecap="round" stroke-linejoin="round"/>
<path d="M259.788 274.583L260.512 334.264L298.817 343.749L299.277 282.78L259.788 274.583Z" fill="white" stroke="#263238" stroke-width="0.94" stroke-linecap="round" stroke-linejoin="round"/>
<path d="M265.898 326.208L265.559 316.225L288.195 322.213V332.196L265.898 326.208Z" fill="#263238"/>
<path d="M262.993 283.015L289.661 288.881L290.028 308.264L263.651 301.815L262.993 283.015Z" fill="#2E4AA9" stroke="#263238" stroke-width="0.94" stroke-linecap="round" stroke-linejoin="round"/>
<path d="M267.344 300.23V294.108L268.256 294.3V296.776L269.073 296.948V294.471L269.985 294.663V300.784L269.073 300.593V297.748L268.256 297.576V300.421L267.344 300.23ZM270.904 300.977V294.856L271.816 295.047V301.169L270.904 300.977ZM272.735 301.362V295.24L274.243 295.557C274.556 295.623 274.79 295.734 274.944 295.892C275.099 296.05 275.2 296.254 275.247 296.505C275.297 296.757 275.322 297.057 275.322 297.404C275.322 297.764 275.286 298.039 275.213 298.23C275.143 298.42 274.998 298.526 274.778 298.549C274.882 298.59 274.969 298.652 275.04 298.736C275.11 298.818 275.167 298.93 275.21 299.071C275.253 299.21 275.284 299.385 275.302 299.595C275.322 299.803 275.332 300.056 275.332 300.353C275.332 300.376 275.332 300.441 275.332 300.547C275.332 300.654 275.332 300.78 275.332 300.926C275.335 301.071 275.337 301.215 275.339 301.359C275.342 301.503 275.345 301.627 275.349 301.73C275.354 301.833 275.36 301.894 275.367 301.914L274.454 301.723C274.447 301.71 274.442 301.65 274.437 301.542C274.435 301.432 274.432 301.294 274.427 301.126C274.425 300.958 274.422 300.778 274.42 300.585C274.42 300.393 274.42 300.204 274.42 300.018C274.42 299.831 274.42 299.665 274.42 299.521C274.42 299.338 274.407 299.197 274.379 299.099C274.354 298.998 274.307 298.922 274.236 298.87C274.168 298.819 274.07 298.776 273.94 298.742L273.648 298.663V301.553L272.735 301.362ZM273.651 297.94L274.015 298.017C274.126 298.04 274.21 298.032 274.267 297.993C274.326 297.955 274.366 297.869 274.386 297.737C274.409 297.605 274.42 297.41 274.42 297.152V297.114C274.42 296.899 274.41 296.731 274.39 296.61C274.369 296.49 274.326 296.401 274.26 296.343C274.197 296.286 274.097 296.243 273.961 296.214L273.651 296.149V297.94ZM276.132 302.075V295.954L277.045 296.145V302.267L276.132 302.075ZM277.964 302.46V296.338L278.678 296.488L279.948 300.428L279.883 298.745V296.741L280.704 296.914V303.035L280.057 302.899L278.753 298.824L278.804 300.442V302.636L277.964 302.46ZM282.733 303.524C282.372 303.448 282.081 303.242 281.861 302.906C281.641 302.568 281.531 302.072 281.531 301.418V298.757C281.531 298.483 281.556 298.244 281.606 298.039C281.658 297.834 281.737 297.669 281.844 297.543C281.953 297.415 282.094 297.331 282.266 297.291C282.439 297.248 282.646 297.252 282.889 297.303C283.152 297.358 283.367 297.444 283.532 297.56C283.698 297.674 283.825 297.816 283.914 297.988C284.004 298.158 284.067 298.356 284.101 298.584C284.135 298.811 284.152 299.064 284.152 299.342V299.777L283.301 299.598V298.958C283.301 298.682 283.273 298.48 283.216 298.353C283.161 298.225 283.057 298.145 282.903 298.113C282.733 298.077 282.615 298.121 282.549 298.244C282.483 298.364 282.45 298.598 282.45 298.943V301.597C282.45 301.982 282.477 302.263 282.532 302.442C282.588 302.618 282.705 302.725 282.882 302.762C283.055 302.799 283.176 302.739 283.247 302.585C283.319 302.429 283.355 302.151 283.355 301.752V300.928L282.896 300.831V300.153L284.152 300.417V303.759L283.743 303.674L283.604 303.043C283.554 303.243 283.447 303.384 283.284 303.466C283.123 303.548 282.939 303.567 282.733 303.524Z" fill="#263238"/>
<path d="M299.55 249.044L298.817 343.749L338.579 354.69L341.502 256.338L299.55 249.044Z" fill="white" stroke="#263238" stroke-width="0.94" stroke-linecap="round" stroke-linejoin="round"/>
<path d="M304.748 253.311L303.836 335.862" stroke="#263238" stroke-width="0.705" stroke-linecap="round" stroke-linejoin="round"/>
<path d="M309.965 254.618L309.495 338.193" stroke="#263238" stroke-width="0.705" stroke-linecap="round" stroke-linejoin="round"/>
<path d="M316.752 256.441L316.489 340.853" stroke="#263238" stroke-width="0.705" stroke-linecap="round" stroke-linejoin="round"/>
<path d="M324.591 258.011L323.811 343.185" stroke="#263238" stroke-width="0.705" stroke-linecap="round" stroke-linejoin="round"/>
<path d="M333.465 259.581L331.134 344.848" stroke="#263238" stroke-width="0.705" stroke-linecap="round" stroke-linejoin="round"/>
<path d="M341.502 256.338L363.752 243.573L323.623 237.735L299.55 249.044L341.502 256.338Z" fill="white" stroke="#263238" stroke-width="0.94" stroke-linecap="round" stroke-linejoin="round"/>
<path d="M339.509 254.467L357.285 244.268L325.24 239.615L306.008 248.639L339.509 254.467Z" fill="white" stroke="#263238" stroke-width="0.705" stroke-linecap="round" stroke-linejoin="round"/>
<path d="M363.752 243.573L360.105 357.491L338.579 354.69L341.502 256.338L363.752 243.573Z" fill="#263238" stroke="#263238" stroke-width="0.94" stroke-linecap="round" stroke-linejoin="round"/>
<path d="M345.854 258.876L343.504 350.836" stroke="white" stroke-width="0.705" stroke-linecap="round" stroke-linejoin="round"/>
<path d="M351.739 254.881L349.652 345.516" stroke="white" stroke-width="0.705" stroke-linecap="round" stroke-linejoin="round"/>
<path d="M357.999 250.444L356.429 343.514" stroke="white" stroke-width="0.705" stroke-linecap="round" stroke-linejoin="round"/>
<path d="M309.589 273.343V292.105L300.509 290.639L301.326 285.121L291.419 293.271L301.091 301.778L301.383 297.67L316.62 301.185L317.203 276.868L309.589 273.343Z" fill="#2E4AA9" stroke="#263238" stroke-width="0.94" stroke-linecap="round" stroke-linejoin="round"/>
<path d="M303.15 297.106C303.15 297.327 303.084 297.544 302.961 297.728C302.837 297.912 302.662 298.056 302.457 298.14C302.252 298.225 302.027 298.246 301.81 298.202C301.592 298.158 301.393 298.051 301.237 297.893C301.081 297.736 300.975 297.536 300.933 297.318C300.891 297.101 300.915 296.875 301.001 296.671C301.087 296.467 301.232 296.293 301.417 296.171C301.602 296.049 301.819 295.985 302.041 295.987C302.187 295.987 302.332 296.016 302.467 296.073C302.603 296.129 302.725 296.211 302.828 296.315C302.932 296.419 303.013 296.543 303.068 296.678C303.123 296.814 303.151 296.959 303.15 297.106V297.106Z" fill="white" stroke="#263238" stroke-width="0.94" stroke-linecap="round" stroke-linejoin="round"/>
<path d="M306.609 299.399C307.227 299.399 307.728 298.899 307.728 298.281C307.728 297.663 307.227 297.162 306.609 297.162C305.991 297.162 305.491 297.663 305.491 298.281C305.491 298.899 305.991 299.399 306.609 299.399Z" fill="white" stroke="#263238" stroke-width="0.94" stroke-linecap="round" stroke-linejoin="round"/>
<path d="M312.306 299.446C312.306 299.668 312.24 299.884 312.117 300.068C311.994 300.252 311.819 300.395 311.615 300.48C311.411 300.565 311.186 300.587 310.969 300.544C310.752 300.5 310.552 300.394 310.396 300.237C310.24 300.081 310.133 299.882 310.09 299.665C310.047 299.448 310.069 299.223 310.154 299.018C310.238 298.814 310.382 298.639 310.566 298.516C310.75 298.393 310.966 298.328 311.187 298.328C311.484 298.328 311.768 298.446 311.978 298.655C312.188 298.865 312.306 299.15 312.306 299.446Z" fill="white" stroke="#263238" stroke-width="0.94" stroke-linecap="round" stroke-linejoin="round"/>
<path d="M316.883 300.621C316.883 300.843 316.818 301.059 316.695 301.243C316.572 301.427 316.397 301.57 316.193 301.655C315.988 301.74 315.764 301.762 315.547 301.719C315.33 301.675 315.13 301.569 314.974 301.412C314.817 301.256 314.711 301.057 314.668 300.84C314.625 300.623 314.647 300.398 314.731 300.193C314.816 299.989 314.959 299.814 315.143 299.691C315.327 299.568 315.544 299.503 315.765 299.503C316.061 299.503 316.346 299.621 316.556 299.83C316.766 300.04 316.883 300.325 316.883 300.621V300.621Z" fill="white" stroke="#263238" stroke-width="0.94" stroke-linecap="round" stroke-linejoin="round"/>
<path d="M317.41 294.981C317.41 295.203 317.344 295.419 317.221 295.603C317.098 295.787 316.924 295.93 316.719 296.015C316.515 296.1 316.29 296.122 316.073 296.079C315.856 296.035 315.657 295.929 315.5 295.772C315.344 295.616 315.237 295.417 315.194 295.2C315.151 294.983 315.173 294.758 315.258 294.553C315.342 294.349 315.486 294.174 315.67 294.051C315.854 293.928 316.07 293.863 316.291 293.863C316.588 293.863 316.872 293.981 317.082 294.19C317.292 294.4 317.41 294.685 317.41 294.981V294.981Z" fill="white" stroke="#263238" stroke-width="0.94" stroke-linecap="round" stroke-linejoin="round"/>
<path d="M317.626 288.702C317.626 288.923 317.56 289.14 317.438 289.324C317.315 289.508 317.14 289.651 316.935 289.736C316.731 289.82 316.506 289.842 316.289 289.799C316.072 289.756 315.873 289.65 315.716 289.493C315.56 289.337 315.453 289.137 315.41 288.92C315.367 288.703 315.389 288.479 315.474 288.274C315.559 288.07 315.702 287.895 315.886 287.772C316.07 287.649 316.286 287.584 316.507 287.584C316.804 287.584 317.089 287.701 317.298 287.911C317.508 288.121 317.626 288.406 317.626 288.702V288.702Z" fill="white" stroke="#263238" stroke-width="0.94" stroke-linecap="round" stroke-linejoin="round"/>
<path d="M317.946 282.479C317.946 282.701 317.88 282.917 317.757 283.101C317.634 283.285 317.459 283.428 317.255 283.513C317.051 283.598 316.826 283.62 316.609 283.576C316.392 283.533 316.192 283.427 316.036 283.27C315.88 283.114 315.773 282.915 315.73 282.698C315.687 282.481 315.709 282.256 315.794 282.051C315.878 281.847 316.022 281.672 316.206 281.549C316.39 281.426 316.606 281.361 316.827 281.361C317.124 281.361 317.408 281.479 317.618 281.688C317.828 281.898 317.946 282.183 317.946 282.479Z" fill="white" stroke="#263238" stroke-width="0.94" stroke-linecap="round" stroke-linejoin="round"/>
<path d="M317.833 277.422C317.833 277.644 317.767 277.86 317.644 278.045C317.52 278.229 317.345 278.372 317.14 278.457C316.935 278.541 316.71 278.563 316.493 278.519C316.275 278.475 316.076 278.367 315.92 278.21C315.764 278.052 315.658 277.852 315.616 277.635C315.574 277.417 315.597 277.192 315.683 276.988C315.77 276.783 315.914 276.609 316.1 276.488C316.285 276.366 316.502 276.302 316.724 276.304C316.87 276.304 317.015 276.333 317.15 276.389C317.285 276.445 317.408 276.528 317.511 276.632C317.614 276.736 317.696 276.859 317.751 276.995C317.806 277.131 317.834 277.276 317.833 277.422V277.422Z" fill="white" stroke="#263238" stroke-width="0.94" stroke-linecap="round" stroke-linejoin="round"/>
<path d="M314.646 275.185C314.648 275.407 314.584 275.624 314.462 275.809C314.34 275.994 314.166 276.139 313.962 276.225C313.758 276.311 313.533 276.335 313.315 276.293C313.098 276.251 312.897 276.145 312.74 275.989C312.583 275.833 312.475 275.633 312.431 275.416C312.387 275.199 312.409 274.973 312.493 274.769C312.578 274.564 312.721 274.388 312.905 274.265C313.089 274.142 313.306 274.076 313.528 274.076C313.823 274.076 314.106 274.192 314.315 274.4C314.525 274.608 314.644 274.89 314.646 275.185V275.185Z" fill="white" stroke="#263238" stroke-width="0.94" stroke-linecap="round" stroke-linejoin="round"/>
<path d="M309.862 274.499C310.479 274.499 310.98 273.998 310.98 273.38C310.98 272.762 310.479 272.262 309.862 272.262C309.244 272.262 308.743 272.762 308.743 273.38C308.743 273.998 309.244 274.499 309.862 274.499Z" fill="white" stroke="#263238" stroke-width="0.94" stroke-linecap="round" stroke-linejoin="round"/>
<path d="M310.661 279.481C310.661 279.702 310.595 279.918 310.472 280.102C310.349 280.286 310.174 280.43 309.97 280.514C309.766 280.599 309.541 280.621 309.324 280.578C309.107 280.535 308.907 280.428 308.751 280.272C308.595 280.115 308.488 279.916 308.445 279.699C308.402 279.482 308.424 279.257 308.509 279.053C308.593 278.848 308.737 278.674 308.921 278.551C309.105 278.428 309.321 278.362 309.542 278.362C309.839 278.362 310.123 278.48 310.333 278.69C310.543 278.9 310.661 279.184 310.661 279.481Z" fill="white" stroke="#263238" stroke-width="0.94" stroke-linecap="round" stroke-linejoin="round"/>
<path d="M310.341 285.581C310.341 285.803 310.275 286.019 310.153 286.203C310.03 286.387 309.855 286.53 309.65 286.615C309.446 286.7 309.221 286.722 309.004 286.679C308.787 286.635 308.588 286.529 308.431 286.372C308.275 286.216 308.168 286.017 308.125 285.8C308.082 285.583 308.104 285.358 308.189 285.153C308.274 284.949 308.417 284.774 308.601 284.651C308.785 284.528 309.001 284.463 309.222 284.463C309.37 284.462 309.516 284.49 309.652 284.545C309.788 284.601 309.912 284.684 310.016 284.788C310.12 284.892 310.203 285.016 310.258 285.152C310.314 285.288 310.342 285.434 310.341 285.581V285.581Z" fill="white" stroke="#263238" stroke-width="0.94" stroke-linecap="round" stroke-linejoin="round"/>
<path d="M310.031 291.673C310.031 291.894 309.965 292.11 309.842 292.294C309.719 292.478 309.545 292.621 309.34 292.706C309.136 292.791 308.911 292.813 308.694 292.77C308.477 292.727 308.278 292.62 308.121 292.464C307.965 292.307 307.858 292.108 307.815 291.891C307.772 291.674 307.794 291.449 307.879 291.245C307.963 291.04 308.107 290.865 308.291 290.742C308.475 290.62 308.691 290.554 308.912 290.554C309.209 290.554 309.493 290.672 309.703 290.882C309.913 291.091 310.031 291.376 310.031 291.673V291.673Z" fill="white" stroke="#263238" stroke-width="0.94" stroke-linecap="round" stroke-linejoin="round"/>
<path d="M302.154 290.714C302.155 290.935 302.091 291.153 301.97 291.338C301.848 291.523 301.674 291.668 301.47 291.754C301.265 291.84 301.04 291.864 300.823 291.821C300.605 291.779 300.405 291.674 300.247 291.518C300.09 291.361 299.983 291.162 299.939 290.945C299.895 290.728 299.916 290.502 300.001 290.297C300.085 290.092 300.228 289.917 300.413 289.794C300.597 289.67 300.813 289.605 301.035 289.605C301.33 289.605 301.613 289.721 301.823 289.929C302.032 290.137 302.151 290.419 302.154 290.714V290.714Z" fill="white" stroke="#263238" stroke-width="0.94" stroke-linecap="round" stroke-linejoin="round"/>
<path d="M302.37 285.29C302.37 285.511 302.304 285.728 302.181 285.911C302.058 286.095 301.884 286.239 301.679 286.323C301.475 286.408 301.25 286.43 301.033 286.387C300.816 286.344 300.617 286.237 300.46 286.081C300.304 285.925 300.197 285.725 300.154 285.508C300.111 285.291 300.133 285.066 300.218 284.862C300.302 284.658 300.446 284.483 300.63 284.36C300.814 284.237 301.03 284.171 301.251 284.171C301.548 284.171 301.832 284.289 302.042 284.499C302.252 284.709 302.37 284.993 302.37 285.29Z" fill="white" stroke="#263238" stroke-width="0.94" stroke-linecap="round" stroke-linejoin="round"/>
<path d="M292.942 293.167C292.942 293.388 292.876 293.605 292.753 293.789C292.63 293.973 292.455 294.116 292.251 294.201C292.047 294.285 291.822 294.307 291.605 294.264C291.388 294.221 291.188 294.115 291.032 293.958C290.876 293.802 290.769 293.602 290.726 293.385C290.683 293.168 290.705 292.944 290.79 292.739C290.874 292.535 291.018 292.36 291.202 292.237C291.386 292.114 291.602 292.049 291.823 292.049C292.12 292.049 292.404 292.166 292.614 292.376C292.824 292.586 292.942 292.871 292.942 293.167Z" fill="white" stroke="#263238" stroke-width="0.94" stroke-linecap="round" stroke-linejoin="round"/>
<path d="M302.201 302.53C302.201 302.751 302.135 302.967 302.012 303.151C301.889 303.335 301.714 303.478 301.51 303.563C301.306 303.648 301.081 303.67 300.864 303.627C300.647 303.584 300.447 303.477 300.291 303.321C300.135 303.164 300.028 302.965 299.985 302.748C299.942 302.531 299.964 302.306 300.049 302.102C300.133 301.897 300.277 301.722 300.461 301.6C300.645 301.477 300.861 301.411 301.082 301.411C301.379 301.411 301.663 301.529 301.873 301.739C302.083 301.948 302.201 302.233 302.201 302.53Z" fill="white" stroke="#263238" stroke-width="0.94" stroke-linecap="round" stroke-linejoin="round"/>
<path d="M296.448 297.106C296.448 297.327 296.382 297.544 296.259 297.728C296.135 297.912 295.96 298.056 295.755 298.14C295.55 298.225 295.325 298.246 295.107 298.202C294.89 298.158 294.691 298.051 294.535 297.893C294.379 297.736 294.273 297.536 294.231 297.318C294.189 297.101 294.212 296.875 294.298 296.671C294.385 296.467 294.529 296.293 294.715 296.171C294.9 296.049 295.117 295.985 295.339 295.987C295.485 295.987 295.63 296.016 295.765 296.073C295.9 296.129 296.023 296.211 296.126 296.315C296.229 296.419 296.311 296.543 296.366 296.678C296.421 296.814 296.449 296.959 296.448 297.106V297.106Z" fill="white" stroke="#263238" stroke-width="0.94" stroke-linecap="round" stroke-linejoin="round"/>
<path d="M297.2 289.445C297.2 289.666 297.134 289.882 297.011 290.066C296.888 290.25 296.714 290.394 296.509 290.478C296.305 290.563 296.08 290.585 295.863 290.542C295.646 290.499 295.447 290.392 295.29 290.236C295.134 290.079 295.027 289.88 294.984 289.663C294.941 289.446 294.963 289.221 295.048 289.017C295.132 288.812 295.276 288.638 295.46 288.515C295.644 288.392 295.86 288.326 296.081 288.326C296.378 288.326 296.662 288.444 296.872 288.654C297.082 288.864 297.2 289.148 297.2 289.445V289.445Z" fill="white" stroke="#263238" stroke-width="0.94" stroke-linecap="round" stroke-linejoin="round"/>
<path d="M59.3704 325.08L144.478 287.048L384.864 354.606L335.204 392.196" fill="white"/>
<path d="M59.3704 325.08L144.478 287.048L384.864 354.606L335.204 392.196" stroke="#263238" stroke-width="0.94" stroke-linecap="round" stroke-linejoin="round"/>
<path d="M77.644 329.865L146.584 299.061L341.295 353.788L301.073 384.225" fill="white"/>
<path d="M77.644 329.865L146.584 299.061L341.295 353.788L301.073 384.225" stroke="#263238" stroke-width="0.94" stroke-linecap="round" stroke-linejoin="round"/>
<path d="M146.584 299.061V307.662L332.393 360.18L341.295 353.788L149.535 300.17" fill="#263238"/>
<path d="M77.644 338.466L146.584 307.662L331.933 359.747" stroke="#263238" stroke-width="0.94" stroke-linecap="round" stroke-linejoin="round"/>
<path d="M434.562 391.773L384.864 354.606L335.749 391.773H434.562Z" fill="#263238"/>
<path d="M132.784 358.112C151.334 358.112 166.371 351.18 166.371 342.63C166.371 334.08 151.334 327.148 132.784 327.148C114.235 327.148 99.1982 334.08 99.1982 342.63C99.1982 351.18 114.235 358.112 132.784 358.112Z" fill="#2E4AA9"/>
<path opacity="0.5" d="M132.784 358.112C151.334 358.112 166.371 351.18 166.371 342.63C166.371 334.08 151.334 327.148 132.784 327.148C114.235 327.148 99.1982 334.08 99.1982 342.63C99.1982 351.18 114.235 358.112 132.784 358.112Z" fill="white"/>
<path d="M141 156.266C141 156.266 143.35 161.906 142.88 164.726C142.41 167.546 136.074 169.896 135.134 170.366C134.194 170.836 129.269 168.721 129.269 163.316C129.269 157.911 138.18 151.81 141 156.266Z" fill="white" stroke="#263238" stroke-width="0.94" stroke-linecap="round" stroke-linejoin="round"/>
<path d="M138.246 141L151.462 139.468C152.081 139.4 152.706 139.456 153.303 139.632C153.9 139.808 154.456 140.101 154.939 140.494C155.421 140.887 155.821 141.371 156.115 141.919C156.409 142.468 156.591 143.069 156.651 143.688V143.688C156.704 144.325 156.626 144.965 156.423 145.571C156.22 146.176 155.896 146.734 155.47 147.209C155.044 147.685 154.526 148.07 153.947 148.338C153.368 148.607 152.74 148.756 152.101 148.774L139.881 149.028L138.246 141Z" fill="#263238"/>
<path d="M139.806 138.18C139.806 138.18 142.626 137.24 144.506 138.18C146.386 139.12 148.031 140.53 147.796 141.47C147.561 142.41 146.151 142.175 144.271 142.41C142.391 142.645 140.37 143.942 139.975 142.946C139.581 141.949 139.806 138.18 139.806 138.18Z" fill="white" stroke="#263238" stroke-width="0.94" stroke-linecap="round" stroke-linejoin="round"/>
<path d="M146.743 142.25L160.044 141.912C160.669 141.901 161.289 142.014 161.869 142.245C162.449 142.476 162.977 142.821 163.423 143.258C163.868 143.696 164.222 144.218 164.463 144.793C164.705 145.369 164.829 145.987 164.829 146.612V146.612C164.83 147.254 164.7 147.89 164.445 148.48C164.191 149.07 163.819 149.602 163.351 150.043C162.883 150.483 162.33 150.823 161.726 151.041C161.122 151.26 160.479 151.352 159.838 151.312L147.618 150.456L146.743 142.25Z" fill="#263238"/>
<path d="M141.611 142.25L148.398 142.401C148.834 142.738 149.195 143.163 149.455 143.649C149.716 144.135 149.872 144.671 149.911 145.221C149.924 146.851 149.718 148.476 149.3 150.052H142.062C141.073 149.281 140.339 148.229 139.957 147.035C139.355 145.108 141.611 142.25 141.611 142.25Z" fill="#263238"/>
<path d="M139.12 172.904C139.12 172.904 147.665 173.928 152.036 174.332C156.407 174.737 166.286 169.181 171.832 167.752C178.412 166.032 181.881 169.764 183.601 172.058C185.321 174.351 197.4 182.661 197.4 182.661L199.694 188.978L189.936 192.136C189.936 192.136 186.176 187.539 180.461 180.367C174.746 173.195 172.189 169.548 167.574 172.377C162.958 175.207 156.36 180.367 151.19 179.22C146.02 178.074 139.12 172.904 139.12 172.904Z" fill="#263238"/>
<path d="M142.88 335.834L143.557 336.059L157.45 340.609C157.45 340.609 159.208 341.605 158.7 343.119C158.193 344.632 143.66 346.381 137.86 346.381C132.061 346.381 128.319 345.882 128.319 343.617C128.319 341.352 142.88 335.834 142.88 335.834Z" fill="#2E4AA9" stroke="#263238" stroke-width="0.94" stroke-linecap="round" stroke-linejoin="round"/>
<path d="M158.728 343.1C158.822 342.785 158.831 342.45 158.756 342.13C158.68 341.81 158.521 341.516 158.296 341.276C152.82 342.774 147.197 343.669 141.526 343.946C137.182 344.322 132.817 344.41 128.46 344.209C129.109 345.948 132.672 346.362 137.86 346.362C143.66 346.381 158.23 344.623 158.728 343.1Z" fill="white" stroke="#263238" stroke-width="0.94" stroke-linecap="round" stroke-linejoin="round"/>
<path d="M117.547 327.299C117.547 327.299 124.823 324.281 126.082 326.791C127.342 329.301 124.324 333.07 122.567 333.822C120.809 334.574 119.549 335.082 118.553 336.332C117.556 337.582 114.53 340.609 111.268 340.092C108.006 339.575 107.997 335.326 108.25 334.565C108.504 333.803 117.547 327.299 117.547 327.299Z" fill="#2E4AA9" stroke="#263238" stroke-width="0.94" stroke-linecap="round" stroke-linejoin="round"/>
<path d="M125.424 326.18C125.217 328.22 124.625 330.457 123.131 331.294C120.113 332.967 118.778 332.628 116.099 335.994C115.274 336.965 114.206 337.7 113.003 338.123C111.801 338.546 110.508 338.641 109.256 338.4L108.955 338.616C109.199 339.031 109.534 339.385 109.935 339.652C110.335 339.919 110.791 340.092 111.268 340.158C114.53 340.665 117.547 337.648 118.553 336.398C119.559 335.148 120.809 334.64 122.567 333.888C124.324 333.136 127.342 329.367 126.082 326.857C125.943 326.565 125.712 326.327 125.424 326.18Z" fill="white" stroke="#263238" stroke-width="0.94" stroke-linecap="round" stroke-linejoin="round"/>
<path d="M111.766 222.319C111.766 222.319 109.754 230.61 111.268 234.37C112.781 238.13 113.026 244.165 113.279 246.177C113.533 248.188 110.76 264.977 109.754 273.803C108.749 282.63 104.481 292.387 106.239 298.666C107.997 304.945 106.493 327.806 107 331.312C107.508 334.819 108.504 337.892 109.256 338.344C110.008 338.795 112.772 339.096 115.037 338.09C117.303 337.084 118.797 329.555 119.305 327.299C119.812 325.043 121.815 298.666 122.567 294.643C123.319 290.62 125.584 272.544 125.584 272.544C125.584 272.544 127.586 287.367 127.088 291.344C126.59 295.32 124.823 303.15 125.584 310.144C126.345 317.137 127.586 343.288 127.586 343.288C128.673 343.915 129.864 344.341 131.102 344.548C132.361 344.548 141.902 338.015 142.908 335.759C143.914 333.503 142.908 329.479 142.908 329.479C142.908 329.479 144.666 289.548 146.424 275.984C148.182 262.42 144.168 225.506 144.168 225.506C144.168 225.506 124.324 230.103 111.766 222.319Z" fill="#263238"/>
<path d="M125.33 269.536L122.068 251.206L116.541 241.655" stroke="white" stroke-width="0.94" stroke-linecap="round" stroke-linejoin="round"/>
<path d="M141.94 136.3C142.531 137.911 142.929 139.587 143.124 141.291C143.124 142.946 142.184 144.111 142.41 145.324C142.636 146.537 144.544 148.407 142.889 151.49C141.235 154.574 142.645 159.086 140.276 160.035C138.679 160.624 136.996 160.941 135.294 160.975L134.58 166.192L122.717 162.432V152.919C122.717 152.919 127.699 153.154 129.598 150.776C131.497 148.398 131.017 143.425 131.967 140.098C132.916 136.77 136.714 134.646 138.377 134.646C140.041 134.646 141.94 136.3 141.94 136.3Z" fill="white" stroke="#263238" stroke-width="0.94" stroke-linecap="round" stroke-linejoin="round"/>
<path d="M145.343 132.004C145.089 132.91 144.658 133.757 144.073 134.494C143.489 135.232 142.764 135.846 141.94 136.3C139.562 137.729 136.479 137.24 136.479 138.443C136.479 139.646 138.612 139.383 137.898 142.476C137.446 144.369 136.468 146.096 135.078 147.458C135.078 147.458 137.221 150.071 135.078 150.541C132.935 151.011 132.474 154.104 129.861 154.818C127.248 155.532 124.879 157.422 122.745 155.523C120.611 153.624 113.721 145.794 112.772 140.577C111.822 135.36 117.049 129.899 117.049 129.899C117.049 129.899 116.814 126.815 118.713 125.622C120.611 124.428 125.687 124.033 126.167 122.134C128.16 114.238 141.855 121.674 144.262 125.847C145.377 127.693 145.763 129.889 145.343 132.004V132.004Z" fill="#263238"/>
<path d="M141 130.265C141.023 131.288 140.774 132.299 140.278 133.194C139.783 134.089 139.059 134.836 138.18 135.36C135.134 137.052 128.357 135.698 125.96 138.913C123.563 142.128 125.283 147.204 121.73 148.05" stroke="white" stroke-width="0.47" stroke-linecap="round" stroke-linejoin="round"/>
<path d="M135.792 140.925C135.792 140.925 132.568 141.94 131.215 143.97C129.861 146.001 129.184 150.738 125.123 151.923" stroke="white" stroke-width="0.47" stroke-linecap="round" stroke-linejoin="round"/>
<path d="M135.294 151.725C135.294 151.725 133.414 146.029 130.782 147.458C128.15 148.887 130.312 153.154 131.722 154.339C133.132 155.523 134.805 153.869 134.805 153.869" fill="white"/>
<path d="M135.294 151.725C135.294 151.725 133.414 146.029 130.782 147.458C128.15 148.887 130.312 153.154 131.722 154.339C133.132 155.523 134.805 153.869 134.805 153.869" stroke="#263238" stroke-width="0.94" stroke-linecap="round" stroke-linejoin="round"/>
<path d="M117.021 163.353C114.078 165.47 111.607 168.175 109.764 171.296C106.944 176.278 110.61 199.43 111.559 205.597C112.509 211.763 110.375 221.972 112.039 224.82C113.702 227.668 119.154 230.037 124.371 230.516C129.588 230.996 137.663 230.281 140.746 229.332C143.829 228.382 145.493 225.769 145.493 224.585C145.493 223.4 145.258 208.924 145.258 205.832C145.258 202.739 145.023 180.677 143.124 176.41C141.396 172.707 138.468 169.696 134.815 167.865C131.967 166.446 121.26 161.219 117.021 163.353Z" fill="#2E4AA9" stroke="#263238" stroke-width="0.94" stroke-linecap="round" stroke-linejoin="round"/>
<path d="M138.067 191.563C138.067 191.563 135.529 193.866 128.366 194.796" stroke="#263238" stroke-width="0.94" stroke-miterlimit="10"/>
<path d="M132.954 201.451C132.272 202.165 131.509 202.797 130.679 203.331" stroke="#263238" stroke-width="0.94" stroke-miterlimit="10"/>
<path d="M138.988 191.563C137.885 194.33 136.448 196.953 134.711 199.374" stroke="#263238" stroke-width="0.94" stroke-miterlimit="10"/>
<path d="M137.832 217.187C133.586 222.71 127.394 226.408 120.517 227.527C120.517 227.527 130.679 227.762 137.372 220.599" stroke="#263238" stroke-width="0.94" stroke-linecap="round" stroke-linejoin="round"/>
<path d="M119.154 159.321C119.154 159.321 126.035 159.8 130.547 162.404C135.059 165.008 138.142 167.63 139.797 168.1C141.451 168.57 144.544 168.815 143.557 169.04C142.57 169.266 141.423 169.52 139.054 170.225C136.685 170.93 133.358 169.52 128.376 167.141C123.394 164.763 117.932 163.381 116.983 163.381C116.034 163.381 117.256 159.321 119.154 159.321Z" fill="#2E4AA9" stroke="#263238" stroke-width="0.94" stroke-linecap="round" stroke-linejoin="round"/>
<path d="M159.499 183.056C159.499 183.056 167.386 188.329 168.542 192.249" stroke="#263238" stroke-width="0.94" stroke-linecap="round" stroke-linejoin="round"/>
<path d="M159.02 174.511L150.72 155.1C149.67 153.923 148.473 152.886 147.157 152.017C146.943 151.918 146.755 151.769 146.608 151.584C146.462 151.398 146.361 151.181 146.315 150.949C146.268 150.718 146.276 150.478 146.339 150.251C146.403 150.023 146.518 149.813 146.678 149.639C146.678 149.639 149.056 150.118 149.056 149.169C149.027 147.591 148.867 146.019 148.576 144.469C148.341 143.754 147.636 143.275 147.636 142.589C147.636 141.902 149.3 140.925 151.199 141.404C153.098 141.884 152.778 141.602 152.778 141.602C155.495 141 156.021 141.602 157.375 144.008C158.221 145.868 158.626 147.897 158.559 149.939C158.559 151.133 157.13 154.686 157.13 154.686L167.339 174.426L159.02 174.511Z" fill="white" stroke="#263238" stroke-width="0.94" stroke-linecap="round" stroke-linejoin="round"/>
<path d="M159.969 179.972C159.969 179.972 156.886 179.972 157.149 179.258C157.412 178.544 156.444 175.93 156.444 174.746C156.444 173.562 158.578 172.133 161.144 171.663C163.71 171.193 166.606 172.133 167.555 172.377C168.504 172.622 168.739 174.511 169.435 175.695C170.131 176.88 170.619 178.309 170.149 179.258C169.694 179.923 169.034 180.421 168.269 180.677L159.969 179.972Z" fill="#2E4AA9" stroke="#263238" stroke-width="0.94" stroke-linecap="round" stroke-linejoin="round"/>
<path d="M125.8 176.41C125.8 176.41 127.464 170.713 130.782 169.529C134.1 168.345 138.142 169.999 142.175 172.612C146.208 175.225 159.499 183.056 159.499 183.056L158.07 177.359C158.07 177.359 166.615 174.746 168.749 178.779C170.883 182.811 172.311 197.532 172.311 199.459C172.311 201.386 167.329 203.012 164.246 202.777C161.163 202.542 133.865 189.015 133.865 189.015" fill="#2E4AA9"/>
<path d="M125.8 176.41C125.8 176.41 127.464 170.713 130.782 169.529C134.1 168.345 138.142 169.999 142.175 172.612C146.208 175.225 159.499 183.056 159.499 183.056L158.07 177.359C158.07 177.359 166.615 174.746 168.749 178.779C170.883 182.811 172.311 197.532 172.311 199.459C172.311 201.386 167.329 203.012 164.246 202.777C161.163 202.542 133.865 189.015 133.865 189.015" stroke="#263238" stroke-width="0.94" stroke-linecap="round" stroke-linejoin="round"/>
<path d="M162.996 185.33C165.447 186.057 167.622 187.505 169.238 189.485" stroke="#263238" stroke-width="0.94" stroke-linecap="round" stroke-linejoin="round"/>
</svg>
