<svg width="56" height="56" viewBox="0 0 56 56" fill="none" xmlns="http://www.w3.org/2000/svg">
<path d="M37.7255 46.99C37.4353 46.8134 37.1825 46.5767 36.9815 46.2899C36.8887 46.1576 36.8103 46.0177 36.7454 45.8731H3.77155V13.3723H48.5288V34.5942C49.4843 34.6805 50.286 35.3081 50.6226 36.1674C50.9206 36.0041 51.2528 35.9031 51.6019 35.8723C51.8381 35.8518 52.0727 35.8664 52.3002 35.9114V5.27568C52.3002 3.54259 50.8905 2.13263 49.1575 2.13263H3.14292C1.40996 2.13263 0 3.54259 0 5.27568V46.5019C0 48.235 1.40996 49.6448 3.14292 49.6448H37.4391C37.1714 49.1029 37.108 48.491 37.2655 47.9024C37.3563 47.5638 37.5134 47.255 37.7255 46.99ZM45.0774 7.41043C45.0774 6.76952 45.597 6.24984 46.2379 6.24984H47.3983C48.0394 6.24984 48.5588 6.76939 48.5588 7.41043V8.72571C48.5588 9.36662 48.0392 9.88617 47.3983 9.88617H46.2379C45.5968 9.88617 45.0774 9.36662 45.0774 8.72571V7.41043ZM39.6812 7.41043C39.6812 6.76952 40.2007 6.24984 40.8416 6.24984H42.0022C42.6433 6.24984 43.1627 6.76939 43.1627 7.41043V8.72571C43.1627 9.36662 42.6431 9.88617 42.0022 9.88617H40.8416C40.2007 9.88617 39.6812 9.36662 39.6812 8.72571V7.41043ZM34.2848 7.41043C34.2848 6.76952 34.8045 6.24984 35.4453 6.24984H36.6057C37.2468 6.24984 37.7663 6.76939 37.7663 7.41043V8.72571C37.7663 9.36662 37.2468 9.88617 36.6057 9.88617H35.4453C34.8045 9.88617 34.2848 9.36662 34.2848 8.72571V7.41043Z" fill="#1B70CC"/>
<path d="M55.9925 44.7767L55.6438 42.799C55.5967 42.5327 55.343 42.3548 55.0764 42.4018L53.3177 42.7117C53.1066 42.2163 52.8369 41.7522 52.5169 41.3275L53.6656 39.9582C53.7491 39.859 53.7898 39.7303 53.7786 39.6008C53.7671 39.4713 53.7047 39.3518 53.6052 39.2682L52.0671 37.9773C51.9676 37.8938 51.8387 37.8533 51.7093 37.8646C51.5798 37.876 51.4603 37.9382 51.3768 38.0377L50.2292 39.406C49.758 39.1659 49.2541 38.9808 48.7261 38.8587V37.0728C48.7261 36.8023 48.5068 36.5828 48.2363 36.5828H46.228C45.9577 36.5828 45.7382 36.8023 45.7382 37.0728V38.8587C45.21 38.9807 44.7065 39.1659 44.2351 39.406L43.0872 38.0379C42.9133 37.8306 42.6045 37.8037 42.3971 37.9775L40.8588 39.2682C40.7594 39.3518 40.6971 39.4713 40.6856 39.6008C40.6744 39.7303 40.715 39.8591 40.7984 39.9586L41.9473 41.3276C41.6278 41.7522 41.3576 42.2166 41.1465 42.7118L39.3878 42.4018C39.1219 42.355 38.8676 42.5327 38.8204 42.799L38.4718 44.7767C38.4493 44.9046 38.4785 45.0361 38.5527 45.1426C38.6275 45.2492 38.7408 45.3216 38.8688 45.3441L40.6288 45.6543C40.6575 46.1996 40.7524 46.7272 40.9053 47.2295L39.3583 48.1223C39.2458 48.187 39.1638 48.2942 39.13 48.4196C39.0964 48.5451 39.1142 48.6787 39.179 48.7912L40.183 50.5303C40.2477 50.6429 40.3549 50.7249 40.4803 50.7585C40.522 50.7697 40.5645 50.7752 40.6071 50.7752C40.6923 50.7752 40.7767 50.753 40.8519 50.7095L42.4 49.8157C42.7641 50.2057 43.1751 50.5514 43.6242 50.8437L43.0129 52.523C42.9687 52.6452 42.9744 52.7799 43.0293 52.8976C43.0843 53.0154 43.1836 53.1065 43.3057 53.1508L45.1924 53.8374C45.2465 53.8571 45.3033 53.8673 45.36 53.8673C45.4307 53.8673 45.5017 53.8519 45.5672 53.8213C45.685 53.7664 45.7758 53.667 45.8202 53.5448L46.4314 51.8655C46.6934 51.8972 46.9601 51.9136 47.2307 51.9136C47.5013 51.9136 47.768 51.8969 48.03 51.8655L48.6413 53.5448C48.6856 53.667 48.7768 53.7664 48.8943 53.8213C48.9596 53.8518 49.0305 53.8673 49.1015 53.8673C49.1581 53.8673 49.2149 53.8574 49.269 53.8374L51.156 53.1508C51.2778 53.1065 51.3772 53.0151 51.432 52.8976C51.487 52.7799 51.4929 52.6452 51.4485 52.523L50.8372 50.844C51.2859 50.5517 51.6969 50.2057 52.0614 49.8159L53.6095 50.7098C53.6846 50.753 53.7691 50.7754 53.8543 50.7754C53.8967 50.7754 53.9397 50.7697 53.9811 50.7588C54.1066 50.7252 54.2136 50.6429 54.2784 50.5306L55.2824 48.7912C55.3472 48.6789 55.365 48.5451 55.3314 48.4196C55.2976 48.2945 55.2156 48.1873 55.1031 48.1223L53.5564 47.2298C53.7092 46.7273 53.8039 46.1997 53.8326 45.6546L55.5926 45.3443C55.7206 45.3217 55.8342 45.2493 55.9087 45.1428C55.9859 45.0361 56.0151 44.9046 55.9925 44.7767ZM47.2323 47.9194C45.7447 47.9194 44.5385 46.7132 44.5385 45.2254C44.5385 43.7377 45.7448 42.5317 47.2323 42.5317C48.72 42.5317 49.9262 43.7377 49.9262 45.2254C49.9262 46.7132 48.72 47.9194 47.2323 47.9194Z" fill="#1B70CC"/>
<path d="M21.9629 31.3882C21.9629 30.7545 21.5915 30.1724 21.0166 29.9054L15.7551 27.4608L21.0168 25.0158C21.5915 24.7486 21.9629 24.1666 21.9629 23.5332V23.4907C21.9629 22.9292 21.6804 22.4138 21.2075 22.1126C20.9458 21.9455 20.6411 21.8571 20.3265 21.8571C20.0894 21.8571 19.8514 21.9092 19.6384 22.0081L11.2266 25.9199C10.652 26.1871 10.2809 26.7691 10.2809 27.4024V27.5193C10.2809 28.1518 10.6519 28.7334 11.2268 29.002L19.6394 32.9141C19.8569 33.0148 20.0885 33.0658 20.3277 33.0658C20.6395 33.0658 20.9433 32.9773 21.2075 32.8093C21.6806 32.5068 21.9631 31.9918 21.9631 31.431L21.9629 31.3882Z" fill="#1B70CC"/>
<path d="M30.2625 17.8712C29.9557 17.4511 29.4621 17.2004 28.9422 17.2004H28.9003C28.1863 17.2004 27.5604 17.6572 27.3429 18.3361L21.8006 35.5085C21.6429 36.0043 21.7317 36.5504 22.0381 36.9704C22.345 37.3902 22.8385 37.641 23.3585 37.641H23.4005C24.1142 37.641 24.7398 37.1841 24.957 36.5053L30.4986 19.3343C30.6578 18.8388 30.5695 18.292 30.2625 17.8712Z" fill="#1B70CC"/>
<path d="M41.0736 25.9197L32.6616 22.008C32.4493 21.9093 32.2117 21.8572 31.9746 21.8572C31.6601 21.8572 31.3553 21.9453 31.0938 22.1122C30.6201 22.4139 30.3375 22.9292 30.3375 23.4906V23.5332C30.3375 24.1661 30.7087 24.7482 31.2839 25.0165L36.5453 27.4609L31.2838 29.9054C30.7089 30.1724 30.3375 30.7545 30.3375 31.3882V31.431C30.3375 31.9918 30.6201 32.5067 31.0935 32.8094C31.3568 32.9771 31.6608 33.0658 31.973 33.0658C32.212 33.0658 32.4433 33.0147 32.6623 32.9137L41.0746 29.0016C41.649 28.7336 42.0198 28.1519 42.0198 27.5194V27.4025C42.0194 26.7691 41.6483 26.1871 41.0736 25.9197Z" fill="#1B70CC"/>
</svg>
